<svg xmlns="http://www.w3.org/2000/svg" xmlns:xlink="http://www.w3.org/1999/xlink" width="1439" height="429" viewBox="0 0 1439 429">
    <defs>
        <path id="a" d="M0 0h1440v429H0z"/>
    </defs>
    <g fill="none" fill-rule="evenodd">
        <mask id="b" fill="#fff">
            <use xlink:href="#a"/>
        </mask>
        <use fill="#0467DD" fill-rule="nonzero" xlink:href="#a"/>
        <g fill="#351498" fill-opacity=".12" fill-rule="nonzero" mask="url(#b)" opacity=".475">
            <path d="M1439-426v923l-721-1.429v-13.777c0-355.1 116.684-641.834 350.051-860.202 15.62-14.614 35.121-33.677 49.677-47.592H1439z"/>
            <path d="M1439-280.408v777.053L721.148 497c20.03-203.706 135.665-370.568 346.903-500.584C1301.42-147.22 1425.068-239.495 1439-280.408z"/>
            <path d="M1439-426v922.782L718.285 497c6.465-283.942 123.054-514.188 349.766-690.736 119.287-92.892 201.162-179.881 268.826-232.264H1439z"/>
            <path d="M1439-77.484v572.576L729.052 497c34.098-142.295 147.098-260.409 339-354.34C1301.418 28.434 1425.067-44.948 1439-77.484z"/>
            <path d="M1439 45.043V497l-697.258-1.783c44.949-104.537 153.718-192.53 326.31-263.98C1301.418 134.626 1425.067 72.561 1439 45.043z"/>
            <path d="M1439 167.795V497l-671.521-1.076c54.751-68.371 154.942-127.138 300.572-176.3 233.369-78.78 357.017-129.39 370.949-151.829z"/>
            <path d="M1439 333.325V497l-555.372-.984c50.106-20.543 111.58-39.407 184.423-56.591 233.369-55.054 357.017-90.42 370.949-106.1z"/>
            <g>
                <path d="M-1-426v923l719-1.429v-13.777c0-355.1-116.36-641.834-349.08-860.202-15.576-14.614-35.024-33.677-49.54-47.592H-1z"/>
                <path d="M-1-280.408v777.053l715.861.355C694.885 293.294 579.571 126.432 368.92-3.584 136.2-147.22 12.893-239.495-1-280.408z"/>
                <path d="M-1-426v922.782l718.716.218C711.269 213.058 595.003-17.188 368.92-193.736 249.964-286.628 168.316-373.617 100.84-426H-1z"/>
                <path d="M-1-77.484v572.576L706.979 497c-34.004-142.295-146.69-260.409-338.06-354.34C136.2 28.434 12.894-44.948-1-77.484z"/>
                <path d="M-1 45.043V497l695.324-1.783C649.5 390.68 541.032 302.687 368.92 231.237 136.2 134.626 12.893 72.561-1 45.043z"/>
                <path d="M-1 167.795V497l669.658-1.076c-54.6-68.371-154.512-127.138-299.738-176.3C136.2 240.844 12.893 190.234-1 167.795z"/>
                <path d="M-1 333.325V497l553.831-.984c-49.967-20.543-111.27-39.407-183.911-56.591C136.2 384.371 12.893 349.005-1 333.325z"/>
            </g>
        </g>
    </g>
</svg>
