<svg width="56" height="95" viewBox="0 0 56 95" fill="none" xmlns="http://www.w3.org/2000/svg">
<path d="M42.8527 18.8066H53.3946C54.5584 18.8066 55.5029 17.8894 55.5029 16.7593V2.96682C55.5029 1.89404 54.6533 1.00143 53.5527 0.92568C50.1983 0.694337 43.6455 0.381104 38.9333 0.381104C25.9857 0.381104 17.5523 7.91509 17.5523 21.6073V35.1848H2.79367C1.62985 35.1848 0.685303 36.102 0.685303 37.2321V51.5631C0.685303 52.6932 1.62985 53.6104 2.79367 53.6104H17.5523V92.5087C17.5523 93.6387 18.4968 94.5559 19.6606 94.5559H34.4192C35.583 94.5559 36.5276 93.6387 36.5276 92.5087V53.6104H51.7542C52.8295 53.6104 53.7319 52.8262 53.85 51.7883L55.4903 37.4573C55.6294 36.2453 54.6511 35.1848 53.3946 35.1848H36.5276V24.9485C36.5276 21.5561 39.3591 18.8066 42.8527 18.8066Z" fill="white"/>
</svg>
