<svg width="200" height="200" viewBox="0 0 200 200" fill="none" xmlns="http://www.w3.org/2000/svg">
<g filter="url(#filter0_d)">
<circle cx="100" cy="99.5532" r="90" stroke="url(#paint0_linear)" stroke-width="5"/>
</g>
<path d="M91.6545 40C89.1791 40 86.9901 41.7323 86.4991 44.1576L85.2716 50.2717C77.1601 52.6563 69.8668 56.7425 63.9135 62.4185L58.1853 60.462C55.8531 59.6773 53.2958 60.7269 52.0479 62.8261L43.7011 77.1739C42.4633 79.3139 42.893 82.0652 44.7649 83.6957L49.3475 87.7717C48.3757 91.7052 47.629 95.7507 47.629 100C47.629 104.249 48.3859 108.295 49.3475 112.228L44.7649 116.304C42.9032 117.935 42.4633 120.686 43.7011 122.826L51.9661 137.174C53.2038 139.314 55.8326 140.333 58.1853 139.538L63.9135 137.582C69.8668 143.257 77.1703 147.344 85.2716 149.728L86.4991 155.842C86.9901 158.257 89.1791 160 91.6545 160H108.348C110.824 160 113.013 158.268 113.504 155.842L114.731 149.728C122.843 147.344 130.136 143.257 136.089 137.582L141.817 139.538C144.15 140.323 146.707 139.273 147.955 137.174L156.302 122.826C157.539 120.686 157.1 117.935 155.238 116.304L150.655 112.228C151.617 108.295 152.374 104.249 152.374 100C152.374 95.7507 151.617 91.7052 150.655 87.7717L155.238 83.6957C157.1 82.0652 157.539 79.3139 156.302 77.1739L148.037 62.8261C146.799 60.6861 144.17 59.6671 141.817 60.462L136.089 62.4185C130.136 56.7425 122.832 52.6563 114.731 50.2717L113.504 44.1576C113.013 41.7425 110.824 40 108.348 40H91.6545ZM91.6545 45.2174H108.348L110.149 54.1848L111.703 54.5924C120.173 56.7527 127.712 61.1141 133.634 67.1467L134.78 68.3696L136.417 67.7989L143.454 65.4348L151.801 79.7826L146.155 84.7554L144.927 85.8152L145.336 87.3641C146.461 91.3995 147.137 95.6386 147.137 100C147.137 104.361 146.461 108.601 145.336 112.636L144.927 114.185L146.155 115.245L151.801 120.217L143.454 134.565L136.335 132.201L134.78 131.63L133.634 132.853C127.712 138.876 120.173 143.247 111.703 145.408L110.149 145.815L108.348 154.783H91.6545L89.8542 145.815L88.2994 145.408C79.8298 143.247 72.2911 138.886 66.3685 132.853L65.2228 131.63L63.5862 132.201L56.5487 134.565L48.2018 120.217L53.8482 115.245L55.0757 114.185L54.6665 112.636C53.5413 108.601 52.8662 104.361 52.8662 100C52.8662 95.6386 53.5311 91.3995 54.6665 87.3641L55.0757 85.8152L53.8482 84.7554L48.2018 79.7826L56.5487 65.4348L63.668 67.7989L65.2228 68.3696L66.3685 67.1467C72.2911 61.1243 79.8298 56.7527 88.2994 54.5924L89.8542 54.1848L91.6545 45.2174ZM125.942 81.6576C125.83 81.678 125.717 81.7086 125.615 81.7391H123.569C123.487 81.7391 123.405 81.7391 123.323 81.7391C121.881 81.8105 120.756 83.0333 120.828 84.4701C120.899 85.9069 122.127 87.0279 123.569 86.9565V113.043C123.487 113.043 123.405 113.043 123.323 113.043C121.881 113.115 120.756 114.338 120.828 115.774C120.899 117.211 122.127 118.332 123.569 118.261H128.806C129.747 118.271 130.627 117.782 131.108 116.967C131.578 116.151 131.578 115.153 131.108 114.338C130.627 113.522 129.747 113.033 128.806 113.043V86.9565C129.747 86.9667 130.627 86.4776 131.108 85.6624C131.578 84.8471 131.578 83.8485 131.108 83.0333C130.627 82.2181 129.747 81.7289 128.806 81.7391H126.679C126.443 81.678 126.188 81.6474 125.942 81.6576ZM77.4158 81.7391C76.3622 81.8614 75.4927 82.6053 75.2063 83.6141L66.0412 113.288C65.9695 113.553 65.9389 113.828 65.9593 114.103V115.652C65.9491 116.59 66.4401 117.466 67.2584 117.945C68.0767 118.414 69.0792 118.414 69.8975 117.945C70.7158 117.466 71.2068 116.59 71.1966 115.652V114.592L72.5059 110.435H82.9803L84.2897 114.592V115.652C84.2794 116.59 84.7704 117.466 85.5887 117.945C86.4071 118.414 87.4095 118.414 88.2278 117.945C89.0461 117.466 89.5371 116.59 89.5269 115.652V114.103C89.5474 113.828 89.5167 113.553 89.4451 113.288L80.2799 83.6141C79.9219 82.3709 78.7046 81.5659 77.4158 81.7391ZM96.8918 81.7391C95.6438 81.9735 94.7437 83.0741 94.7641 84.3478V102.12C94.6925 102.466 94.6925 102.833 94.7641 103.179V115.652C94.7539 116.59 95.2449 117.466 96.0632 117.945C96.8815 118.414 97.884 118.414 98.7023 117.945C99.5206 117.466 100.012 116.59 100.001 115.652V105.217H107.857C112.164 105.217 115.713 101.681 115.713 97.3913V89.5652C115.713 85.2751 112.164 81.7391 107.857 81.7391H97.3828C97.3009 81.7391 97.2191 81.7391 97.1373 81.7391C97.0554 81.7391 96.9736 81.7391 96.8918 81.7391ZM100.001 86.9565H107.857C109.34 86.9565 110.476 88.0876 110.476 89.5652V97.3913C110.476 98.8689 109.34 100 107.857 100H100.001V86.9565ZM77.7431 93.3152L81.4255 105.217H74.0607L77.7431 93.3152Z" fill="url(#paint1_linear)"/>
<defs>
<filter id="filter0_d" x="0.5" y="0.0532227" width="199" height="199" filterUnits="userSpaceOnUse" color-interpolation-filters="sRGB">
<feFlood flood-opacity="0" result="BackgroundImageFix"/>
<feColorMatrix in="SourceAlpha" type="matrix" values="0 0 0 0 0 0 0 0 0 0 0 0 0 0 0 0 0 0 127 0"/>
<feMorphology radius="1" operator="dilate" in="SourceAlpha" result="effect1_dropShadow"/>
<feOffset/>
<feGaussianBlur stdDeviation="3"/>
<feColorMatrix type="matrix" values="0 0 0 0 0 0 0 0 0 0 0 0 0 0 0 0 0 0 0.25 0"/>
<feBlend mode="normal" in2="BackgroundImageFix" result="effect1_dropShadow"/>
<feBlend mode="normal" in="SourceGraphic" in2="effect1_dropShadow" result="shape"/>
</filter>
<linearGradient id="paint0_linear" x1="7.39884" y1="104.235" x2="178.555" y2="103.195" gradientUnits="userSpaceOnUse">
<stop stop-color="#44AB96"/>
<stop offset="1" stop-color="#4484AB"/>
</linearGradient>
<linearGradient id="paint1_linear" x1="43" y1="100" x2="157" y2="100" gradientUnits="userSpaceOnUse">
<stop stop-color="#44AB96"/>
<stop offset="1" stop-color="#4484AB"/>
</linearGradient>
</defs>
</svg>
