<svg width="200" height="200" viewBox="0 0 200 200" fill="none" xmlns="http://www.w3.org/2000/svg">
<g filter="url(#filter0_d)">
<circle cx="100.198" cy="100" r="90" stroke="url(#paint0_linear)" stroke-width="5"/>
</g>
<path d="M88.0615 54C68.3298 54 52.0615 68.207 52.0615 86C52.0615 94.6377 56.0317 102.385 62.2295 108.105C60.3706 114.02 53.1631 118.359 53.1631 118.359C52.9005 118.503 52.6735 118.704 52.4989 118.947C52.3242 119.19 52.2062 119.469 52.1538 119.763C52.1013 120.058 52.1156 120.361 52.1956 120.649C52.2757 120.938 52.4194 121.204 52.6162 121.43C52.6162 121.43 53.427 122.278 54.7334 122.875C56.0398 123.472 57.9888 124 60.7178 124C73.6534 124 79.4641 118.826 80.9717 117.27C83.2664 117.684 85.6114 118 88.0615 118C107.793 118 124.062 103.793 124.062 86C124.062 68.207 107.793 54 88.0615 54ZM88.0615 58C105.886 58 120.062 70.657 120.062 86C120.062 101.343 105.886 114 88.0615 114C85.5743 114 83.157 113.726 80.8115 113.25C80.4972 113.186 80.1719 113.198 79.8633 113.285C79.5546 113.373 79.2716 113.534 79.0381 113.754L78.7529 114.027C78.7109 114.066 78.6705 114.106 78.6318 114.148C78.1884 114.646 73.2763 120 60.7178 120C59.4859 120 59.0619 119.751 58.3193 119.578C61.2391 117.525 65.1029 114.204 66.4561 108.312C66.4603 108.29 66.4642 108.268 66.4678 108.246L66.5107 108.02C66.5793 107.671 66.5535 107.31 66.4361 106.974C66.3187 106.638 66.1139 106.34 65.8428 106.109C59.7815 100.98 56.0615 93.8798 56.0615 86C56.0615 70.657 70.2373 58 88.0615 58ZM72.0615 78C71.7965 77.9963 71.5334 78.0452 71.2874 78.144C71.0415 78.2429 70.8177 78.3896 70.6289 78.5757C70.4402 78.7618 70.2903 78.9835 70.188 79.228C70.0857 79.4725 70.033 79.7349 70.033 80C70.033 80.2651 70.0857 80.5275 70.188 80.772C70.2903 81.0165 70.4402 81.2382 70.6289 81.4243C70.8177 81.6104 71.0415 81.7571 71.2874 81.856C71.5334 81.9548 71.7965 82.0037 72.0615 82H104.062C104.327 82.0037 104.59 81.9548 104.836 81.856C105.082 81.7571 105.305 81.6104 105.494 81.4243C105.683 81.2382 105.833 81.0165 105.935 80.772C106.037 80.5275 106.09 80.2651 106.09 80C106.09 79.7349 106.037 79.4725 105.935 79.228C105.833 78.9835 105.683 78.7618 105.494 78.5757C105.305 78.3896 105.082 78.2429 104.836 78.144C104.59 78.0452 104.327 77.9963 104.062 78H72.0615ZM127.296 79.0469C127.628 80.5689 127.821 82.1327 127.933 83.7188C137.553 88.5527 144.062 97.616 144.062 108C144.062 115.632 140.588 122.775 134.28 128.109C133.726 128.577 133.472 129.311 133.612 130.023L133.671 130.312C134.883 135.59 138.983 139.545 141.917 141.785C141.235 141.913 140.407 142 139.405 142C127.047 142 122.026 136.749 121.37 136.023L121.085 135.754C120.711 135.4 120.216 135.211 119.71 135.211C119.578 135.211 119.447 135.224 119.315 135.25C116.861 135.748 114.42 136 112.062 136C100.156 136 89.7668 130.269 84.2568 121.805C83.5928 121.745 82.9326 121.694 82.2646 121.602C81.7086 122.032 81.0206 122.497 80.2686 122.969C86.3226 133.089 98.2955 140 112.062 140C114.344 140 116.688 139.789 119.046 139.371C121.006 141.267 127.131 146 139.405 146C144.981 146 147.133 143.864 147.507 143.434C147.907 142.978 148.074 142.364 147.968 141.766C147.864 141.17 147.496 140.653 146.964 140.363C146.888 140.321 139.751 136.338 137.815 130.328C144.433 124.314 148.062 116.434 148.062 108C148.062 95.2 139.542 84.1609 127.296 79.0469ZM72.0615 90C71.7965 89.9963 71.5334 90.0452 71.2874 90.144C71.0415 90.2429 70.8177 90.3896 70.6289 90.5757C70.4402 90.7618 70.2903 90.9835 70.188 91.228C70.0857 91.4725 70.033 91.735 70.033 92C70.033 92.265 70.0857 92.5275 70.188 92.772C70.2903 93.0165 70.4402 93.2382 70.6289 93.4243C70.8177 93.6104 71.0415 93.7571 71.2874 93.856C71.5334 93.9548 71.7965 94.0037 72.0615 94H90.0615C90.3265 94.0037 90.5897 93.9548 90.8356 93.856C91.0815 93.7571 91.3054 93.6104 91.4941 93.4243C91.6829 93.2382 91.8327 93.0165 91.935 92.772C92.0373 92.5275 92.09 92.265 92.09 92C92.09 91.735 92.0373 91.4725 91.935 91.228C91.8327 90.9835 91.6829 90.7618 91.4941 90.5757C91.3054 90.3896 91.0815 90.2429 90.8356 90.144C90.5897 90.0452 90.3265 89.9963 90.0615 90H72.0615ZM98.0615 90C97.7965 89.9963 97.5334 90.0452 97.2874 90.144C97.0415 90.2429 96.8177 90.3896 96.6289 90.5757C96.4402 90.7618 96.2903 90.9835 96.188 91.228C96.0857 91.4725 96.033 91.735 96.033 92C96.033 92.265 96.0857 92.5275 96.188 92.772C96.2903 93.0165 96.4402 93.2382 96.6289 93.4243C96.8177 93.6104 97.0415 93.7571 97.2874 93.856C97.5334 93.9548 97.7965 94.0037 98.0615 94H104.062C104.327 94.0037 104.59 93.9548 104.836 93.856C105.082 93.7571 105.305 93.6104 105.494 93.4243C105.683 93.2382 105.833 93.0165 105.935 92.772C106.037 92.5275 106.09 92.265 106.09 92C106.09 91.735 106.037 91.4725 105.935 91.228C105.833 90.9835 105.683 90.7618 105.494 90.5757C105.305 90.3896 105.082 90.2429 104.836 90.144C104.59 90.0452 104.327 89.9963 104.062 90H98.0615Z" fill="url(#paint1_linear)"/>
<defs>
<filter id="filter0_d" x="0.69751" y="0.5" width="199" height="199" filterUnits="userSpaceOnUse" color-interpolation-filters="sRGB">
<feFlood flood-opacity="0" result="BackgroundImageFix"/>
<feColorMatrix in="SourceAlpha" type="matrix" values="0 0 0 0 0 0 0 0 0 0 0 0 0 0 0 0 0 0 127 0"/>
<feMorphology radius="1" operator="dilate" in="SourceAlpha" result="effect1_dropShadow"/>
<feOffset/>
<feGaussianBlur stdDeviation="3"/>
<feColorMatrix type="matrix" values="0 0 0 0 0 0 0 0 0 0 0 0 0 0 0 0 0 0 0.25 0"/>
<feBlend mode="normal" in2="BackgroundImageFix" result="effect1_dropShadow"/>
<feBlend mode="normal" in="SourceGraphic" in2="effect1_dropShadow" result="shape"/>
</filter>
<linearGradient id="paint0_linear" x1="7.59635" y1="104.682" x2="178.752" y2="103.642" gradientUnits="userSpaceOnUse">
<stop stop-color="#44AB96"/>
<stop offset="1" stop-color="#4484AB"/>
</linearGradient>
<linearGradient id="paint1_linear" x1="52.0615" y1="100" x2="148.062" y2="100" gradientUnits="userSpaceOnUse">
<stop stop-color="#44AB96"/>
<stop offset="1" stop-color="#4484AB"/>
</linearGradient>
</defs>
</svg>
