<svg width="44" height="39" viewBox="0 0 44 39" fill="none" xmlns="http://www.w3.org/2000/svg">
<path d="M41.5286 0.0085105C41.3103 0.0318229 41.1049 0.095932 40.9123 0.19501L1.46877 19.5909C0.897405 19.8765 0.569992 20.4476 0.640611 21.0363C0.704809 21.6249 1.1542 22.1203 1.77692 22.2951L12.2541 25.1393C12.4981 26.8993 13.5894 34.5167 13.7949 36.0028C14.0003 37.4832 15.1045 37.7396 16.2087 36.3758C16.9534 35.455 21.3446 29.8484 21.3446 29.8484L30.6919 38.3341C31.1028 38.7071 31.6998 38.8528 32.2584 38.7187C32.8233 38.5847 33.2599 38.1884 33.4139 37.6813L43.2748 1.8735C43.4225 1.40143 43.2941 0.894381 42.9474 0.521383C42.5943 0.148385 42.0679 -0.0439424 41.5286 0.0085105ZM39.1661 4.39124L30.8974 34.4176L21.6014 25.9785L35.1088 8.96046L14.103 22.5749L6.45057 20.5234L39.1661 4.39124Z" fill="#FAFAFA"/>
</svg>
