<svg xmlns="http://www.w3.org/2000/svg" width="132" height="221" viewBox="0 0 132 221">
    <path fill="#4B6EB2" fill-rule="nonzero" d="M129 221a3 3 0 1 1 0-6 3 3 0 0 1 0 6zm-18 0a3 3 0 1 1 0-6 3 3 0 0 1 0 6zm-18 0a3 3 0 1 1 0-6 3 3 0 0 1 0 6zm-18 0a3 3 0 1 1 0-6 3 3 0 0 1 0 6zm-18 0a3 3 0 1 1 0-6 3 3 0 0 1 0 6zm-18 0a3 3 0 1 1 0-6 3 3 0 0 1 0 6zm-18 0a3 3 0 1 1 0-6 3 3 0 0 1 0 6zm-18 0a3 3 0 1 1 0-6 3 3 0 0 1 0 6zm126-18a3 3 0 1 1 0-6 3 3 0 0 1 0 6zm-18 0a3 3 0 1 1 0-6 3 3 0 0 1 0 6zm-18 0a3 3 0 1 1 0-6 3 3 0 0 1 0 6zm-18 0a3 3 0 1 1 0-6 3 3 0 0 1 0 6zm-18 0a3 3 0 1 1 0-6 3 3 0 0 1 0 6zm-18 0a3 3 0 1 1 0-6 3 3 0 0 1 0 6zm-18 0a3 3 0 1 1 0-6 3 3 0 0 1 0 6zm-18 0a3 3 0 1 1 0-6 3 3 0 0 1 0 6zm126-18a3 3 0 1 1 0-6 3 3 0 0 1 0 6zm-18 0a3 3 0 1 1 0-6 3 3 0 0 1 0 6zm-18 0a3 3 0 1 1 0-6 3 3 0 0 1 0 6zm-18 0a3 3 0 1 1 0-6 3 3 0 0 1 0 6zm-18 0a3 3 0 1 1 0-6 3 3 0 0 1 0 6zm-18 0a3 3 0 1 1 0-6 3 3 0 0 1 0 6zm-18 0a3 3 0 1 1 0-6 3 3 0 0 1 0 6zm-18 0a3 3 0 1 1 0-6 3 3 0 0 1 0 6zm126-18a3 3 0 1 1 0-6 3 3 0 0 1 0 6zm-18 0a3 3 0 1 1 0-6 3 3 0 0 1 0 6zm-18 0a3 3 0 1 1 0-6 3 3 0 0 1 0 6zm-18 0a3 3 0 1 1 0-6 3 3 0 0 1 0 6zm-18 0a3 3 0 1 1 0-6 3 3 0 0 1 0 6zm-18 0a3 3 0 1 1 0-6 3 3 0 0 1 0 6zm-18 0a3 3 0 1 1 0-6 3 3 0 0 1 0 6zm-18 0a3 3 0 1 1 0-6 3 3 0 0 1 0 6zm126-18a3 3 0 1 1 0-6 3 3 0 0 1 0 6zm-18 0a3 3 0 1 1 0-6 3 3 0 0 1 0 6zm-18 0a3 3 0 1 1 0-6 3 3 0 0 1 0 6zm-18 0a3 3 0 1 1 0-6 3 3 0 0 1 0 6zm-18 0a3 3 0 1 1 0-6 3 3 0 0 1 0 6zm-18 0a3 3 0 1 1 0-6 3 3 0 0 1 0 6zm-18 0a3 3 0 1 1 0-6 3 3 0 0 1 0 6zm-18 0a3 3 0 1 1 0-6 3 3 0 0 1 0 6zm126-18a3 3 0 1 1 0-6 3 3 0 0 1 0 6zm-18 0a3 3 0 1 1 0-6 3 3 0 0 1 0 6zm-18 0a3 3 0 1 1 0-6 3 3 0 0 1 0 6zm-18 0a3 3 0 1 1 0-6 3 3 0 0 1 0 6zm-18 0a3 3 0 1 1 0-6 3 3 0 0 1 0 6zm-18 0a3 3 0 1 1 0-6 3 3 0 0 1 0 6zm-18 0a3 3 0 1 1 0-6 3 3 0 0 1 0 6zm-18 0a3 3 0 1 1 0-6 3 3 0 0 1 0 6zm126-18a3 3 0 1 1 0-6 3 3 0 0 1 0 6zm-18 0a3 3 0 1 1 0-6 3 3 0 0 1 0 6zm-18 0a3 3 0 1 1 0-6 3 3 0 0 1 0 6zm-18 0a3 3 0 1 1 0-6 3 3 0 0 1 0 6zm-18 0a3 3 0 1 1 0-6 3 3 0 0 1 0 6zm-18 0a3 3 0 1 1 0-6 3 3 0 0 1 0 6zm-18 0a3 3 0 1 1 0-6 3 3 0 0 1 0 6zm-18 0a3 3 0 1 1 0-6 3 3 0 0 1 0 6zm126-18a3 3 0 1 1 0-6 3 3 0 0 1 0 6zm-18 0a3 3 0 1 1 0-6 3 3 0 0 1 0 6zm-18 0a3 3 0 1 1 0-6 3 3 0 0 1 0 6zm-18 0a3 3 0 1 1 0-6 3 3 0 0 1 0 6zm-18 0a3 3 0 1 1 0-6 3 3 0 0 1 0 6zm-18 0a3 3 0 1 1 0-6 3 3 0 0 1 0 6zm-18 0a3 3 0 1 1 0-6 3 3 0 0 1 0 6zM3 95a3 3 0 1 1 0-6 3 3 0 0 1 0 6zm126-18a3 3 0 1 1 0-6 3 3 0 0 1 0 6zm-18 0a3 3 0 1 1 0-6 3 3 0 0 1 0 6zm-18 0a3 3 0 1 1 0-6 3 3 0 0 1 0 6zm-18 0a3 3 0 1 1 0-6 3 3 0 0 1 0 6zm-18 0a3 3 0 1 1 0-6 3 3 0 0 1 0 6zm-18 0a3 3 0 1 1 0-6 3 3 0 0 1 0 6zm-18 0a3 3 0 1 1 0-6 3 3 0 0 1 0 6zM3 77a3 3 0 1 1 0-6 3 3 0 0 1 0 6zm126-18a3 3 0 1 1 0-6 3 3 0 0 1 0 6zm-18 0a3 3 0 1 1 0-6 3 3 0 0 1 0 6zm-18 0a3 3 0 1 1 0-6 3 3 0 0 1 0 6zm-18 0a3 3 0 1 1 0-6 3 3 0 0 1 0 6zm-18 0a3 3 0 1 1 0-6 3 3 0 0 1 0 6zm-18 0a3 3 0 1 1 0-6 3 3 0 0 1 0 6zm-18 0a3 3 0 1 1 0-6 3 3 0 0 1 0 6zM3 59a3 3 0 1 1 0-6 3 3 0 0 1 0 6zm126-18a3 3 0 1 1 0-6 3 3 0 0 1 0 6zm-18 0a3 3 0 1 1 0-6 3 3 0 0 1 0 6zm-18 0a3 3 0 1 1 0-6 3 3 0 0 1 0 6zm-18 0a3 3 0 1 1 0-6 3 3 0 0 1 0 6zm-18 0a3 3 0 1 1 0-6 3 3 0 0 1 0 6zm-18 0a3 3 0 1 1 0-6 3 3 0 0 1 0 6zm-18 0a3 3 0 1 1 0-6 3 3 0 0 1 0 6zM3 41a3 3 0 1 1 0-6 3 3 0 0 1 0 6zm126-18a3 3 0 1 1 0-6 3 3 0 0 1 0 6zm-18 0a3 3 0 1 1 0-6 3 3 0 0 1 0 6zm-18 0a3 3 0 1 1 0-6 3 3 0 0 1 0 6zm-18 0a3 3 0 1 1 0-6 3 3 0 0 1 0 6zm-18 0a3 3 0 1 1 0-6 3 3 0 0 1 0 6zm-18 0a3 3 0 1 1 0-6 3 3 0 0 1 0 6zm-18 0a3 3 0 1 1 0-6 3 3 0 0 1 0 6zM3 23a3 3 0 1 1 0-6 3 3 0 0 1 0 6zM129 5a3 3 0 1 1 0-6 3 3 0 0 1 0 6zm-18 0a3 3 0 1 1 0-6 3 3 0 0 1 0 6zM93 5a3 3 0 1 1 0-6 3 3 0 0 1 0 6zM75 5a3 3 0 1 1 0-6 3 3 0 0 1 0 6zM57 5a3 3 0 1 1 0-6 3 3 0 0 1 0 6zM39 5a3 3 0 1 1 0-6 3 3 0 0 1 0 6zM21 5a3 3 0 1 1 0-6 3 3 0 0 1 0 6zM3 5a3 3 0 1 1 0-6 3 3 0 0 1 0 6zm126-18a3 3 0 1 1 0-6 3 3 0 0 1 0 6zm-18 0a3 3 0 1 1 0-6 3 3 0 0 1 0 6zm-18 0a3 3 0 1 1 0-6 3 3 0 0 1 0 6zm-18 0a3 3 0 1 1 0-6 3 3 0 0 1 0 6zm-18 0a3 3 0 1 1 0-6 3 3 0 0 1 0 6zm-18 0a3 3 0 1 1 0-6 3 3 0 0 1 0 6zm-18 0a3 3 0 1 1 0-6 3 3 0 0 1 0 6zM3-13a3 3 0 1 1 0-6 3 3 0 0 1 0 6zm126-18a3 3 0 1 1 0-6 3 3 0 0 1 0 6zm-18 0a3 3 0 1 1 0-6 3 3 0 0 1 0 6zm-18 0a3 3 0 1 1 0-6 3 3 0 0 1 0 6zm-18 0a3 3 0 1 1 0-6 3 3 0 0 1 0 6zm-18 0a3 3 0 1 1 0-6 3 3 0 0 1 0 6zm-18 0a3 3 0 1 1 0-6 3 3 0 0 1 0 6zm-18 0a3 3 0 1 1 0-6 3 3 0 0 1 0 6zM3-31a3 3 0 1 1 0-6 3 3 0 0 1 0 6zm126-18a3 3 0 1 1 0-6 3 3 0 0 1 0 6zm-18 0a3 3 0 1 1 0-6 3 3 0 0 1 0 6zm-18 0a3 3 0 1 1 0-6 3 3 0 0 1 0 6zm-18 0a3 3 0 1 1 0-6 3 3 0 0 1 0 6zm-18 0a3 3 0 1 1 0-6 3 3 0 0 1 0 6zm-18 0a3 3 0 1 1 0-6 3 3 0 0 1 0 6zm-18 0a3 3 0 1 1 0-6 3 3 0 0 1 0 6zM3-49a3 3 0 1 1 0-6 3 3 0 0 1 0 6z" opacity=".22"/>
</svg>
