<?xml version="1.0" encoding="UTF-8"?>
<svg width="1440px" height="444px" viewBox="0 0 1440 444" version="1.1" xmlns="http://www.w3.org/2000/svg" xmlns:xlink="http://www.w3.org/1999/xlink">
    <!-- Generator: Sketch 51.2 (57519) - http://www.bohemiancoding.com/sketch -->
    <title>hero-bc63908f</title>
    <desc>Created with Sketch.</desc>
    <defs></defs>
    <g id="Page-1" stroke="none" stroke-width="1" fill="none" fill-rule="evenodd" opacity="0.118973214">
        <g id="Sign-up-page-1">
            <g id="hero-bc63908f" transform="translate(-118.000000, -144.000000)">
                <path d="M338.14,35.778 L338.14,0.298 L338.14,35.778 Z M338.14,0.297 L338.14,35.777 L368.88,53.517 L399.617,35.777 L399.617,0.297 L338.14,0.297 Z M399.617,0.297 L399.617,35.777 L430.357,53.517 L461.094,35.777 L461.094,0.297 L399.617,0.297 Z M461.094,0.297 L461.094,35.777 L461.094,0.297 Z M338.14,142.47 L338.14,106.99 L338.14,142.47 Z M338.14,106.987 L368.88,89.247 L368.88,53.767 L338.14,36.025 L338.14,106.987 Z M399.617,142.47 L399.617,106.99 L368.88,89.25 L338.141,106.99 L338.141,142.47 L368.881,160.21 L399.617,142.47 Z" id="Shape" stroke="#C5C9E0" opacity="0.5"></path>
                <path d="M430.356,89.247 L430.356,53.767 L399.616,36.027 L368.879,53.767 L368.879,89.247 L399.616,106.987 L430.356,89.247 Z M461.094,142.47 L461.094,106.99 L430.354,89.25 L399.617,106.99 L399.617,142.47 L430.355,160.21 L461.094,142.47 Z" id="Shape" stroke="#C5C9E0" opacity="0.5"></path>
                <path d="M461.094,36.026 L430.354,53.766 L430.354,89.246 L461.094,106.987 L491.832,89.246 L461.094,36.026 Z M522.571,142.47 L522.571,106.99 L491.831,89.25 L461.094,106.99 L461.094,142.47 L491.832,160.21 L522.571,142.47 Z M491.833,89.247 L522.572,106.987 L553.31,89.247 L491.833,89.247 Z M584.048,142.47 L584.048,106.99 L553.308,89.25 L522.571,106.99 L522.571,142.47 L553.309,160.21 L584.048,142.47 Z M553.31,89.247 L584.049,106.987 L614.787,89.247 L614.787,53.767 L553.31,89.247 Z" id="Shape" stroke="#C5C9E0" opacity="0.5"></path>
                <path d="M645.525,142.47 L645.525,106.99 L614.787,89.25 L584.047,106.99 L584.047,142.47 L614.787,160.21 L645.525,142.47 Z M676.264,89.247 L676.264,53.767 L645.524,36.027 L614.786,53.767 L614.786,89.247 L645.524,106.987 L676.264,89.247 Z" id="Shape" stroke="#C5C9E0" opacity="0.5"></path>
                <path d="M707.002,142.47 L707.002,106.99 L676.264,89.25 L645.524,106.99 L645.524,142.47 L676.264,160.21 L707.002,142.47 Z M737.74,89.247 L737.74,53.767 L707.001,36.027 L676.263,53.767 L676.263,89.247 L707.001,106.987 L737.74,89.247 Z" id="Shape" stroke="#C5C9E0" opacity="0.5"></path>
                <path d="M737.74,89.25 L707.001,106.99 L707.001,142.47 L737.741,160.211 M737.74,53.766 L737.74,89.246 M153.71,213.682 L153.71,249.162 L184.447,266.902 L215.187,249.162 M215.187,249.163 L245.924,266.903 L276.664,249.163 M368.879,160.458 L338.139,142.718 M430.356,160.458 L399.616,142.718 L368.879,160.458" id="Shape" stroke="#C5C9E0" opacity="0.5"></path>
                <polyline id="Shape" stroke="#C5C9E0" opacity="0.5" points="491.833 160.458 461.095 142.718 430.355 160.458"></polyline>
                <path d="M553.31,160.458 L522.572,142.718 L491.832,160.458 M614.787,195.94 L614.787,160.46 L584.047,142.717 L553.31,160.459 M614.787,266.903 L645.524,249.163 L645.524,213.683 L614.787,195.941" id="Shape" stroke="#C5C9E0" opacity="0.5"></path>
                <path d="M676.264,195.94 L676.264,160.46 L645.524,142.717 L614.786,160.459 L614.786,195.939 L645.524,213.679 L676.264,195.939 L676.264,195.94 Z" id="Shape" stroke="#C5C9E0" opacity="0.5" stroke-dasharray="10"></path>
                <path d="M707.002,249.163 L707.002,213.683 L676.264,195.941 L645.524,213.683 L645.524,249.163 L676.264,266.903 L707.002,249.163 Z M737.74,195.94 L737.74,160.46 L707.001,142.717 L676.263,160.459 L676.263,195.939 L707.001,213.679 L737.74,195.94 Z M768.479,249.163 L768.479,213.683 L737.739,195.941 L707.002,213.683 L707.002,249.163 L737.74,266.903 L768.479,249.163 Z" id="Shape" stroke="#C5C9E0" opacity="0.5"></path>
                <path d="M737.74,160.458 L737.74,195.938 L768.48,213.678 L799.217,195.938 L737.74,160.458 Z M829.956,249.163 L829.956,213.683 L799.216,195.941 L768.479,213.683 L768.479,249.163 L799.217,266.903 L829.956,249.163 Z M799.217,195.94 L829.957,213.68 L860.694,195.94 L799.217,195.94 Z" id="Shape" stroke="#C5C9E0" opacity="0.5"></path>
                <path d="M860.694,195.942 L829.956,213.682 L829.956,249.164 L860.694,195.942 Z M184.448,302.632 L184.448,267.152 L153.71,249.412 L122.97,267.152 L122.97,302.632 L153.71,320.372 L184.448,302.632 Z M215.187,355.856 L215.187,320.376 L184.447,302.636 L153.709,320.376 L153.709,355.856 L184.447,373.596 L215.187,355.856 Z" id="Shape" stroke="#C5C9E0" opacity="0.5"></path>
                <polygon id="Shape" stroke="#C5C9E0" opacity="0.5" points="245.925 302.632 245.925 267.152 215.187 249.412 184.447 267.152 184.447 302.632 215.187 320.372"></polygon>
                <path d="M276.664,355.856 L276.664,320.376 L245.924,302.636 L215.186,320.376 L215.186,355.856 L245.924,373.596 L276.664,355.856 Z" id="Shape" stroke="#C5C9E0" opacity="0.5" stroke-dasharray="10"></path>
                <path d="M276.664,249.41 L245.924,267.15 L245.924,302.63 L276.664,320.373 L276.664,249.41 Z M276.664,320.375 L276.664,355.855 L276.664,320.375 Z M737.74,302.632 L737.74,267.152 L707.001,249.412 L676.263,267.152 L676.263,302.632 L707.001,320.372 L737.74,302.632 Z M768.479,355.856 L768.479,320.376 L737.739,302.636 L707.002,320.376 L707.002,355.856 L737.74,373.596 L768.479,355.856 Z M799.217,302.632 L799.217,267.152 L768.479,249.412 L737.74,267.152 L737.74,302.632 L768.48,320.372 L799.217,302.632 Z" id="Shape" stroke="#C5C9E0" opacity="0.5"></path>
                <path d="M799.217,302.635 L768.479,320.375 L768.479,355.855 L799.217,373.597 L799.217,302.635 Z M829.956,249.41 L799.216,267.15 L799.216,302.63 L829.956,249.41 Z M184.448,409.324 L184.448,373.844 L153.71,356.104 L122.97,373.844 L122.97,409.324 L153.71,427.064 L184.448,409.324 Z M215.187,462.548 L215.187,427.068 L184.447,409.328 L153.709,427.068 L153.709,462.548 L184.447,480.288 L215.187,462.548 Z" id="Shape" stroke="#C5C9E0" opacity="0.5"></path>
                <path d="M245.925,409.324 L245.925,373.844 L215.187,356.104 L184.447,373.844 L184.447,409.324 L215.187,427.064 L245.925,409.324 Z M276.664,462.548 L276.664,427.068 L245.924,409.328 L215.186,427.068 L215.186,462.548 L245.924,480.288 L276.664,462.548 Z" id="Shape" stroke="#C5C9E0" opacity="0.5"></path>
                <path d="M276.664,356.103 L245.924,373.843 L245.924,409.323 L276.664,427.065 L307.403,409.324 L276.664,356.103 Z M338.14,462.548 L338.14,427.068 L307.403,409.328 L276.663,427.068 L276.663,462.548 L307.403,480.288 L338.14,462.548 Z" id="Shape" stroke="#C5C9E0" opacity="0.5"></path>
                <path d="M307.402,409.324 L338.14,427.064 L368.88,409.324 L307.402,409.324 Z M399.617,462.548 L399.617,427.068 L368.879,409.328 L338.14,427.068 L338.14,462.548 L368.88,480.288 L399.617,462.548 Z" id="Shape" stroke="#C5C9E0" opacity="0.5"></path>
                <path d="M368.879,409.324 L399.617,427.064 L430.357,409.324 L368.879,409.324 Z M461.094,462.548 L461.094,427.068 L430.354,409.328 L399.617,427.068 L399.617,462.548 L430.355,480.288 L461.094,462.548 Z" id="Shape" stroke="#C5C9E0" opacity="0.5"></path>
                <path d="M430.356,409.324 L461.096,427.064 L491.833,409.324 L430.356,409.324 Z M522.571,462.548 L522.571,427.068 L491.831,409.328 L461.094,427.068 L461.094,462.548 L491.832,480.288 L522.571,462.548 Z M491.833,409.324 L522.572,427.064 L553.31,409.324 L491.833,409.324 Z" id="Shape" stroke="#C5C9E0" opacity="0.5"></path>
                <path d="M584.048,462.548 L584.048,427.068 L553.308,409.328 L522.571,427.068 L522.571,462.548 L553.309,480.288 L584.048,462.548 Z M553.31,409.324 L584.049,427.064 L614.787,409.324 L614.787,373.844 L553.31,409.324 Z" id="Shape" stroke="#C5C9E0" opacity="0.5"></path>
                <path d="M645.525,462.548 L645.525,427.068 L614.787,409.328 L584.047,427.068 L584.047,462.548 L614.787,480.288 L645.525,462.548 Z M676.264,409.324 L676.264,373.844 L645.524,356.104 L614.786,373.844 L614.786,409.324 L645.524,427.064 L676.264,409.324 Z" id="Shape" stroke="#C5C9E0" opacity="0.5"></path>
                <path d="M707.002,462.548 L707.002,427.068 L676.264,409.328 L645.524,427.068 L645.524,462.548 L676.264,480.288 L707.002,462.548 Z M737.74,409.324 L737.74,373.844 L707.001,356.104 L676.263,373.844 L676.263,409.324 L707.001,427.064 L737.74,409.324 Z M768.479,462.548 L768.479,427.068 L737.739,409.328 L707.002,427.068 L707.002,462.548 L737.74,480.288 L768.479,462.548 Z M799.217,409.324 L799.217,373.844 L768.479,356.104 L737.74,373.844 L737.74,409.324 L768.48,427.064 L799.217,409.324 Z M829.956,462.548 L829.956,427.068 L799.216,409.328 L768.479,427.068 L768.479,462.548 L799.217,480.288 L829.956,462.548 Z M799.217,373.844 L799.217,409.324 L829.957,427.064 L860.694,409.324 L799.217,373.844 Z M891.433,462.548 L891.433,427.068 L860.693,409.328 L829.956,427.068 L829.956,462.548 L860.693,480.288 L891.433,462.548 Z M860.694,409.324 L891.434,427.064 L922.171,409.324 L860.694,409.324 Z M184.448,516.017 L184.448,480.537 L153.71,462.797 L122.97,480.537 L122.97,516.017 L153.71,533.757 L184.448,516.017 Z M215.187,569.241 L215.187,533.761 L184.447,516.02 L153.709,533.76 L153.709,569.24 L184.447,586.98 L215.187,569.241 Z" id="Shape" stroke="#C5C9E0" opacity="0.5"></path>
                <path d="M245.925,516.017 L245.925,480.537 L215.187,462.797 L184.447,480.537 L184.447,516.017 L215.187,533.757 L245.925,516.017 Z M276.664,533.76 L245.924,516.02 L215.186,533.76 L215.186,569.24 L276.664,533.76 Z M307.402,516.017 L307.402,480.537 L276.662,462.797 L245.925,480.537 L245.925,516.017 L276.663,533.757 L307.402,516.017 Z" id="Shape" stroke="#C5C9E0" opacity="0.5"></path>
                <path d="M338.14,533.76 L307.403,516.02 L276.663,533.76 L338.14,533.76 Z M368.879,516.017 L368.879,480.537 L338.139,462.797 L307.402,480.537 L307.402,516.017 L338.14,533.757 L368.879,516.017 Z M368.879,516.02 L338.139,533.76 L368.879,516.02 Z M430.356,480.536 L399.616,462.796 L368.879,480.536 L368.879,516.016 L430.356,480.536 Z" id="Shape" stroke="#C5C9E0" opacity="0.5"></path>
                <path d="M491.833,480.536 L461.095,462.796 L430.355,480.536 M553.31,516.017 L553.31,480.537 L522.572,462.797 L491.832,480.537 M584.048,569.241 L584.048,533.761 L553.308,516.021" id="Shape" stroke="#C5C9E0" opacity="0.5"></path>
                <polygon id="Shape" stroke="#C5C9E0" opacity="0.5" points="614.787 516.017 614.787 480.537 584.047 462.797 553.31 480.537 553.31 516.017 584.047 533.757"></polygon>
                <path d="M676.264,516.017 L676.264,480.537 L645.524,462.797 L614.786,480.537 L614.786,516.017 L645.524,533.757 L676.264,516.017 Z M676.264,516.02 L645.524,533.76 L676.264,516.02 Z" id="Shape" stroke="#C5C9E0" opacity="0.5"></path>
                <path d="M737.74,480.536 L707.001,462.796 L676.263,480.536 L676.263,516.016 M799.217,480.536 L768.479,462.796 L737.74,480.536" id="Shape" stroke="#C5C9E0" opacity="0.5"></path>
                <path d="M860.694,480.536 L829.956,462.796 L799.216,480.536 L860.694,480.536 Z M922.171,480.536 L891.431,462.796 L860.694,480.536 L922.171,480.536 Z M338.14,0.297 L368.88,18.037 L399.617,0.297 L338.14,0.297 Z M399.617,0.297 L430.357,18.037 L461.094,0.297 L399.617,0.297 Z M430.356,53.766 L430.356,18.286 L399.616,0.546 L368.879,18.286 L368.879,53.766 L399.616,71.506 L430.356,53.766 Z M461.094,106.99 L461.094,71.51 L430.354,53.77 L399.617,71.51 L399.617,106.99 L430.355,124.73 L461.094,106.99 Z" id="Shape" stroke="#C5C9E0" opacity="0.5"></path>
                <path d="M737.74,53.769 L707.001,71.509 L707.001,106.989 L737.741,124.731 M153.71,178.202 L153.71,213.682 L184.447,231.422 M338.14,178.199 L368.88,160.459 L368.88,124.979 L338.14,107.237 M399.617,178.202 L368.879,160.462 L338.14,178.202" id="Shape" stroke="#C5C9E0" opacity="0.5"></path>
                <path d="M430.356,160.458 L430.356,124.978 L399.616,107.238 L368.879,124.978 L368.879,160.458 L399.616,178.198 L430.356,160.458 Z M461.094,178.202 L430.354,160.462 L399.617,178.202 L461.094,178.202 Z" id="Shape" stroke="#C5C9E0" opacity="0.5"></path>
                <path d="M491.833,160.458 L491.833,124.978 L461.095,107.238 L430.355,124.978 L430.355,160.458 L461.095,178.198 L491.833,160.458 Z M522.571,178.202 L491.831,160.462 L461.094,178.202 L522.571,178.202 Z" id="Shape" stroke="#C5C9E0" opacity="0.5"></path>
                <path d="M553.31,160.458 L553.31,124.978 L522.572,107.238 L491.832,124.978 L491.832,160.458 L522.572,178.198 L553.31,160.458 Z M584.048,178.202 L553.308,160.462 L522.571,178.202 L584.048,178.202 Z" id="Shape" stroke="#C5C9E0" opacity="0.5"></path>
                <path d="M614.787,160.458 L614.787,124.978 L584.047,107.238 L553.31,124.978 L553.31,160.458 L584.047,178.198 L614.787,160.458 Z M614.787,231.423 L645.524,213.683 L645.524,178.203 L614.787,160.461 L584.047,178.203 L614.787,231.423 Z" id="Shape" stroke="#C5C9E0" opacity="0.5"></path>
                <path d="M676.264,160.458 L676.264,124.978 L645.524,107.238 L614.786,124.978 L614.786,160.458 L645.524,178.198 L676.264,160.458 Z M707.002,213.682 L707.002,178.202 L676.264,160.462 L645.524,178.202 L645.524,213.682 L676.264,231.422 L707.002,213.682 Z" id="Shape" stroke="#C5C9E0" opacity="0.5"></path>
                <path d="M737.74,160.458 L737.74,124.978 L707.001,107.238 L676.263,124.978 L676.263,160.458 L707.001,178.198 L737.74,160.458 Z M768.479,213.682 L768.479,178.202 L737.739,160.462 L707.002,178.202 L707.002,213.682 L737.74,231.422 L768.479,213.682 Z M737.74,124.978 L737.74,160.458 L768.48,178.198 L737.74,124.978 Z M768.479,178.202 L768.479,213.682 L799.217,231.422 L829.957,213.682 L768.479,178.202 Z M829.956,213.682 L860.694,231.422 L829.956,213.682 Z M184.448,267.151 L184.448,231.671 L153.71,213.929 L122.97,231.671 L122.97,267.151 L153.71,284.891 L184.448,267.151 Z M215.187,320.375 L215.187,284.895 L184.447,267.155 L153.709,284.895 L153.709,320.375 L184.447,338.115 L215.187,320.375 Z" id="Shape" stroke="#C5C9E0" opacity="0.5"></path>
                <path d="M184.448,231.67 L184.448,267.15 L215.188,284.89 L245.925,267.15 L245.925,231.67 L184.448,231.67 Z M614.787,267.151 L614.787,231.671 L614.787,267.151 Z M676.264,267.151 L676.264,231.671 L645.524,213.929 L614.786,231.671 L614.786,267.151 L645.524,284.891 L676.264,267.151 Z" id="Shape" stroke="#C5C9E0" opacity="0.5"></path>
                <path d="M737.74,267.151 L737.74,231.671 L707.001,213.929 L676.263,231.671 L676.263,267.151 L707.001,284.891 L737.74,267.151 Z M768.479,320.375 L768.479,284.895 L737.739,267.155 L707.002,284.895 L707.002,320.375 L737.74,338.115 L768.479,320.375 Z M799.217,267.151 L799.217,231.671 L768.479,213.929 L737.74,231.671 L737.74,267.151 L768.48,284.891 L799.217,267.151 Z" id="Shape" stroke="#C5C9E0" opacity="0.5"></path>
                <path d="M799.217,267.154 L768.479,284.894 L768.479,320.374 L799.217,338.116 L799.217,267.154 Z M860.694,231.67 L829.956,213.93 L799.216,231.67 L799.216,267.15 L860.694,231.67 Z M184.448,373.844 L184.448,338.364 L153.71,320.624 L122.97,338.364 L122.97,373.844 L153.71,391.584 L184.448,373.844 Z M215.187,427.068 L215.187,391.588 L184.447,373.848 L153.709,391.588 L153.709,427.068 L184.447,444.808 L215.187,427.068 Z" id="Shape" stroke="#C5C9E0" opacity="0.5"></path>
                <path d="M245.925,373.844 L245.925,338.364 L215.187,320.624 L184.447,338.364 L184.447,373.844 L215.187,391.584 L245.925,373.844 Z M276.664,427.068 L276.664,391.588 L245.924,373.848 L215.186,391.588 L215.186,427.068 L245.924,444.808 L276.664,427.068 Z" id="Shape" stroke="#C5C9E0" opacity="0.5"></path>
                <path d="M276.664,320.623 L245.924,338.363 L245.924,373.843 L276.664,391.585 M276.664,391.587 L276.664,427.067 L307.403,444.809 L338.141,427.067 L338.141,391.587" id="Shape" stroke="#C5C9E0" opacity="0.5"></path>
                <path d="M338.14,391.587 L338.14,427.067 L368.88,444.809 L399.617,427.067 L399.617,391.587 L338.14,391.587 Z M461.094,391.587 L461.094,427.067 L491.832,444.809 L522.572,427.067 L522.572,391.587 L461.094,391.587 Z M584.048,391.584 L614.788,373.844 L614.788,338.364 L584.048,391.584 Z M645.525,427.068 L645.525,391.588 L614.787,373.848 L584.047,391.588 L584.047,427.068 L614.787,444.808 L645.525,427.068 Z" id="Shape" stroke="#C5C9E0" opacity="0.5"></path>
                <path d="M707.002,427.068 L707.002,391.588 L676.264,373.848 L645.524,391.588 L645.524,427.068 L676.264,444.808 L707.002,427.068 Z M737.74,373.844 L737.74,338.364 L707.001,320.624 L676.263,338.364 L676.263,373.844 L707.001,391.584 L737.74,373.844 Z M768.479,427.068 L768.479,391.588 L737.739,373.848 L707.002,391.588 L707.002,427.068 L737.74,444.808 L768.479,427.068 Z M799.217,373.844 L799.217,338.364 L768.479,320.624 L737.74,338.364 L737.74,373.844 L768.48,391.584 L799.217,373.844 Z" id="Shape" stroke="#C5C9E0" opacity="0.5"></path>
                <path d="M799.217,373.847 L768.479,391.587 L768.479,427.067 L799.217,444.809 L829.957,427.067 L799.217,373.847 Z M799.217,338.363 L799.217,373.843 L799.217,338.363 Z M829.956,427.068 L860.694,444.808 L891.433,427.068 L829.956,427.068 Z M184.448,480.536 L184.448,445.056 L153.71,427.316 L122.97,445.056 L122.97,480.536 L153.71,498.276 L184.448,480.536 Z M215.187,533.76 L215.187,498.28 L184.447,480.54 L153.709,498.28 L153.709,533.76 L184.447,551.5 L215.187,533.76 Z" id="Shape" stroke="#C5C9E0" opacity="0.5"></path>
                <path d="M245.925,480.536 L245.925,445.056 L215.187,427.316 L184.447,445.056 L184.447,480.536 L215.187,498.276 L245.925,480.536 Z M276.664,533.76 L276.664,498.28 L245.924,480.54 L215.186,498.28 L215.186,533.76 L276.664,533.76 Z M307.402,480.536 L307.402,445.056 L276.662,427.316 L245.925,445.056 L245.925,480.536 L276.663,498.276 L307.402,480.536 Z" id="Shape" stroke="#C5C9E0" opacity="0.5"></path>
                <path d="M338.14,533.76 L338.14,498.28 L307.403,480.54 L276.663,498.28 L276.663,533.76 L307.403,551.5 L338.14,533.76 Z M368.879,480.536 L368.879,445.056 L338.139,427.316 L307.402,445.056 L307.402,480.536 L338.14,498.276 L368.879,480.536 Z M399.617,498.28 L368.879,480.54 L338.14,498.28 L338.14,533.76 L368.88,551.5 L399.617,498.28 Z M430.356,480.536 L430.356,445.056 L399.616,427.316 L368.879,445.056 L368.879,480.536 L399.616,498.276 L430.356,480.536 Z M461.094,498.28 L430.354,480.54 L399.617,498.28 L461.094,498.28 Z" id="Shape" stroke="#C5C9E0" opacity="0.5"></path>
                <path d="M491.833,480.536 L491.833,445.056 L461.095,427.316 L430.355,445.056 L430.355,480.536 L461.095,498.276 L491.833,480.536 Z M522.571,498.28 L491.831,480.54 L461.094,498.28 L522.571,498.28 Z" id="Shape" stroke="#C5C9E0" opacity="0.5"></path>
                <polygon id="Shape" stroke="#C5C9E0" opacity="0.5" points="553.31 480.536 553.31 445.056 522.572 427.316 491.832 445.056 491.832 480.536 522.572 498.276"></polygon>
                <path d="M614.787,480.536 L614.787,445.056 L584.047,427.316 L553.31,445.056 L553.31,480.536 L584.047,498.276 L614.787,480.536 Z M645.525,533.76 L645.525,498.28 L614.787,480.54 L584.047,498.28 L584.047,533.76 L614.787,551.5 L645.525,533.76 Z" id="Shape" stroke="#C5C9E0" opacity="0.5"></path>
                <path d="M676.264,480.536 L676.264,445.056 L645.524,427.316 L614.786,445.056 L614.786,480.536 L645.524,498.276 L676.264,480.536 Z M676.264,480.54 L645.524,498.28 L645.524,533.76 L676.264,551.501 L676.264,480.54 Z" id="Shape" stroke="#C5C9E0" opacity="0.5"></path>
                <path d="M737.74,480.536 L737.74,445.056 L707.001,427.316 L676.263,445.056 L676.263,480.536 M799.217,480.536 L799.217,445.056 L768.479,427.316 L737.74,445.056 L737.74,480.536" id="Shape" stroke="#C5C9E0" opacity="0.5"></path>
                <path d="M860.694,480.536 L860.694,445.056 L829.956,427.316 L799.216,445.056 L799.216,480.536 L860.694,480.536 Z M922.171,480.536 L922.171,445.056 L891.431,427.316 L860.694,445.056 L860.694,480.536 L922.171,480.536 Z M1598.417,53.518 L1629.155,35.778 L1629.155,0.298 L1598.417,53.518 Z M1629.155,0.297 L1629.155,35.777 L1659.895,53.517 L1690.633,35.777 L1690.633,0.297 L1629.155,0.297 Z M1690.633,0.297 L1690.633,35.777 L1721.37,53.517 L1690.633,0.297 Z M1137.34,106.99 L1137.34,142.47 L1137.34,106.99 Z M1444.725,142.47 L1444.725,106.99 L1413.985,89.25 L1383.248,106.99 L1383.248,142.47 L1413.986,160.21 L1444.725,142.47 Z M1506.202,142.47 L1506.202,106.99 L1475.462,89.25 L1444.725,106.99 L1444.725,142.47 L1475.463,160.21 L1506.202,142.47 Z M1475.463,89.247 L1506.203,106.987 L1536.94,89.247 L1475.463,89.247 Z" id="Shape" stroke="#C5C9E0" opacity="0.5"></path>
                <path d="M1567.679,142.47 L1567.679,106.99 L1536.941,89.25 L1506.201,106.99 L1506.201,142.47 L1536.941,160.21 L1567.679,142.47 Z M1536.94,89.247 L1567.678,106.987 L1598.418,89.247 L1598.418,53.767 L1536.94,89.247 Z" id="Shape" stroke="#C5C9E0" opacity="0.5"></path>
                <path d="M1721.371,89.247 L1721.371,53.767 L1690.633,36.027 L1659.893,53.767 L1659.893,89.247 L1690.633,106.987 L1721.371,89.247 Z M1721.371,89.25 L1690.633,106.99 L1690.633,142.47 L1721.371,160.211 L1721.371,89.25 Z M1721.371,53.766 L1721.371,89.246 L1721.371,53.766 Z M1075.864,249.163 L1075.864,213.683 L1045.124,195.941 L1014.386,213.683 L1014.386,249.163 L1045.124,266.903 L1075.864,249.163 Z M1106.602,195.94 L1106.602,160.46 L1075.864,142.717 L1045.124,160.459 L1045.124,195.939 L1075.864,213.679 L1106.602,195.94 Z" id="Shape" stroke="#C5C9E0" opacity="0.5"></path>
                <path d="M1137.34,249.163 L1137.34,213.683 L1106.601,195.941 L1075.863,213.683 L1075.863,249.163 L1106.601,266.903 L1137.34,249.163 Z M1137.34,142.718 L1106.601,160.458 L1106.601,195.94 L1137.341,213.68 L1137.34,142.718 Z M1137.34,213.682 L1137.34,249.162 L1168.078,266.902 L1198.818,249.162 L1137.34,213.682 Z M1198.817,249.163 L1229.557,266.903 L1260.294,249.163 L1198.817,249.163 Z M1475.463,160.458 L1444.725,142.718 L1413.986,160.458 L1475.463,160.458 Z M1536.94,160.458 L1506.201,142.718 L1475.463,160.458 L1536.94,160.458 Z M1598.417,195.94 L1598.417,160.46 L1567.677,142.717 L1536.94,160.459 L1598.417,195.94 Z M1598.417,266.903 L1629.155,249.163 L1629.155,213.683 L1598.417,195.941 L1598.417,266.903 Z" id="Shape" stroke="#C5C9E0" opacity="0.5"></path>
                <path d="M1721.371,160.458 L1721.371,195.938 L1752.111,213.678 L1782.848,195.938 L1721.371,160.458 Z M1813.586,249.163 L1813.586,213.683 L1782.847,195.941 L1752.109,213.683 L1752.109,249.163 L1782.847,266.903 L1813.586,249.163 Z M1782.848,195.94 L1813.588,213.68 L1844.325,195.94 L1782.848,195.94 Z M1014.386,355.856 L1014.386,320.376 L1014.386,355.856 Z M1075.864,355.856 L1075.864,320.376 L1045.124,302.636 L1014.386,320.376 L1014.386,355.856 L1045.124,373.596 L1075.864,355.856 Z M1106.602,302.632 L1106.602,267.152 L1075.864,249.412 L1045.124,267.152 L1045.124,302.632 L1075.864,320.372 L1106.602,302.632 Z" id="Shape" stroke="#C5C9E0" opacity="0.5"></path>
                <path d="M1137.34,355.856 L1137.34,320.376 L1106.601,302.636 L1075.863,320.376 L1075.863,355.856 L1106.601,373.596 L1137.34,355.856 Z M1168.079,302.632 L1168.079,267.152 L1137.341,249.412 L1106.601,267.152 L1106.601,302.632 L1137.341,320.372 L1168.079,302.632 Z" id="Shape" stroke="#C5C9E0" opacity="0.5"></path>
                <path d="M1198.817,355.856 L1198.817,320.376 L1168.078,302.636 L1137.34,320.376 L1137.34,355.856 L1168.078,373.596 L1198.817,355.856 Z M1229.556,302.632 L1229.556,267.152 L1198.816,249.412 L1168.079,267.152 L1168.079,302.632 L1198.817,320.372 L1229.556,302.632 Z" id="Shape" stroke="#C5C9E0" opacity="0.5"></path>
                <path d="M1260.294,355.856 L1260.294,320.376 L1229.556,302.636 L1198.817,320.376 L1198.817,355.856 L1229.557,373.596 L1260.294,355.856 Z" id="Shape" stroke="#C5C9E0" opacity="0.5" stroke-dasharray="10"></path>
                <path d="M1260.294,249.41 L1229.556,267.15 L1229.556,302.63 L1260.294,320.373 L1260.294,249.41 Z M1260.294,320.375 L1260.294,355.855 L1260.294,320.375 Z M1721.371,302.632 L1721.371,267.152 L1690.633,249.412 L1659.893,267.152 L1659.893,302.632 L1690.633,320.372 L1721.371,302.632 Z M1752.11,355.856 L1752.11,320.376 L1721.37,302.636 L1690.632,320.376 L1690.632,355.856 L1721.37,373.596 L1752.11,355.856 Z" id="Shape" stroke="#C5C9E0" opacity="0.5"></path>
                <path d="M1813.586,249.41 L1782.847,267.15 L1782.847,302.63 M891.433,427.065 L922.173,409.325 L922.173,373.845 M952.91,427.068 L922.172,409.328 L891.432,427.068" id="Shape" stroke="#C5C9E0" opacity="0.5"></path>
                <path d="M922.171,373.844 L922.171,409.324 L952.909,427.064 L983.649,409.324 L983.649,373.844 M1014.386,427.068 L983.649,409.328 L952.909,427.068" id="Shape" stroke="#C5C9E0" opacity="0.5"></path>
                <path d="M983.648,373.844 L983.648,409.324 L1014.386,427.064 L1045.126,409.324 L1045.126,373.844 L1014.386,356.104" id="Shape" stroke="#C5C9E0" opacity="0.5" stroke-dasharray="10"></path>
                <path d="M1075.864,462.548 L1075.864,427.068 L1045.124,409.328 L1014.386,427.068 L1075.864,462.548 Z M1106.602,409.324 L1106.602,373.844 L1075.864,356.104 L1045.124,373.844 L1045.124,409.324 L1075.864,427.064 L1106.602,409.324 Z" id="Shape" stroke="#C5C9E0" opacity="0.5"></path>
                <path d="M1137.34,462.548 L1137.34,427.068 L1106.601,409.328 L1075.863,427.068 L1075.863,462.548 L1106.601,480.288 L1137.34,462.548 Z M1168.079,409.324 L1168.079,373.844 L1137.341,356.104 L1106.601,373.844 L1106.601,409.324 L1137.341,427.064 L1168.079,409.324 Z" id="Shape" stroke="#C5C9E0" opacity="0.5"></path>
                <path d="M1198.817,462.548 L1198.817,427.068 L1168.078,409.328 L1137.34,427.068 L1137.34,462.548 L1168.078,480.288 L1198.817,462.548 Z M1229.556,409.324 L1229.556,373.844 L1198.816,356.104 L1168.079,373.844 L1168.079,409.324 L1198.817,427.064 L1229.556,409.324 Z M1260.294,462.548 L1260.294,427.068 L1229.556,409.328 L1198.817,427.068 L1198.817,462.548 L1229.557,480.288 L1260.294,462.548 Z" id="Shape" stroke="#C5C9E0" opacity="0.5"></path>
                <path d="M1260.294,356.103 L1229.556,373.843 L1229.556,409.323 L1260.294,427.065 L1291.034,409.324 L1260.294,356.103 Z M1321.771,462.548 L1321.771,427.068 L1291.033,409.328 L1260.293,427.068 L1260.293,462.548 L1291.033,480.288 L1321.771,462.548 Z" id="Shape" stroke="#C5C9E0" opacity="0.5"></path>
                <path d="M1291.033,409.324 L1321.77,427.064 L1352.51,409.324 L1291.033,409.324 Z M1383.248,462.548 L1383.248,427.068 L1352.508,409.328 L1321.771,427.068 L1321.771,462.548 L1352.509,480.288 L1383.248,462.548 Z M1352.51,409.324 L1383.249,427.064 L1413.987,409.324 L1352.51,409.324 Z" id="Shape" stroke="#C5C9E0" opacity="0.5"></path>
                <path d="M1444.725,462.548 L1444.725,427.068 L1413.985,409.328 L1383.248,427.068 L1383.248,462.548 L1413.986,480.288 L1444.725,462.548 Z M1413.986,409.324 L1444.726,427.064 L1475.464,409.324 L1413.986,409.324 Z M1506.202,462.548 L1506.202,427.068 L1475.462,409.328 L1444.725,427.068 L1444.725,462.548 L1475.463,480.288 L1506.202,462.548 Z" id="Shape" stroke="#C5C9E0" opacity="0.5"></path>
                <path d="M1475.463,409.324 L1506.203,427.064 L1536.94,409.324 L1475.463,409.324 Z M1567.679,462.548 L1567.679,427.068 L1536.941,409.328 L1506.201,427.068 L1506.201,462.548 L1536.941,480.288 L1567.679,462.548 Z M1536.94,409.324 L1567.678,427.064 L1598.418,409.324 L1598.418,373.844 L1536.94,409.324 Z" id="Shape" stroke="#C5C9E0" opacity="0.5"></path>
                <path d="M1782.848,409.324 L1782.848,373.844 L1752.11,356.104 L1721.37,373.844 L1721.37,409.324 L1752.11,427.064 L1782.848,409.324 Z M1813.586,462.548 L1813.586,427.068 L1782.847,409.328 L1752.109,427.068 L1752.109,462.548 L1782.847,480.288 L1813.586,462.548 Z M1782.848,373.844 L1782.848,409.324 L1813.588,427.064 L1844.325,409.324 L1782.848,373.844 Z M1106.602,516.017 L1106.602,480.537 L1075.864,462.797 L1106.602,516.017 Z M1137.34,569.241 L1137.34,533.761 L1106.601,516.021 L1137.34,569.241 Z" id="Shape" stroke="#C5C9E0" opacity="0.5"></path>
                <path d="M1168.079,516.017 L1168.079,480.537 L1137.341,462.797 L1106.601,480.537 L1106.601,516.017 L1137.341,533.757 L1168.079,516.017 Z M1198.817,569.241 L1198.817,533.761 L1168.078,516.021 L1137.34,533.761 L1137.34,569.241 L1168.078,586.981 L1198.817,569.241 Z M1229.556,516.017 L1229.556,480.537 L1198.816,462.797 L1168.079,480.537 L1168.079,516.017 L1198.817,533.757 L1229.556,516.017 Z" id="Shape" stroke="#C5C9E0" opacity="0.5"></path>
                <path d="M1260.294,533.76 L1229.556,516.02 L1198.817,533.76 L1198.817,569.24 L1260.294,533.76 Z M1291.033,516.017 L1291.033,480.537 L1260.293,462.797 L1229.556,480.537 L1229.556,516.017 L1260.293,533.757 L1291.033,516.017 Z" id="Shape" stroke="#C5C9E0" opacity="0.5"></path>
                <path d="M1321.771,533.76 L1291.033,516.02 L1260.293,533.76 L1321.771,533.76 Z M1352.51,516.017 L1352.51,480.537 L1321.77,462.797 L1291.032,480.537 L1291.032,516.017 L1321.77,533.757 L1352.51,516.017 Z M1352.51,516.02 L1321.77,533.76 L1352.51,516.02 Z" id="Shape" stroke="#C5C9E0" opacity="0.5"></path>
                <polyline id="Shape" stroke="#C5C9E0" opacity="0.5" points="1413.986 480.536 1383.249 462.796 1352.509 480.536 1352.509 516.016"></polyline>
                <path d="M1475.463,480.536 L1444.725,462.796 L1413.986,480.536 L1475.463,480.536 Z M1536.94,516.017 L1536.94,480.537 L1506.201,462.797 L1475.463,480.537 L1536.94,516.017 Z M1567.679,569.241 L1567.679,533.761 L1536.941,516.021 L1567.679,569.241 Z M1598.417,516.017 L1598.417,480.537 L1567.677,462.797 L1536.94,480.537 L1536.94,516.017 L1567.678,533.757 L1598.417,516.017 Z M1659.894,516.017 L1659.894,480.537 L1629.154,462.797 L1598.417,480.537 L1598.417,516.017 L1629.155,533.757 L1659.894,516.017 Z M1659.894,516.02 L1629.154,533.76 L1659.894,516.02 Z" id="Shape" stroke="#C5C9E0" opacity="0.5"></path>
                <path d="M1844.325,480.536 L1813.587,462.796 L1782.847,480.536 L1844.325,480.536 Z M1598.417,18.038 L1629.155,0.298 L1598.417,18.038 Z M1629.155,0.297 L1659.895,18.037 L1690.633,0.297 L1629.155,0.297 Z M1506.202,106.99 L1536.942,124.73 L1567.679,106.99 L1506.202,106.99 Z M1598.417,53.766 L1598.417,18.286 L1598.417,53.766 Z M1567.679,106.99 L1598.418,124.73 L1629.156,106.99 L1629.156,71.51 L1598.418,53.77 L1567.679,106.99 Z M1659.894,53.766 L1659.894,18.286 L1629.154,0.546 L1598.417,18.286 L1598.417,53.766 L1629.155,71.506 L1659.894,53.766 Z" id="Shape" stroke="#C5C9E0" opacity="0.5"></path>
                <path d="M1721.371,53.769 L1690.633,71.509 L1690.633,106.989 L1721.371,124.731 L1721.371,53.769 Z M1075.864,213.682 L1075.864,178.202 L1045.124,160.462 L1014.386,178.202 L1014.386,213.682 L1045.124,231.422 L1075.864,213.682 Z M1106.602,160.458 L1106.602,124.978 L1075.864,107.238 L1045.124,124.978 L1045.124,160.458 L1075.864,178.198 L1106.602,160.458 Z" id="Shape" stroke="#C5C9E0" opacity="0.5"></path>
                <path d="M1137.34,213.682 L1137.34,178.202 L1106.601,160.462 L1075.863,178.202 L1075.863,213.682 L1106.601,231.422 L1137.34,213.682 Z M1137.34,107.237 L1106.601,124.977 L1106.601,160.457 L1137.341,178.199 L1137.34,107.237 Z M1137.34,178.202 L1137.34,213.682 L1168.078,231.422 L1137.34,178.202 Z M1444.725,178.202 L1413.985,160.462 L1383.248,178.202 L1444.725,178.202 Z M1475.463,160.458 L1475.463,124.978 L1444.725,107.238 L1413.986,124.978 L1413.986,160.458 L1444.726,178.198 L1475.463,160.458 Z" id="Shape" stroke="#C5C9E0" opacity="0.5"></path>
                <path d="M1506.202,178.202 L1475.462,160.462 L1444.725,178.202 L1506.202,178.202 Z M1536.94,160.458 L1536.94,124.978 L1506.201,107.238 L1475.463,124.978 L1475.463,160.458 L1506.201,178.198 L1536.941,160.458 L1536.94,160.458 Z" id="Shape" stroke="#C5C9E0" opacity="0.5" stroke-dasharray="10"></path>
                <polyline id="Shape" stroke="#C5C9E0" opacity="0.5" points="1567.679 178.202 1536.941 160.462 1506.201 178.202"></polyline>
                <path d="M1598.417,160.458 L1598.417,124.978 L1567.677,107.238 L1536.94,124.978 L1536.94,160.458 L1567.678,178.198 L1598.418,160.458 L1598.417,160.458 Z" id="Shape" stroke="#C5C9E0" opacity="0.5" stroke-dasharray="10"></path>
                <path d="M1752.11,213.682 L1752.11,178.202 L1721.37,160.462 L1690.632,178.202 L1690.632,213.682 L1721.37,231.422 L1752.11,213.682 Z M1721.371,124.978 L1721.371,160.458 L1752.111,178.198 L1721.371,124.978 Z M1752.11,178.202 L1752.11,213.682 L1782.847,231.422 L1813.587,213.682 L1752.11,178.202 Z M1075.864,320.375 L1075.864,284.895 L1045.124,267.155 L1014.386,284.895 L1014.386,320.375 L1045.124,338.115 L1075.864,320.375 Z M1106.602,267.151 L1106.602,231.671 L1075.864,213.929 L1045.124,231.671 L1045.124,267.151 L1075.864,284.891 L1106.602,267.151 Z" id="Shape" stroke="#C5C9E0" opacity="0.5"></path>
                <path d="M1137.34,320.375 L1137.34,284.895 L1106.601,267.155 L1075.863,284.895 L1075.863,320.375 L1106.601,338.115 L1137.34,320.375 Z M1168.079,267.151 L1168.079,231.671 L1137.341,213.929 L1106.601,231.671 L1106.601,267.151 L1137.341,284.891 L1168.079,267.151 Z" id="Shape" stroke="#C5C9E0" opacity="0.5"></path>
                <path d="M1198.817,320.375 L1198.817,284.895 L1168.078,267.155 L1137.34,284.895 L1137.34,320.375 L1168.078,338.115 L1198.818,320.375 L1198.817,320.375 Z" id="Shape" stroke="#C5C9E0" opacity="0.5" stroke-dasharray="10"></path>
                <path d="M1168.079,231.67 L1168.079,267.15 L1198.818,284.89 L1229.556,267.15 L1229.556,231.67 L1168.079,231.67 Z M1598.417,267.151 L1598.417,231.671 L1598.417,267.151 Z M1659.894,267.151 L1659.894,231.671 L1629.154,213.929 L1598.417,231.671 L1598.417,267.151 L1629.155,284.891 L1659.894,267.151 Z" id="Shape" stroke="#C5C9E0" opacity="0.5"></path>
                <path d="M1782.848,267.151 L1782.848,231.671 L1752.11,213.929 L1721.37,231.671 L1721.37,267.151 L1752.11,284.891 L1782.848,267.151 Z M1782.848,267.154 L1752.11,284.894 L1752.11,320.374 L1782.848,338.116 L1782.848,267.154 Z M891.433,427.068 L922.173,444.808 L952.91,427.068 L952.91,391.588 L922.172,373.848 L891.433,427.068 Z M922.171,373.844 L952.909,391.584 L983.649,373.844 L922.171,373.844 Z" id="Shape" stroke="#C5C9E0" opacity="0.5"></path>
                <path d="M1014.386,427.068 L1014.386,391.588 L983.649,373.848 L952.909,391.588 L952.909,427.068 L983.649,444.808 L1014.386,427.068 Z M983.648,373.844 L1014.386,391.584 L1045.126,373.844 L1045.126,338.364 L1014.386,320.624 L983.648,373.844 Z M1075.864,427.068 L1075.864,391.588 L1045.124,373.848 L1014.386,391.588 L1014.386,427.068 L1045.124,444.808 L1075.864,427.068 Z" id="Shape" stroke="#C5C9E0" opacity="0.5"></path>
                <path d="M1106.602,373.844 L1106.602,338.364 L1075.864,320.624 L1045.124,338.364 L1045.124,373.844 L1075.864,391.584 L1106.602,373.844 Z M1137.34,427.068 L1137.34,391.588 L1106.601,373.848 L1075.863,391.588 L1075.863,427.068 L1106.601,444.808 L1137.34,427.068 Z" id="Shape" stroke="#C5C9E0" opacity="0.5"></path>
                <path d="M1168.079,373.844 L1168.079,338.364 L1137.341,320.624 L1106.601,338.364 L1106.601,373.844 L1137.341,391.584 L1168.079,373.844 Z M1198.817,427.068 L1198.817,391.588 L1168.078,373.848 L1137.34,391.588 L1137.34,427.068 L1168.078,444.808 L1198.817,427.068 Z" id="Shape" stroke="#C5C9E0" opacity="0.5"></path>
                <path d="M1229.556,373.844 L1229.556,338.364 L1198.816,320.624 L1168.079,338.364 L1168.079,373.844 L1198.817,391.584 L1229.556,373.844 Z" id="Shape" stroke="#C5C9E0" opacity="0.5" stroke-dasharray="10"></path>
                <path d="M1260.294,427.068 L1260.294,391.588 L1229.556,373.848 L1198.817,391.588 L1198.817,427.068 L1229.557,444.808 L1260.294,427.068 Z M1260.294,320.623 L1229.556,338.363 L1229.556,373.843 L1260.294,391.585 L1260.294,320.623 Z M1260.294,391.587 L1260.294,427.067 L1291.034,444.809 L1321.771,427.067 L1321.771,391.587 L1260.294,391.587 Z" id="Shape" stroke="#C5C9E0" opacity="0.5"></path>
                <path d="M1321.771,391.587 L1321.771,427.067 L1352.511,444.809 L1383.248,427.067 L1383.248,391.587 M1383.248,391.587 L1383.248,427.067 L1413.986,444.809 L1444.726,427.067 L1444.726,391.587" id="Shape" stroke="#C5C9E0" opacity="0.5"></path>
                <polyline id="Shape" stroke="#C5C9E0" opacity="0.5" points="1444.725 391.587 1444.725 427.067 1475.463 444.809 1506.203 427.067 1506.203 391.587"></polyline>
                <path d="M1506.202,391.587 L1506.202,427.067 L1536.942,444.809 L1567.679,427.067 L1567.679,391.587 M1567.679,391.584 L1598.418,373.844 L1598.418,338.364" id="Shape" stroke="#C5C9E0" opacity="0.5"></path>
                <path d="M1782.848,373.844 L1782.848,338.364 L1752.11,320.624 L1721.37,338.364 L1721.37,373.844 L1752.11,391.584 L1782.848,373.844 Z M1782.848,373.847 L1752.11,391.587 L1752.11,427.067 L1782.848,444.809 L1813.588,427.067 L1782.848,373.847 Z M1782.848,338.363 L1782.848,373.843 L1782.848,338.363 Z M891.433,427.315 L922.173,445.055 L891.433,427.315 Z M922.171,445.056 L952.909,427.316 L983.649,445.056 L922.171,445.056 Z" id="Shape" stroke="#C5C9E0" opacity="0.5"></path>
                <polyline id="Shape" stroke="#C5C9E0" opacity="0.5" points="1045.125 445.056 1014.385 427.316 983.648 445.056"></polyline>
                <path d="M1106.602,480.536 L1106.602,445.056 L1075.864,427.316 L1045.124,445.056 M1106.602,551.5 L1137.342,533.76 L1137.342,498.28 L1106.602,480.539" id="Shape" stroke="#C5C9E0" opacity="0.5"></path>
                <path d="M1168.079,480.536 L1168.079,445.056 L1137.341,427.316 L1106.601,445.056 L1106.601,480.536 L1137.341,498.276 L1168.079,480.536 Z M1198.817,533.76 L1198.817,498.28 L1168.078,480.54 L1137.34,498.28 L1137.34,533.76 L1168.078,551.5 L1198.817,533.76 Z M1229.556,480.536 L1229.556,445.056 L1198.816,427.316 L1168.079,445.056 L1168.079,480.536 L1198.817,498.276 L1229.556,480.536 Z M1260.294,533.76 L1260.294,498.28 L1229.556,480.54 L1198.817,498.28 L1198.817,533.76 L1260.294,533.76 Z" id="Shape" stroke="#C5C9E0" opacity="0.5"></path>
                <path d="M1291.033,480.536 L1291.033,445.056 L1260.293,427.316 L1229.556,445.056 L1229.556,480.536 L1260.293,498.276 L1291.033,480.536 Z M1321.771,533.76 L1321.771,498.28 L1291.033,480.54 L1260.293,498.28 L1260.293,533.76 L1291.033,551.5 L1321.771,533.76 Z" id="Shape" stroke="#C5C9E0" opacity="0.5"></path>
                <path d="M1352.51,480.536 L1352.51,445.056 L1321.77,427.316 L1291.032,445.056 L1291.032,480.536 L1321.77,498.276 L1352.51,480.536 Z M1383.248,498.28 L1352.508,480.54 L1321.771,498.28 L1321.771,533.76 L1352.509,551.5 L1383.248,498.28 Z" id="Shape" stroke="#C5C9E0" opacity="0.5"></path>
                <path d="M1413.986,480.536 L1413.986,445.056 L1383.249,427.316 L1352.509,445.056 L1352.509,480.536 L1383.249,498.276 L1413.986,480.536 Z M1444.725,498.28 L1413.985,480.54 L1383.248,498.28 L1444.725,498.28 Z" id="Shape" stroke="#C5C9E0" opacity="0.5"></path>
                <path d="M1475.463,480.536 L1475.463,445.056 L1444.725,427.316 L1413.986,445.056 L1413.986,480.536 L1444.726,498.276 L1475.463,480.536 Z M1506.202,498.28 L1475.462,480.54 L1444.725,498.28 L1506.202,498.28 Z M1536.94,480.536 L1536.94,445.056 L1506.201,427.316 L1475.463,445.056 L1475.463,480.536 L1506.201,498.276 L1536.94,480.536 Z M1506.202,498.28 L1536.942,480.54 L1567.679,498.28 L1567.679,533.76 L1536.941,551.5 L1506.202,498.28 Z" id="Shape" stroke="#C5C9E0" opacity="0.5"></path>
                <path d="M1598.417,480.536 L1598.417,445.056 L1567.677,427.316 L1536.94,445.056 L1536.94,480.536 L1567.678,498.276 L1598.417,480.536 Z M1629.155,533.76 L1629.155,498.28 L1598.418,480.54 L1567.678,498.28 L1567.678,533.76 L1598.418,551.5 L1629.155,533.76 Z" id="Shape" stroke="#C5C9E0" opacity="0.5"></path>
                <polyline id="Shape" stroke="#5468FF" points="0.017 115.86 0.017 160.461 30.755 178.201 30.755 213.93 61.495 231.67 61.495 267.152 92.232 249.41 122.972 267.152 122.972 302.632 92.232 320.622 122.972 338.364 122.972 373.844 153.71 356.104 184.447 373.844 215.187 391.587 215.187 427.316 245.924 445.056 245.924 480.536 276.664 462.796 307.402 480.536 338.141 462.796 368.879 480.536 368.879 445.056 399.617 427.316 430.356 445.056 461.094 427.316 491.833 445.056 491.833 480.536 522.571 498.279 553.311 480.539 584.048 498.279 614.788 480.536 645.525 462.796 645.525 427.316 676.263 409.324 707.003 427.316 737.74 409.324 799.217 445.056 860.694 409.324 922.171 445.056 983.649 409.324 1014.386 427.316 1045.126 409.324 1045.126 373.844 1075.864 356.104 1075.864 320.622 1045.126 302.632 1045.126 267.152 1075.864 249.41 1106.601 267.152 1106.601 302.632 1137.341 320.622 1137.341 356.104 1168.078 373.844 1137.341 391.587 1137.341 427.316 1168.078 445.056 1198.818 427.316 1229.556 445.056 1229.556 480.536 1260.293 498.279 1321.77 462.796 1352.51 480.536 1352.51 445.056 1383.248 427.316 1413.987 445.056 1444.725 427.316 1475.463 445.056 1475.463 480.536 1506.202 462.796 1536.94 480.536 1567.68 462.796 1567.68 427.316 1598.417 409.324 1598.417 373.847 1629.157 356.104 1659.894 373.844 1690.634 355.855 1690.634 284.892 1659.894 267.152 1690.634 249.41 1690.634 213.93 1721.371 195.94 1782.848 231.67 1844.325 195.94"></polyline>
            </g>
        </g>
    </g>
</svg>