<svg xmlns="http://www.w3.org/2000/svg" width="1609.542" height="2176.862" viewBox="0 0 1609.542 2176.862"><defs><style>.a,.b,.c,.d{fill:none;stroke:#6e34c1;stroke-linecap:round;stroke-linejoin:round;}.a{stroke-width:0.5px;}.c{stroke-width:1.5px;}.d{stroke-width:2px;}.e{fill:#6e34c1;opacity:0.44;}</style></defs><g transform="translate(-839.763 353.309)"><path class="a" d="M-8089.945-908.532S-8337.12-661.358-8273.656-407.5s797.059,517.206,930,857.79,134.781,398.123,134.781,398.123h390.923L-6858.032-1159.3Z" transform="translate(9124 890)"/><path class="b" d="M-8089.945-908.532S-8337.49-681.657-8274.026-427.8s717.063,486.7,833.7,808.106,138.3,468.105,138.3,468.105H-6851.1l-33.4-2091.218Z" transform="translate(9244 890)"/><path class="c" d="M-8081.693-909.774s-309.7,217.88-246.235,471.734,645.4,451,756.849,839.791,132.189,446.657,132.189,446.657h150.59L-7355.1-1038.8Z" transform="translate(9424 853)"/><path class="d" d="M-8034.872-879s-294.146,212.7-230.683,466.551,684.274,510.614,686.866,899.406S-7430.948,829.1-7430.948,829.1l139.965-15.552L-7355.1-1038.8Z" transform="translate(9499 830)"/><path class="e" d="M-7975.251-866.693s-510.612,261.787-222.907,567.637,492.47,479.51,528.757,798.32,492.707,540.289,492.707,540.289l-251.814-2027.6Z" transform="translate(9626 784)"/></g></svg>