<svg width="635" height="635" viewBox="0 0 635 635" fill="none" xmlns="http://www.w3.org/2000/svg">
<path class="red filed" d="M211.48 317.219C153.082 317.219 105.74 269.878 105.74 211.48L211.48 211.48L211.48 317.219Z" fill="#E53855"/>
<path class="yellow filed"  d="M3.35249e-05 211.48C3.60776e-05 153.082 47.3419 105.74 105.74 105.74L105.74 211.48L3.35249e-05 211.48Z" fill="#FFB017"/>
<path d="M428.976 508.645C437.735 508.645 444.837 515.747 444.837 524.506C444.837 533.265 437.735 540.367 428.976 540.367C420.216 540.367 413.115 533.265 413.115 524.506C413.115 515.747 420.216 508.645 428.976 508.645Z" fill="#FF743C"/>
<path class="orange filed"  d="M105.74 422.959C47.3418 422.959 -1.78114e-05 375.617 -1.52588e-05 317.219L105.74 317.219L105.74 422.959Z" fill="#DA774A"/>
<path d="M529.064 528.699C529.064 587.097 481.722 634.439 423.324 634.439L423.324 528.699L529.064 528.699Z" fill="#FFC700"/>
<path class="blue filed" d="M211.48 634.439C211.48 576.041 258.822 528.699 317.22 528.699L317.22 634.439L211.48 634.439Z" fill="#4484AB"/>
<path class="green filed" d="M422.959 422.959C422.959 481.357 375.618 528.699 317.22 528.699L317.22 422.959L422.959 422.959Z" fill="#44AB96"/>
<path d="M634.804 211.48C576.406 211.48 529.064 164.138 529.064 105.74L634.804 105.74L634.804 211.48Z" fill="#FF743C"/>
<path class="green filed" d="M105.74 211.48C105.74 153.081 153.082 105.74 211.48 105.74L211.48 211.48L105.74 211.48Z" fill="#44AB96"/>
<path  class="green filed" d="M157.516 211.48C157.516 181.676 181.676 157.516 211.48 157.516L211.48 211.48L157.516 211.48Z" fill="#44AB96"/>
<path class="green filed" d="M3.35249e-05 317.219C3.60776e-05 258.82 47.3419 211.48 105.74 211.48L105.74 317.219L3.35249e-05 317.219Z" fill="#44AB96"/>
<path class="green filed" d="M51.7761 317.219C51.7761 287.416 75.936 263.256 105.74 263.256L105.74 317.219L51.7761 317.219Z" fill="#44AB96"/>
<path class="blue filed" d="M317.22 52.8699L370.089 52.8699C399.288 52.8699 422.959 29.199 422.959 0L370.089 -2.31102e-06C340.89 -3.58735e-06 317.22 23.6709 317.22 52.8699Z" fill="#4484AB"/>
<path class="blue filed" d="M370.454 211.48L370.454 264.35C370.454 293.549 394.125 317.219 423.324 317.219L423.324 264.35C423.324 235.151 399.653 211.48 370.454 211.48Z" fill="#4484AB"/>
<path class="red filed"  d="M317.584 158.61L317.584 211.48C317.584 240.679 341.255 264.35 370.454 264.35L370.454 211.48C370.454 182.281 346.783 158.61 317.584 158.61Z" fill="#E53855"/>
<path class="green filed" d="M634.804 211.48L529.064 211.48C470.666 211.48 423.324 258.821 423.324 317.219L529.064 317.219C587.462 317.219 634.804 269.878 634.804 211.48Z" fill="#44AB96"/>
<path class="blue filed" d="M528.699 264.349L476.278 264.349C447.033 264.349 423.324 288.02 423.324 317.219L475.745 317.219C504.992 317.219 528.699 293.548 528.699 264.349Z" fill="#4484AB"/>
<path class="green filed" d="M5.64131e-05 105.74L105.74 105.74C164.138 105.74 211.48 58.398 211.48 9.24407e-06L105.74 4.62203e-06C47.3419 2.06938e-06 5.89658e-05 47.3418 5.64131e-05 105.74Z" fill="#44AB96"/>
<path class="red filed"  d="M106.104 52.8699L158.526 52.8699C187.771 52.8699 211.48 29.199 211.48 4.6061e-06L159.058 2.31469e-06C129.812 1.03629e-06 106.104 23.6709 106.104 52.8699Z" fill="#E53855"/>
<path class="red filed"  d="M634.804 105.74L529.064 105.74C470.666 105.74 423.324 58.398 423.324 -9.24407e-06L529.064 -4.62203e-06C587.462 -2.06938e-06 634.804 47.3418 634.804 105.74Z" fill="#E53855"/>
<path class="blue filed" d="M528.335 52.8699L475.913 52.8699C446.668 52.8699 422.959 29.199 422.959 -4.6061e-06L475.381 -2.31469e-06C504.627 -1.03629e-06 528.335 23.6709 528.335 52.8699Z" fill="#4484AB"/>
<path class="red filed"  d="M529.064 528.699L529.064 422.959C529.064 364.561 481.722 317.219 423.324 317.219L423.324 422.959C423.324 481.357 470.666 528.699 529.064 528.699Z" fill="#E53855"/>
<path class="orange filed"  d="M476.194 422.959L476.194 370.357C476.194 341.01 452.523 317.219 423.324 317.219L423.324 369.822C423.324 399.17 446.995 422.959 476.194 422.959Z" fill="#DA774A"/>
<path class="orange filed"  d="M317.22 528.699L317.22 422.959C317.22 364.561 269.878 317.219 211.48 317.219L211.48 422.959C211.48 481.357 258.822 528.699 317.22 528.699Z" fill="#DA774A"/>
<path class="green filed" d="M264.35 422.595L264.35 370.173C264.35 340.928 240.679 317.219 211.48 317.219L211.48 369.641C211.48 398.887 235.151 422.595 264.35 422.595Z" fill="#44AB96"/>
<path class="yellow filed"  d="M317.22 211.48L317.22 105.74C317.22 47.3418 269.878 -2.06938e-06 211.48 -4.62203e-06L211.48 105.74C211.48 164.138 258.822 211.48 317.22 211.48Z" fill="#FFB017"/>
<path class="green filed" d="M264.35 105.375L264.35 52.954C264.35 23.7085 240.679 -1.03469e-06 211.48 -2.31102e-06L211.48 52.4212C211.48 81.6677 235.151 105.375 264.35 105.375Z" fill="#44AB96"/>
<path class="green filed" d="M211.48 317.219L211.48 422.959C211.48 481.357 164.138 528.699 105.74 528.699L105.74 422.959C105.74 364.561 153.082 317.219 211.48 317.219Z" fill="#44AB96"/>
<path class="red filed"  d="M158.61 422.959L158.61 475.562C158.61 504.908 134.939 528.699 105.74 528.699L105.74 476.096C105.74 446.749 129.411 422.959 158.61 422.959Z" fill="#E53855"/>
<path class="yellow filed"  d="M6.86646e-05 528.699L105.74 528.699C164.138 528.699 211.48 576.041 211.48 634.439L105.74 634.439C47.3419 634.439 6.61119e-05 587.097 6.86646e-05 528.699Z" fill="#FFB017"/>
<path class="blue filed" d="M106.105 581.569L158.526 581.569C187.771 581.569 211.48 605.24 211.48 634.439L159.058 634.439C129.813 634.439 106.105 610.768 106.105 581.569Z" fill="#4484AB"/>
<path class="red filed"  d="M211.844 497.342C229.364 497.342 243.566 511.544 243.566 529.064C243.566 546.584 229.364 560.786 211.844 560.786C194.324 560.786 180.122 546.584 180.122 529.064C180.122 511.544 194.324 497.342 211.844 497.342Z" fill="#E53855"/>
<path d="M211.662 513.385C220.422 513.385 227.523 520.486 227.523 529.246C227.523 538.005 220.422 545.107 211.662 545.107C202.903 545.107 195.801 538.005 195.801 529.246C195.801 520.486 202.903 513.385 211.662 513.385Z" fill="#FFC700"/>
<path d="M345.478 274.559C354.237 274.559 361.339 281.66 361.339 290.42C361.339 299.179 354.237 306.281 345.478 306.281C336.718 306.281 329.617 299.179 329.617 290.42C329.617 281.66 336.718 274.559 345.478 274.559Z" fill="#FF743C"/>
<path class="green filed" d="M396.524 168.819C405.284 168.819 412.385 175.921 412.385 184.68C412.385 193.44 405.284 200.541 396.524 200.541C387.765 200.541 380.663 193.44 380.663 184.68C380.663 175.921 387.765 168.819 396.524 168.819Z" fill="#44AB96"/>
<path d="M132.722 302.999C140.576 302.999 146.942 309.366 146.942 317.219C146.942 325.073 140.576 331.44 132.722 331.44C124.868 331.44 118.502 325.073 118.502 317.219C118.502 309.366 124.868 302.999 132.722 302.999Z" fill="#FF743C"/>
<path class="red filed"  d="M370.454 317.219C399.653 317.219 423.324 340.89 423.324 370.089C423.324 399.288 399.653 422.959 370.454 422.959C341.255 422.959 317.584 399.288 317.584 370.089L317.584 317.219L370.454 317.219Z" fill="#E53855"/>
<path d="M344.567 317.219C359.669 317.219 371.913 329.463 371.913 344.567C371.913 359.669 359.669 371.912 344.567 371.912C329.463 371.912 317.22 359.669 317.22 344.567L317.22 317.219L344.567 317.219Z" fill="#FFC700"/>
<path class="red filed"  d="M370.454 634.439C399.653 634.439 423.324 610.768 423.324 581.569C423.324 552.37 399.653 528.699 370.454 528.699C341.255 528.699 317.584 552.37 317.584 581.569L317.584 634.439L370.454 634.439Z" fill="#E53855"/>
<path d="M344.931 634.439C360.034 634.439 372.277 622.195 372.277 607.092C372.277 591.989 360.034 579.746 344.931 579.746C329.828 579.746 317.584 591.989 317.584 607.092L317.584 634.439L344.931 634.439Z" fill="#FFC700"/>
<path class="orange filed"  d="M476.194 105.74C505.393 105.74 529.064 129.411 529.064 158.61C529.064 187.809 505.393 211.48 476.194 211.48C446.995 211.48 423.324 187.809 423.324 158.61C423.324 129.411 446.995 105.74 476.194 105.74Z" fill="#DA774A"/>
<path class="blue filed" d="M476.012 129.44C492.222 129.44 505.364 142.582 505.364 158.792C505.364 175.002 492.222 188.144 476.012 188.144C459.801 188.144 446.66 175.002 446.66 158.792C446.66 142.582 459.801 129.44 476.012 129.44Z" fill="#4484AB"/>
<path class="orange filed"  d="M52.8699 422.959C82.0689 422.959 105.74 446.63 105.74 475.829C105.74 505.028 82.0689 528.699 52.8699 528.699C23.6709 528.699 2.69302e-05 505.028 2.82066e-05 475.829C2.94829e-05 446.63 23.671 422.959 52.8699 422.959Z" fill="#DA774A"/>
<path class="green filed" d="M53.4169 446.66C69.6271 446.66 82.7688 459.801 82.7688 476.011C82.7688 492.222 69.6271 505.363 53.4169 505.363C37.2066 505.363 24.0649 492.222 24.0649 476.011C24.0649 459.801 37.2066 446.66 53.4169 446.66Z" fill="#44AB96"/>
<path class="blue filed" d="M264.35 317.219C235.151 317.219 211.48 293.63 211.48 264.532C211.48 235.434 235.151 211.844 264.35 211.844C293.549 211.844 317.22 235.434 317.22 264.532L317.22 317.219L264.35 317.219Z" fill="#4484AB"/>
<path class="green filed" d="M317.22 105.74C317.22 134.939 340.89 158.61 370.089 158.61C399.288 158.61 422.959 134.939 422.959 105.74C422.959 76.5408 399.288 52.8699 370.089 52.8699L317.22 52.8699L317.22 105.74Z" fill="#44AB96"/>
</svg>
