<svg width="150" height="157" viewBox="0 0 150 157" fill="none" xmlns="http://www.w3.org/2000/svg">
<path d="M75 0C65.4868 0 56.3632 2.06133 49.6364 5.73052C42.9095 9.39971 39.1304 14.3762 39.1304 19.5652C39.1304 24.7542 42.9095 29.7307 49.6364 33.3999C56.3632 37.0691 65.4868 39.1304 75 39.1304C84.5132 39.1304 93.6368 37.0691 100.364 33.3999C107.09 29.7307 110.87 24.7542 110.87 19.5652C110.87 14.3762 107.09 9.39971 100.364 5.73052C93.6368 2.06133 84.5132 0 75 0V0ZM39.1304 33.6086V39.1304C39.1304 49.7348 55.5554 58.6957 75 58.6957C94.4446 58.6957 110.87 49.7348 110.87 39.1304V33.6086C103.428 40.8901 90.2967 45.6522 75 45.6522C59.7033 45.6522 46.5717 40.8901 39.1304 33.6086ZM35.8696 58.6957C26.3564 58.6957 17.2328 60.757 10.506 64.4262C3.7791 68.0954 0 73.0719 0 78.2609C0 83.4499 3.7791 88.4264 10.506 92.0956C17.2328 95.7648 26.3564 97.8261 35.8696 97.8261C45.3828 97.8261 54.5063 95.7648 61.2332 92.0956C67.96 88.4264 71.7391 83.4499 71.7391 78.2609C71.7391 73.0719 67.96 68.0954 61.2332 64.4262C54.5063 60.757 45.3828 58.6957 35.8696 58.6957V58.6957ZM114.13 58.6957C104.617 58.6957 95.4937 60.757 88.7668 64.4262C82.04 68.0954 78.2609 73.0719 78.2609 78.2609C78.2609 83.4499 82.04 88.4264 88.7668 92.0956C95.4937 95.7648 104.617 97.8261 114.13 97.8261C123.644 97.8261 132.767 95.7648 139.494 92.0956C146.221 88.4264 150 83.4499 150 78.2609C150 73.0719 146.221 68.0954 139.494 64.4262C132.767 60.757 123.644 58.6957 114.13 58.6957V58.6957ZM0 92.3043V97.8261C0 108.43 16.425 117.391 35.8696 117.391C55.3141 117.391 71.7391 108.43 71.7391 97.8261V92.3043C64.2978 99.5858 51.1663 104.348 35.8696 104.348C20.5728 104.348 7.4413 99.5858 0 92.3043ZM78.2609 92.3043V97.8261C78.2609 108.43 94.6859 117.391 114.13 117.391C133.575 117.391 150 108.43 150 97.8261V92.3043C142.559 99.5858 129.427 104.348 114.13 104.348C98.8337 104.348 85.7022 99.5858 78.2609 92.3043ZM0 111.869V117.391C0 127.996 16.425 136.957 35.8696 136.957C55.3141 136.957 71.7391 127.996 71.7391 117.391V111.869C64.2978 119.151 51.1663 123.913 35.8696 123.913C20.5728 123.913 7.4413 119.151 0 111.869ZM78.2609 111.869V117.391C78.2609 127.996 94.6859 136.957 114.13 136.957C133.575 136.957 150 127.996 150 117.391V111.869C142.559 119.151 129.427 123.913 114.13 123.913C98.8337 123.913 85.7022 119.151 78.2609 111.869ZM0 131.435V136.957C0 148.474 14.7489 156.522 35.8696 156.522C56.9902 156.522 71.7391 148.471 71.7391 136.95V131.435C64.2978 138.716 51.1663 143.478 35.8696 143.478C20.5728 143.478 7.4413 138.716 0 131.435ZM78.2609 131.435V136.957C78.2609 148.474 93.0098 156.522 114.13 156.522C135.251 156.522 150 148.471 150 136.95V131.435C142.559 138.716 129.427 143.478 114.13 143.478C98.8337 143.478 85.7022 138.716 78.2609 131.435Z" fill="url(#paint0_linear)"/>
<defs>
<linearGradient id="paint0_linear" x1="1.39698e-07" y1="78.2609" x2="150" y2="78.2609" gradientUnits="userSpaceOnUse">
<stop stop-color="#FAFAFA"/>
<stop offset="1" stop-color="#C4C4C4"/>
</linearGradient>
</defs>
</svg>
