<svg width="200" height="200" viewBox="0 0 200 200" fill="none" xmlns="http://www.w3.org/2000/svg">
<g filter="url(#filter0_d)">
<circle cx="100" cy="100" r="90" stroke="url(#paint0_linear)" stroke-width="5"/>
</g>
<path d="M97.8039 51C91.5424 51 86.0667 52.3124 81.3686 54.3467C80.5992 54.5846 80.0344 55.2572 79.9198 56.0529C79.8053 56.8568 80.1654 57.6524 80.8366 58.1036C81.5077 58.5465 82.3753 58.5711 83.071 58.1528C87.2699 56.3318 92.1072 55.1998 97.8039 55.1998C106.185 55.1998 113.069 57.1192 118.823 60.1215C119.854 60.6628 121.131 60.2691 121.671 59.2356C122.211 58.202 121.818 56.9224 120.787 56.381C114.46 53.0835 106.824 51 97.8039 51ZM75.0826 57.9559C74.747 58.0133 74.4359 58.1446 74.1658 58.3497C68.2891 62.4592 63.9756 67.6106 60.808 71.9334C59.2283 74.0989 57.9433 76.0512 56.8793 77.5769C55.8152 79.1026 54.9231 80.2592 54.653 80.4643C53.9491 80.8744 53.5398 81.6619 53.6217 82.4739C53.6953 83.2942 54.2355 83.9914 55.0049 84.2621C55.7743 84.5328 56.6337 84.336 57.2067 83.7454C58.3853 82.8267 59.1792 81.588 60.2842 80.0049C61.3892 78.4218 62.6988 76.5023 64.213 74.427C67.2414 70.2847 71.2029 65.5517 76.5231 61.8276C77.3334 61.3191 77.6935 60.3183 77.3989 59.4078C77.1042 58.4973 76.2366 57.8985 75.279 57.9559C75.2135 57.9559 75.148 57.9559 75.0826 57.9559ZM99.179 61.4995C98.0249 61.6636 97.2146 62.7381 97.3783 63.8947C97.542 65.0513 98.6142 65.8634 99.7683 65.6993C121.065 66.9461 130.069 78.8237 133.883 92.2762C137.697 105.729 135.692 120.863 133.883 126.465C133.523 127.573 134.12 128.762 135.225 129.123C136.33 129.484 137.517 128.885 137.877 127.778C140.055 121.043 142.076 105.745 137.943 91.1606C133.809 76.5762 122.866 62.8366 100.03 61.4995C99.8747 61.4831 99.7274 61.4831 99.5719 61.4995C99.5064 61.4995 99.4409 61.4995 99.3754 61.4995C99.3099 61.4995 99.2445 61.4995 99.179 61.4995ZM127.597 61.6308C126.762 61.7866 126.099 62.4346 125.927 63.2713C125.755 64.108 126.107 64.9611 126.811 65.4368C143.198 76.773 145.8 102.448 145.8 102.448C145.907 103.604 146.938 104.457 148.092 104.351C149.246 104.244 150.097 103.21 149.991 102.054C149.991 102.054 147.748 74.8864 129.169 62.0245C128.718 61.6882 128.154 61.5487 127.597 61.6308ZM91.125 62.287C91.0841 62.3034 91.035 62.328 90.9941 62.3526C76.5149 65.2318 69.5086 75.2227 64.082 83.6797C63.4518 84.6559 63.7301 85.9683 64.7041 86.5999C65.6781 87.2315 66.9877 86.9526 67.6179 85.9765C72.979 77.6097 78.8394 68.9968 91.7798 66.4212C92.8357 66.1587 93.5232 65.1333 93.3513 64.0506C93.1794 62.976 92.2136 62.205 91.125 62.287ZM99.8993 71.999C92.6147 71.999 87.0489 74.3368 82.7436 77.8394C81.8351 78.5612 81.696 79.8901 82.4162 80.7924C83.1365 81.7029 84.4625 81.8423 85.3628 81.1205C89.0297 78.1429 93.4905 76.1988 99.8993 76.1988C101.749 76.1988 103.517 76.3547 105.203 76.6582C105.956 76.8222 106.734 76.5598 107.233 75.9774C107.74 75.3868 107.88 74.5747 107.609 73.8611C107.331 73.1392 106.685 72.6224 105.923 72.524C103.992 72.1795 101.986 71.999 99.8993 71.999ZM112.995 75.0176C112.93 75.034 112.864 75.0587 112.799 75.0833C111.931 75.2801 111.276 76.002 111.178 76.8879C111.072 77.7738 111.538 78.6268 112.34 79.0206C121.516 83.7125 127.139 93.9332 127.139 107.697C127.139 111.782 126.639 116.113 125.895 120.231C125.674 121.371 126.427 122.471 127.564 122.692C128.702 122.913 129.799 122.159 130.02 121.019C130.797 116.729 131.329 112.135 131.329 107.697C131.329 92.7684 125.002 80.7842 114.239 75.2801C113.863 75.0669 113.429 74.9766 112.995 75.0176ZM99.8993 82.4985C94.4399 82.4985 90.2001 84.2539 86.9998 86.9608C83.7995 89.6677 81.6141 93.2113 79.6661 96.8698C79.1259 97.9033 79.5188 99.1829 80.5501 99.7243C81.5814 100.266 82.8582 99.872 83.3984 98.8384C85.2482 95.3522 87.1635 92.309 89.6845 90.1763C92.2054 88.0436 95.283 86.6983 99.8993 86.6983C104.254 86.6983 107.429 88.0682 109.918 90.2419C112.406 92.4157 114.19 95.4589 115.287 98.8384C115.475 99.5931 116.064 100.192 116.818 100.372C117.579 100.561 118.373 100.315 118.888 99.7325C119.404 99.1419 119.559 98.3216 119.281 97.5916C118.004 93.6625 115.876 89.8974 112.668 87.0921C109.459 84.2867 105.162 82.4985 99.8993 82.4985ZM77.8327 83.6797C77.2679 83.7864 76.7686 84.1145 76.4576 84.5984C72.2751 90.2665 69.2549 96.558 65.7845 101.07C62.3141 105.581 58.8764 108.263 52.7541 107.697C51.6 107.591 50.5687 108.444 50.4623 109.6C50.3559 110.757 51.2071 111.791 52.3612 111.897C59.9568 112.594 65.2361 108.69 69.1239 103.629C73.0118 98.5677 75.9502 92.309 79.7971 87.0921C80.2964 86.4687 80.3946 85.6238 80.0672 84.9019C79.7316 84.1801 79.0195 83.7043 78.2256 83.6797C78.1601 83.6797 78.0946 83.6797 78.0291 83.6797C77.9636 83.6797 77.8982 83.6797 77.8327 83.6797ZM61.2009 89.5857C61.0863 89.6021 60.9799 89.6185 60.8735 89.6513C60.3415 89.758 59.875 90.0615 59.5639 90.5044C57.1085 93.8593 54.6693 96.2874 51.6409 97.3291C50.8552 97.5014 50.2331 98.1166 50.053 98.9122C49.873 99.6997 50.1594 100.52 50.7897 101.02C51.4281 101.529 52.2875 101.619 53.016 101.266C57.2476 99.8063 60.2924 96.6483 62.9689 92.9981C63.4927 92.35 63.5827 91.4559 63.198 90.7177C62.8133 89.9712 62.0276 89.5283 61.2009 89.5857ZM96.3634 91.6856C96.1096 91.7266 95.8641 91.8169 95.6431 91.9481C91.9926 93.9332 90.3147 97.9279 88.8987 101.923C87.4827 105.917 86.3286 110.134 84.9045 112.882C80.7956 120.814 72.9463 128.696 62.1831 128.696C61.4301 128.688 60.7262 129.082 60.3415 129.738C59.965 130.394 59.965 131.198 60.3415 131.854C60.7262 132.511 61.4301 132.904 62.1831 132.896C74.9598 132.896 84.0369 123.734 88.6368 114.85C90.4293 111.38 91.5097 107.099 92.8275 103.366C94.1453 99.6341 95.7659 96.6565 97.673 95.6229C98.5897 95.1472 99.0235 94.0726 98.7043 93.0883C98.3769 92.1122 97.3783 91.5134 96.3634 91.6856ZM103.632 92.0793C102.764 92.227 102.085 92.8996 101.929 93.7609C101.765 94.6304 102.158 95.4999 102.911 95.951C104.982 97.3619 106.185 101.078 106.185 105.86C106.185 109.026 105.048 116.474 102.06 124.168C99.0726 131.863 94.2353 139.869 87.1962 144.905C86.2386 145.578 86.0012 146.898 86.6724 147.858C87.3436 148.818 88.6614 149.056 89.619 148.383C97.6238 142.657 102.748 133.864 105.923 125.678C109.099 117.491 110.376 109.953 110.376 105.86C110.376 100.422 109.197 95.1882 105.203 92.4731C104.753 92.1368 104.188 91.9973 103.632 92.0793ZM99.5719 101.398C98.5897 101.554 97.853 102.374 97.8039 103.366C97.8039 103.366 97.3537 110.265 93.7442 118.394C93.3268 119.091 93.3513 119.96 93.7933 120.633C94.2435 121.306 95.0374 121.667 95.8395 121.552C96.6335 121.437 97.3046 120.871 97.542 120.1C101.463 111.282 101.995 103.629 101.995 103.629C102.044 102.989 101.798 102.357 101.323 101.923C100.849 101.488 100.202 101.299 99.5719 101.398ZM77.1124 103.498C76.4904 103.629 75.9583 104.039 75.6719 104.613C73.6502 108.386 71.4239 111.84 68.4037 114.26C65.3834 116.679 61.5692 118.197 55.8316 118.197C55.0786 118.189 54.3747 118.582 53.99 119.239C53.6135 119.895 53.6135 120.699 53.99 121.355C54.3747 122.011 55.0786 122.405 55.8316 122.397C62.355 122.397 67.2987 120.518 71.0228 117.541C74.747 114.563 77.2761 110.618 79.4042 106.647C79.8134 105.95 79.7889 105.081 79.3469 104.416C78.8967 103.744 78.1028 103.383 77.3089 103.498C77.2434 103.498 77.1779 103.498 77.1124 103.498ZM118.561 105.532C118.471 105.548 118.381 105.573 118.299 105.597C117.325 105.819 116.637 106.697 116.662 107.697C116.662 129.476 104.024 145.561 104.024 145.561C103.304 146.488 103.46 147.825 104.385 148.547C105.309 149.269 106.644 149.113 107.364 148.186C107.364 148.186 120.853 131.1 120.853 107.697C120.877 107.09 120.632 106.508 120.198 106.098C119.756 105.68 119.158 105.474 118.561 105.532ZM91.6488 124.037C91.0268 124.119 90.4702 124.48 90.1428 125.022C86.5251 130.526 81.2785 135.726 73.511 139.13C72.447 139.581 71.9477 140.82 72.3979 141.886C72.8481 142.953 74.084 143.453 75.148 143.002C83.7422 139.237 89.6354 133.356 93.6132 127.318C94.0798 126.638 94.1125 125.752 93.6869 125.046C93.2613 124.333 92.4673 123.939 91.6488 124.037ZM125.633 127.318C124.781 127.466 124.11 128.114 123.93 128.959C122.285 135.193 120.656 139.524 120.656 139.524C120.345 140.238 120.46 141.066 120.951 141.673C121.434 142.28 122.211 142.567 122.981 142.42C123.742 142.272 124.356 141.714 124.585 140.968C124.585 140.968 126.296 136.448 127.99 130.009C128.186 129.344 128.047 128.631 127.613 128.098C127.18 127.556 126.517 127.269 125.829 127.318C125.764 127.318 125.698 127.318 125.633 127.318Z" fill="url(#paint1_linear)"/>
<defs>
<filter id="filter0_d" x="0.5" y="0.5" width="199" height="199" filterUnits="userSpaceOnUse" color-interpolation-filters="sRGB">
<feFlood flood-opacity="0" result="BackgroundImageFix"/>
<feColorMatrix in="SourceAlpha" type="matrix" values="0 0 0 0 0 0 0 0 0 0 0 0 0 0 0 0 0 0 127 0"/>
<feMorphology radius="1" operator="dilate" in="SourceAlpha" result="effect1_dropShadow"/>
<feOffset/>
<feGaussianBlur stdDeviation="3"/>
<feColorMatrix type="matrix" values="0 0 0 0 0 0 0 0 0 0 0 0 0 0 0 0 0 0 0.25 0"/>
<feBlend mode="normal" in2="BackgroundImageFix" result="effect1_dropShadow"/>
<feBlend mode="normal" in="SourceGraphic" in2="effect1_dropShadow" result="shape"/>
</filter>
<linearGradient id="paint0_linear" x1="7.39884" y1="104.682" x2="178.555" y2="103.642" gradientUnits="userSpaceOnUse">
<stop stop-color="#44AB96"/>
<stop offset="1" stop-color="#4484AB"/>
</linearGradient>
<linearGradient id="paint1_linear" x1="50" y1="100" x2="150" y2="100" gradientUnits="userSpaceOnUse">
<stop stop-color="#44AB96"/>
<stop offset="1" stop-color="#4484AB"/>
</linearGradient>
</defs>
</svg>
