<svg width="200" height="200" viewBox="0 0 200 200" fill="none" xmlns="http://www.w3.org/2000/svg">
<g filter="url(#filter0_d)">
<circle cx="100" cy="99.5549" r="90" stroke="url(#paint0_linear)" stroke-width="5"/>
</g>
<path d="M56.8182 50C53.0796 50 50 53.0796 50 56.8182V79.5455C50 83.284 53.0796 86.3636 56.8182 86.3636H63.6364V90.9091C63.6321 91.2103 63.6877 91.5093 63.8 91.7887C63.9124 92.0682 64.0791 92.3226 64.2905 92.5371C64.502 92.7515 64.754 92.9218 65.0318 93.0381C65.3097 93.1543 65.6079 93.2142 65.9091 93.2142C66.2103 93.2142 66.5085 93.1543 66.7863 93.0381C67.0642 92.9218 67.3162 92.7515 67.5276 92.5371C67.7391 92.3226 67.9058 92.0682 68.0181 91.7887C68.1304 91.5093 68.1861 91.2103 68.1818 90.9091V86.3636H79.5455C83.284 86.3636 86.3636 83.284 86.3636 79.5455V70.4545H97.7273C98.0284 70.4588 98.3274 70.4032 98.6069 70.2909C98.8864 70.1786 99.1408 70.0118 99.3552 69.8004C99.5697 69.5889 99.74 69.3369 99.8563 69.0591C99.9725 68.7812 100.032 68.483 100.032 68.1818C100.032 67.8806 99.9725 67.5824 99.8563 67.3046C99.74 67.0267 99.5697 66.7747 99.3552 66.5633C99.1408 66.3518 98.8864 66.1851 98.6069 66.0728C98.3274 65.9605 98.0284 65.9048 97.7273 65.9091H86.3636V56.8182C86.3636 53.0796 83.284 50 79.5455 50H56.8182ZM120.455 50C116.716 50 113.636 53.0796 113.636 56.8182V65.9091H106.818C106.517 65.9048 106.218 65.9605 105.939 66.0728C105.659 66.1851 105.405 66.3518 105.19 66.5633C104.976 66.7747 104.805 67.0267 104.689 67.3046C104.573 67.5824 104.513 67.8806 104.513 68.1818C104.513 68.483 104.573 68.7812 104.689 69.0591C104.805 69.3369 104.976 69.5889 105.19 69.8004C105.405 70.0118 105.659 70.1786 105.939 70.2909C106.218 70.4032 106.517 70.4588 106.818 70.4545H113.636V79.5455C113.636 83.284 116.716 86.3636 120.455 86.3636H129.545V97.7273C129.541 98.0284 129.597 98.3274 129.709 98.6069C129.821 98.8864 129.988 99.1408 130.2 99.3552C130.411 99.5697 130.663 99.74 130.941 99.8563C131.219 99.9725 131.517 100.032 131.818 100.032C132.119 100.032 132.418 99.9725 132.695 99.8563C132.973 99.74 133.225 99.5697 133.437 99.3552C133.648 99.1408 133.815 98.8864 133.927 98.6069C134.04 98.3274 134.095 98.0284 134.091 97.7273V86.3636H143.182C146.92 86.3636 150 83.284 150 79.5455V56.8182C150 53.0796 146.92 50 143.182 50H120.455ZM56.8182 54.5455H79.5455C80.8296 54.5455 81.8182 55.534 81.8182 56.8182V67.8001C81.7776 68.0455 81.7776 68.2959 81.8182 68.5414V79.5455C81.8182 80.8296 80.8296 81.8182 79.5455 81.8182H66.2598C66.1322 81.7969 66.003 81.7865 65.8736 81.7871C65.7635 81.7895 65.6537 81.7999 65.5451 81.8182H56.8182C55.534 81.8182 54.5455 80.8296 54.5455 79.5455V56.8182C54.5455 55.534 55.534 54.5455 56.8182 54.5455ZM120.455 54.5455H143.182C144.466 54.5455 145.455 55.534 145.455 56.8182V79.5455C145.455 80.8296 144.466 81.8182 143.182 81.8182H132.169C132.041 81.7969 131.912 81.7865 131.783 81.7871C131.673 81.7895 131.563 81.7999 131.454 81.8182H120.455C119.17 81.8182 118.182 80.8296 118.182 79.5455V56.8182C118.182 55.534 119.17 54.5455 120.455 54.5455ZM65.8736 97.6962C65.2716 97.7056 64.6979 97.9535 64.2785 98.3854C63.8591 98.8173 63.6281 99.398 63.6364 100V113.636H56.8182C53.0796 113.636 50 116.716 50 120.455V143.182C50 146.92 53.0796 150 56.8182 150H79.5455C83.284 150 86.3636 146.92 86.3636 143.182V134.091H93.1818C93.483 134.095 93.782 134.04 94.0615 133.927C94.3409 133.815 94.5953 133.648 94.8098 133.437C95.0243 133.225 95.1946 132.973 95.3108 132.695C95.4271 132.418 95.4869 132.119 95.4869 131.818C95.4869 131.517 95.4271 131.219 95.3108 130.941C95.1946 130.663 95.0243 130.411 94.8098 130.2C94.5953 129.988 94.3409 129.821 94.0615 129.709C93.782 129.597 93.483 129.541 93.1818 129.545H86.3636V120.455C86.3636 116.716 83.284 113.636 79.5455 113.636H68.1818V100C68.186 99.6959 68.1291 99.3941 68.0145 99.1124C67.8999 98.8308 67.73 98.5749 67.5148 98.3601C67.2995 98.1453 67.0434 97.9758 66.7615 97.8618C66.4796 97.7478 66.1776 97.6915 65.8736 97.6962ZM131.783 104.514C131.181 104.524 130.607 104.772 130.188 105.204C129.768 105.635 129.537 106.216 129.545 106.818V111.364H120.455C116.716 111.364 113.636 114.443 113.636 118.182V129.545H102.273C101.972 129.541 101.673 129.597 101.393 129.709C101.114 129.821 100.859 129.988 100.645 130.2C100.43 130.411 100.26 130.663 100.144 130.941C100.027 131.219 99.9676 131.517 99.9676 131.818C99.9676 132.119 100.027 132.418 100.144 132.695C100.26 132.973 100.43 133.225 100.645 133.437C100.859 133.648 101.114 133.815 101.393 133.927C101.673 134.04 101.972 134.095 102.273 134.091H113.636V140.909C113.636 144.648 116.716 147.727 120.455 147.727H143.182C146.92 147.727 150 144.648 150 140.909V118.182C150 114.443 146.92 111.364 143.182 111.364H134.091V106.818C134.095 106.514 134.038 106.212 133.924 105.931C133.809 105.649 133.639 105.393 133.424 105.178C133.209 104.963 132.952 104.794 132.671 104.68C132.389 104.566 132.087 104.51 131.783 104.514ZM120.455 115.909H131.436C131.682 115.95 131.932 115.95 132.178 115.909H143.182C144.466 115.909 145.455 116.898 145.455 118.182V140.909C145.455 142.193 144.466 143.182 143.182 143.182H120.455C119.17 143.182 118.182 142.193 118.182 140.909V132.2C118.222 131.954 118.222 131.704 118.182 131.459V118.182C118.182 116.898 119.17 115.909 120.455 115.909ZM56.8182 118.182H79.5455C80.8296 118.182 81.8182 119.17 81.8182 120.455V143.182C81.8182 144.466 80.8296 145.455 79.5455 145.455H56.8182C55.534 145.455 54.5455 144.466 54.5455 143.182V120.455C54.5455 119.17 55.534 118.182 56.8182 118.182Z" fill="url(#paint1_linear)"/>
<defs>
<filter id="filter0_d" x="0.5" y="0.0549316" width="199" height="199" filterUnits="userSpaceOnUse" color-interpolation-filters="sRGB">
<feFlood flood-opacity="0" result="BackgroundImageFix"/>
<feColorMatrix in="SourceAlpha" type="matrix" values="0 0 0 0 0 0 0 0 0 0 0 0 0 0 0 0 0 0 127 0"/>
<feMorphology radius="1" operator="dilate" in="SourceAlpha" result="effect1_dropShadow"/>
<feOffset/>
<feGaussianBlur stdDeviation="3"/>
<feColorMatrix type="matrix" values="0 0 0 0 0 0 0 0 0 0 0 0 0 0 0 0 0 0 0.25 0"/>
<feBlend mode="normal" in2="BackgroundImageFix" result="effect1_dropShadow"/>
<feBlend mode="normal" in="SourceGraphic" in2="effect1_dropShadow" result="shape"/>
</filter>
<linearGradient id="paint0_linear" x1="7.39884" y1="104.237" x2="178.555" y2="103.197" gradientUnits="userSpaceOnUse">
<stop stop-color="#44AB96"/>
<stop offset="1" stop-color="#4484AB"/>
</linearGradient>
<linearGradient id="paint1_linear" x1="50" y1="100" x2="150" y2="100" gradientUnits="userSpaceOnUse">
<stop stop-color="#44AB96"/>
<stop offset="1" stop-color="#4484AB"/>
</linearGradient>
</defs>
</svg>
