<svg width="200" height="200" viewBox="0 0 200 200" fill="none" xmlns="http://www.w3.org/2000/svg">
<g filter="url(#filter0_d)">
<circle cx="99.8027" cy="99.5549" r="90" stroke="url(#paint0_linear)" stroke-width="5"/>
</g>
<path d="M90.335 57.214C89.8434 57.2312 89.3781 57.4263 89.0369 57.7582C88.6957 58.0902 88.5052 58.5332 88.5055 58.994V75.014H63.8055C60.68 75.014 58.1055 77.426 58.1055 80.3541V133.754C58.1055 134.057 58.1883 134.356 58.346 134.621C58.5037 134.886 58.7311 135.109 59.0066 135.268C59.2821 135.428 59.5966 135.519 59.9201 135.532C60.2437 135.546 60.5656 135.482 60.8553 135.346L63.8055 133.963L66.7557 135.346C67.0195 135.47 67.3105 135.534 67.6055 135.534C67.9005 135.534 68.1914 135.47 68.4553 135.346L71.4055 133.963L74.3557 135.346C74.6195 135.47 74.9105 135.534 75.2055 135.534C75.5005 135.534 75.7914 135.47 76.0553 135.346L79.0055 133.963L81.9557 135.346C82.2195 135.47 82.5105 135.534 82.8055 135.534C83.1005 135.534 83.3914 135.47 83.6553 135.346L86.6055 133.963L89.5557 135.346C89.8195 135.47 90.1105 135.534 90.4055 135.534C90.7005 135.534 90.9914 135.47 91.2553 135.346L94.2055 133.963L97.1557 135.346C97.4454 135.482 97.7673 135.546 98.0908 135.532C98.4144 135.519 98.7288 135.428 99.0043 135.268C99.2798 135.109 99.5072 134.886 99.6649 134.621C99.8227 134.356 99.9055 134.057 99.9055 133.754V124.854H132.205C137.43 124.854 141.705 120.848 141.705 115.954V92.8141C141.705 87.9199 137.43 83.9141 132.205 83.9141H107.505V80.3541C107.505 77.9323 105.574 76.1994 103.197 75.5564C103.017 75.3819 102.8 75.2437 102.561 75.1504C102.322 75.0572 102.065 75.0108 101.805 75.014H92.3055V61.8726L93.3557 62.3663C93.6195 62.4899 93.9105 62.5543 94.2055 62.5543C94.5005 62.5543 94.7914 62.4899 95.0553 62.3663L98.0055 60.9826L100.956 62.3663C101.22 62.4899 101.51 62.5543 101.805 62.5543C102.1 62.5543 102.391 62.4899 102.655 62.3663L105.605 60.9826L108.556 62.3663C108.82 62.4899 109.11 62.5543 109.405 62.5543C109.7 62.5543 109.991 62.4899 110.255 62.3663L113.205 60.9826L116.156 62.3663C116.42 62.4899 116.71 62.5543 117.005 62.5543C117.3 62.5543 117.591 62.4899 117.855 62.3663L120.805 60.9826L123.756 62.3663C124.02 62.4899 124.31 62.5543 124.605 62.5543C124.9 62.5543 125.191 62.4899 125.455 62.3663L126.505 61.8726V80.3541H130.305V58.994C130.305 58.6906 130.223 58.3922 130.065 58.1272C129.907 57.8622 129.68 57.6394 129.404 57.4798C129.129 57.3203 128.814 57.2294 128.491 57.2157C128.167 57.2021 127.845 57.2661 127.556 57.4018L124.605 58.7855L121.655 57.4018C121.391 57.2782 121.1 57.2138 120.805 57.2138C120.51 57.2138 120.22 57.2782 119.956 57.4018L117.005 58.7855L114.055 57.4018C113.791 57.2782 113.5 57.2138 113.205 57.2138C112.91 57.2138 112.62 57.2782 112.356 57.4018L109.405 58.7855L106.455 57.4018C106.191 57.2782 105.9 57.2138 105.605 57.2138C105.31 57.2138 105.02 57.2782 104.756 57.4018L101.805 58.7855L98.8553 57.4018C98.5914 57.2782 98.3005 57.2138 98.0055 57.2138C97.7105 57.2138 97.4195 57.2782 97.1557 57.4018L94.2055 58.7855L91.2553 57.4018C90.9702 57.2678 90.6537 57.2033 90.335 57.214ZM98.0055 67.894C97.7537 67.8907 97.5037 67.9343 97.2701 68.0222C97.0364 68.1102 96.8238 68.2408 96.6445 68.4064C96.4652 68.572 96.3228 68.7694 96.2256 68.987C96.1284 69.2046 96.0784 69.4382 96.0784 69.674C96.0784 69.9099 96.1284 70.1435 96.2256 70.3611C96.3228 70.5787 96.4652 70.7761 96.6445 70.9417C96.8238 71.1073 97.0364 71.2379 97.2701 71.3259C97.5037 71.4138 97.7537 71.4574 98.0055 71.4541H107.505C107.757 71.4574 108.007 71.4138 108.241 71.3259C108.474 71.2379 108.687 71.1073 108.866 70.9417C109.046 70.7761 109.188 70.5787 109.285 70.3611C109.382 70.1435 109.433 69.9099 109.433 69.674C109.433 69.4382 109.382 69.2046 109.285 68.987C109.188 68.7694 109.046 68.572 108.866 68.4064C108.687 68.2408 108.474 68.1102 108.241 68.0222C108.007 67.9343 107.757 67.8907 107.505 67.894H98.0055ZM117.005 67.894C116.754 67.8907 116.504 67.9343 116.27 68.0222C116.036 68.1102 115.824 68.2408 115.644 68.4064C115.465 68.572 115.323 68.7694 115.226 68.987C115.128 69.2046 115.078 69.4382 115.078 69.674C115.078 69.9099 115.128 70.1435 115.226 70.3611C115.323 70.5787 115.465 70.7761 115.644 70.9417C115.824 71.1073 116.036 71.2379 116.27 71.3259C116.504 71.4138 116.754 71.4574 117.005 71.4541H120.805C121.057 71.4574 121.307 71.4138 121.541 71.3259C121.774 71.2379 121.987 71.1073 122.166 70.9417C122.346 70.7761 122.488 70.5787 122.585 70.3611C122.682 70.1435 122.733 69.9099 122.733 69.674C122.733 69.4382 122.682 69.2046 122.585 68.987C122.488 68.7694 122.346 68.572 122.166 68.4064C121.987 68.2408 121.774 68.1102 121.541 68.0222C121.307 67.9343 121.057 67.8907 120.805 67.894H117.005ZM117.005 75.014C116.754 75.0107 116.504 75.0543 116.27 75.1422C116.036 75.2302 115.824 75.3608 115.644 75.5264C115.465 75.692 115.323 75.8894 115.226 76.107C115.128 76.3246 115.078 76.5582 115.078 76.7941C115.078 77.0299 115.128 77.2635 115.226 77.4811C115.323 77.6987 115.465 77.8961 115.644 78.0617C115.824 78.2273 116.036 78.3579 116.27 78.4459C116.504 78.5338 116.754 78.5774 117.005 78.5741H120.805C121.057 78.5774 121.307 78.5338 121.541 78.4459C121.774 78.3579 121.987 78.2273 122.166 78.0617C122.346 77.8961 122.488 77.6987 122.585 77.4811C122.682 77.2635 122.733 77.0299 122.733 76.7941C122.733 76.5582 122.682 76.3246 122.585 76.107C122.488 75.8894 122.346 75.692 122.166 75.5264C121.987 75.3608 121.774 75.2302 121.541 75.1422C121.307 75.0543 121.057 75.0107 120.805 75.014H117.005ZM63.8055 78.5741H96.8959C96.6355 79.1828 96.1055 79.6628 96.1055 80.3541V130.875L95.0553 130.382C94.7914 130.258 94.5005 130.194 94.2055 130.194C93.9105 130.194 93.6195 130.258 93.3557 130.382L90.4055 131.765L87.4553 130.382C87.1914 130.258 86.9005 130.194 86.6055 130.194C86.3105 130.194 86.0195 130.258 85.7557 130.382L82.8055 131.765L79.8553 130.382C79.5914 130.258 79.3005 130.194 79.0055 130.194C78.7105 130.194 78.4195 130.258 78.1557 130.382L75.2055 131.765L72.2553 130.382C71.9914 130.258 71.7005 130.194 71.4055 130.194C71.1105 130.194 70.8195 130.258 70.5557 130.382L67.6055 131.765L64.6553 130.382C64.3914 130.258 64.1005 130.194 63.8055 130.194C63.5105 130.194 63.2195 130.258 62.9557 130.382L61.9055 130.875V80.3541C61.9055 79.3483 62.7319 78.5741 63.8055 78.5741ZM101.805 78.5741C102.879 78.5741 103.705 79.3483 103.705 80.3541V83.9141H99.9055V80.3541C99.9055 79.3483 100.732 78.5741 101.805 78.5741ZM99.9055 87.4741H132.205C135.376 87.4741 137.905 89.8442 137.905 92.8141V94.5941H99.9055V87.4741ZM67.6055 91.0341C67.3537 91.0307 67.1037 91.0743 66.8701 91.1623C66.6364 91.2502 66.4238 91.3808 66.2445 91.5464C66.0652 91.712 65.9228 91.9094 65.8256 92.127C65.7285 92.3446 65.6784 92.5782 65.6784 92.8141C65.6784 93.0499 65.7285 93.2835 65.8256 93.5011C65.9228 93.7187 66.0652 93.9161 66.2445 94.0817C66.4238 94.2473 66.6364 94.3779 66.8701 94.4659C67.1037 94.5538 67.3537 94.5974 67.6055 94.5941H77.1055C77.3572 94.5974 77.6072 94.5538 77.8408 94.4659C78.0745 94.3779 78.2871 94.2473 78.4664 94.0817C78.6457 93.9161 78.7881 93.7187 78.8853 93.5011C78.9825 93.2835 79.0325 93.0499 79.0325 92.8141C79.0325 92.5782 78.9825 92.3446 78.8853 92.127C78.7881 91.9094 78.6457 91.712 78.4664 91.5464C78.2871 91.3808 78.0745 91.2502 77.8408 91.1623C77.6072 91.0743 77.3572 91.0307 77.1055 91.0341H67.6055ZM86.6055 91.0341C86.3537 91.0307 86.1037 91.0743 85.8701 91.1623C85.6364 91.2502 85.4238 91.3808 85.2445 91.5464C85.0652 91.712 84.9228 91.9094 84.8256 92.127C84.7284 92.3446 84.6784 92.5782 84.6784 92.8141C84.6784 93.0499 84.7284 93.2835 84.8256 93.5011C84.9228 93.7187 85.0652 93.9161 85.2445 94.0817C85.4238 94.2473 85.6364 94.3779 85.8701 94.4659C86.1037 94.5538 86.3537 94.5974 86.6055 94.5941H90.4055C90.6572 94.5974 90.9072 94.5538 91.1408 94.4659C91.3745 94.3779 91.5871 94.2473 91.7664 94.0817C91.9457 93.9161 92.0881 93.7187 92.1853 93.5011C92.2825 93.2835 92.3325 93.0499 92.3325 92.8141C92.3325 92.5782 92.2825 92.3446 92.1853 92.127C92.0881 91.9094 91.9457 91.712 91.7664 91.5464C91.5871 91.3808 91.3745 91.2502 91.1408 91.1623C90.9072 91.0743 90.6572 91.0307 90.4055 91.0341H86.6055ZM67.6055 98.1541C67.3537 98.1507 67.1037 98.1943 66.8701 98.2823C66.6364 98.3702 66.4238 98.5008 66.2445 98.6664C66.0652 98.832 65.9228 99.0294 65.8256 99.247C65.7285 99.4646 65.6784 99.6982 65.6784 99.9341C65.6784 100.17 65.7285 100.403 65.8256 100.621C65.9228 100.839 66.0652 101.036 66.2445 101.202C66.4238 101.367 66.6364 101.498 66.8701 101.586C67.1037 101.674 67.3537 101.717 67.6055 101.714H71.4055C71.6572 101.717 71.9072 101.674 72.1408 101.586C72.3745 101.498 72.5871 101.367 72.7664 101.202C72.9457 101.036 73.0881 100.839 73.1853 100.621C73.2825 100.403 73.3325 100.17 73.3325 99.9341C73.3325 99.6982 73.2825 99.4646 73.1853 99.247C73.0881 99.0294 72.9457 98.832 72.7664 98.6664C72.5871 98.5008 72.3745 98.3702 72.1408 98.2823C71.9072 98.1943 71.6572 98.1507 71.4055 98.1541H67.6055ZM86.6055 98.1541C86.3537 98.1507 86.1037 98.1943 85.8701 98.2823C85.6364 98.3702 85.4238 98.5008 85.2445 98.6664C85.0652 98.832 84.9228 99.0294 84.8256 99.247C84.7284 99.4646 84.6784 99.6982 84.6784 99.9341C84.6784 100.17 84.7284 100.403 84.8256 100.621C84.9228 100.839 85.0652 101.036 85.2445 101.202C85.4238 101.367 85.6364 101.498 85.8701 101.586C86.1037 101.674 86.3537 101.717 86.6055 101.714H90.4055C90.6572 101.717 90.9072 101.674 91.1408 101.586C91.3745 101.498 91.5871 101.367 91.7664 101.202C91.9457 101.036 92.0881 100.839 92.1853 100.621C92.2825 100.403 92.3325 100.17 92.3325 99.9341C92.3325 99.6982 92.2825 99.4646 92.1853 99.247C92.0881 99.0294 91.9457 98.832 91.7664 98.6664C91.5871 98.5008 91.3745 98.3702 91.1408 98.2823C90.9072 98.1943 90.6572 98.1507 90.4055 98.1541H86.6055ZM99.9055 101.714H137.905V115.954C137.905 118.924 135.376 121.294 132.205 121.294H99.9055V101.714ZM67.6055 105.274C67.3537 105.271 67.1037 105.314 66.8701 105.402C66.6364 105.49 66.4238 105.621 66.2445 105.786C66.0652 105.952 65.9228 106.149 65.8256 106.367C65.7285 106.585 65.6784 106.818 65.6784 107.054C65.6784 107.29 65.7285 107.523 65.8256 107.741C65.9228 107.959 66.0652 108.156 66.2445 108.322C66.4238 108.487 66.6364 108.618 66.8701 108.706C67.1037 108.794 67.3537 108.837 67.6055 108.834H77.1055C77.3572 108.837 77.6072 108.794 77.8408 108.706C78.0745 108.618 78.2871 108.487 78.4664 108.322C78.6457 108.156 78.7881 107.959 78.8853 107.741C78.9825 107.523 79.0325 107.29 79.0325 107.054C79.0325 106.818 78.9825 106.585 78.8853 106.367C78.7881 106.149 78.6457 105.952 78.4664 105.786C78.2871 105.621 78.0745 105.49 77.8408 105.402C77.6072 105.314 77.3572 105.271 77.1055 105.274H67.6055ZM86.6055 105.274C86.3537 105.271 86.1037 105.314 85.8701 105.402C85.6364 105.49 85.4238 105.621 85.2445 105.786C85.0652 105.952 84.9228 106.149 84.8256 106.367C84.7284 106.585 84.6784 106.818 84.6784 107.054C84.6784 107.29 84.7284 107.523 84.8256 107.741C84.9228 107.959 85.0652 108.156 85.2445 108.322C85.4238 108.487 85.6364 108.618 85.8701 108.706C86.1037 108.794 86.3537 108.837 86.6055 108.834H90.4055C90.6572 108.837 90.9072 108.794 91.1408 108.706C91.3745 108.618 91.5871 108.487 91.7664 108.322C91.9457 108.156 92.0881 107.959 92.1853 107.741C92.2825 107.523 92.3325 107.29 92.3325 107.054C92.3325 106.818 92.2825 106.585 92.1853 106.367C92.0881 106.149 91.9457 105.952 91.7664 105.786C91.5871 105.621 91.3745 105.49 91.1408 105.402C90.9072 105.314 90.6572 105.271 90.4055 105.274H86.6055ZM67.6055 112.394C67.3537 112.391 67.1037 112.434 66.8701 112.522C66.6364 112.61 66.4238 112.741 66.2445 112.906C66.0652 113.072 65.9228 113.269 65.8256 113.487C65.7285 113.705 65.6784 113.938 65.6784 114.174C65.6784 114.41 65.7285 114.643 65.8256 114.861C65.9228 115.079 66.0652 115.276 66.2445 115.442C66.4238 115.607 66.6364 115.738 66.8701 115.826C67.1037 115.914 67.3537 115.957 67.6055 115.954H73.3055C73.5572 115.957 73.8072 115.914 74.0408 115.826C74.2745 115.738 74.4871 115.607 74.6664 115.442C74.8457 115.276 74.9881 115.079 75.0853 114.861C75.1825 114.643 75.2325 114.41 75.2325 114.174C75.2325 113.938 75.1825 113.705 75.0853 113.487C74.9881 113.269 74.8457 113.072 74.6664 112.906C74.4871 112.741 74.2745 112.61 74.0408 112.522C73.8072 112.434 73.5572 112.391 73.3055 112.394H67.6055ZM86.6055 112.394C86.3537 112.391 86.1037 112.434 85.8701 112.522C85.6364 112.61 85.4238 112.741 85.2445 112.906C85.0652 113.072 84.9228 113.269 84.8256 113.487C84.7284 113.705 84.6784 113.938 84.6784 114.174C84.6784 114.41 84.7284 114.643 84.8256 114.861C84.9228 115.079 85.0652 115.276 85.2445 115.442C85.4238 115.607 85.6364 115.738 85.8701 115.826C86.1037 115.914 86.3537 115.957 86.6055 115.954H90.4055C90.6572 115.957 90.9072 115.914 91.1408 115.826C91.3745 115.738 91.5871 115.607 91.7664 115.442C91.9457 115.276 92.0881 115.079 92.1853 114.861C92.2825 114.643 92.3325 114.41 92.3325 114.174C92.3325 113.938 92.2825 113.705 92.1853 113.487C92.0881 113.269 91.9457 113.072 91.7664 112.906C91.5871 112.741 91.3745 112.61 91.1408 112.522C90.9072 112.434 90.6572 112.391 90.4055 112.394H86.6055Z" fill="url(#paint1_linear)"/>
<defs>
<filter id="filter0_d" x="0.302734" y="0.0549316" width="199" height="199" filterUnits="userSpaceOnUse" color-interpolation-filters="sRGB">
<feFlood flood-opacity="0" result="BackgroundImageFix"/>
<feColorMatrix in="SourceAlpha" type="matrix" values="0 0 0 0 0 0 0 0 0 0 0 0 0 0 0 0 0 0 127 0"/>
<feMorphology radius="1" operator="dilate" in="SourceAlpha" result="effect1_dropShadow"/>
<feOffset/>
<feGaussianBlur stdDeviation="3"/>
<feColorMatrix type="matrix" values="0 0 0 0 0 0 0 0 0 0 0 0 0 0 0 0 0 0 0.25 0"/>
<feBlend mode="normal" in2="BackgroundImageFix" result="effect1_dropShadow"/>
<feBlend mode="normal" in="SourceGraphic" in2="effect1_dropShadow" result="shape"/>
</filter>
<linearGradient id="paint0_linear" x1="7.20158" y1="104.237" x2="178.358" y2="103.197" gradientUnits="userSpaceOnUse">
<stop stop-color="#44AB96"/>
<stop offset="1" stop-color="#4484AB"/>
</linearGradient>
<linearGradient id="paint1_linear" x1="56.4386" y1="102.251" x2="142.028" y2="102.251" gradientUnits="userSpaceOnUse">
<stop stop-color="#44AB96"/>
<stop offset="1" stop-color="#4484AB"/>
</linearGradient>
</defs>
</svg>
