<svg width="200" height="200" viewBox="0 0 200 200" fill="none" xmlns="http://www.w3.org/2000/svg">
<g filter="url(#filter0_d)">
<circle cx="100" cy="99.5532" r="90" stroke="url(#paint0_linear)" stroke-width="5"/>
</g>
<path d="M107.286 56C104.084 56 101.457 58.6276 101.457 61.8305V85.1525C101.457 88.3554 104.084 90.9831 107.286 90.9831H114.571V100.332L123.918 90.9831H145.171C148.373 90.9831 151 88.3554 151 85.1525V61.8305C151 58.6276 148.373 56 145.171 56H107.286ZM107.286 58.9153H145.171C146.799 58.9153 148.086 60.2028 148.086 61.8305V85.1525C148.086 86.7802 146.799 88.0678 145.171 88.0678H122.711L117.486 93.2948V88.0678H107.286C105.659 88.0678 104.371 86.7802 104.371 85.1525V61.8305C104.371 60.2028 105.659 58.9153 107.286 58.9153ZM51.9143 63.2881C50.3215 63.2881 49 64.6101 49 66.2034V124.508C49 126.102 50.3215 127.424 51.9143 127.424H85.4286V133.254H81.0571C77.8553 133.254 75.2286 135.882 75.2286 139.085V142H118.943V139.085C118.943 135.882 116.316 133.254 113.114 133.254H108.743V127.424H142.257C143.85 127.424 145.171 126.102 145.171 124.508V95.3559H142.257V124.508H108.743H85.4286H51.9143V66.2034H97.0857V63.2881H51.9143ZM114.571 70.5763C113.799 70.5763 113.057 70.8834 112.511 71.4301C111.964 71.9768 111.657 72.7184 111.657 73.4915C111.657 74.2647 111.964 75.0062 112.511 75.5529C113.057 76.0996 113.799 76.4068 114.571 76.4068C115.344 76.4068 116.086 76.0996 116.632 75.5529C117.179 75.0062 117.486 74.2647 117.486 73.4915C117.486 72.7184 117.179 71.9768 116.632 71.4301C116.086 70.8834 115.344 70.5763 114.571 70.5763ZM126.229 70.5763C125.456 70.5763 124.714 70.8834 124.168 71.4301C123.621 71.9768 123.314 72.7184 123.314 73.4915C123.314 74.2647 123.621 75.0062 124.168 75.5529C124.714 76.0996 125.456 76.4068 126.229 76.4068C127.001 76.4068 127.743 76.0996 128.289 75.5529C128.836 75.0062 129.143 74.2647 129.143 73.4915C129.143 72.7184 128.836 71.9768 128.289 71.4301C127.743 70.8834 127.001 70.5763 126.229 70.5763ZM137.886 70.5763C137.113 70.5763 136.372 70.8834 135.825 71.4301C135.278 71.9768 134.971 72.7184 134.971 73.4915C134.971 74.2647 135.278 75.0062 135.825 75.5529C136.372 76.0996 137.113 76.4068 137.886 76.4068C138.659 76.4068 139.4 76.0996 139.946 75.5529C140.493 75.0062 140.8 74.2647 140.8 73.4915C140.8 72.7184 140.493 71.9768 139.946 71.4301C139.4 70.8834 138.659 70.5763 137.886 70.5763ZM56.2857 115.763C55.8993 115.763 55.5286 115.916 55.2554 116.19C54.9821 116.463 54.8286 116.834 54.8286 117.22C54.8286 117.607 54.9821 117.978 55.2554 118.251C55.5286 118.524 55.8993 118.678 56.2857 118.678C56.6722 118.678 57.0428 118.524 57.3161 118.251C57.5893 117.978 57.7429 117.607 57.7429 117.22C57.7429 116.834 57.5893 116.463 57.3161 116.19C57.0428 115.916 56.6722 115.763 56.2857 115.763ZM62.1143 115.763C61.7278 115.763 61.3572 115.916 61.0839 116.19C60.8107 116.463 60.6571 116.834 60.6571 117.22C60.6571 117.607 60.8107 117.978 61.0839 118.251C61.3572 118.524 61.7278 118.678 62.1143 118.678C62.5007 118.678 62.8714 118.524 63.1446 118.251C63.4179 117.978 63.5714 117.607 63.5714 117.22C63.5714 116.834 63.4179 116.463 63.1446 116.19C62.8714 115.916 62.5007 115.763 62.1143 115.763ZM67.9429 115.763C67.5564 115.763 67.1858 115.916 66.9125 116.19C66.6392 116.463 66.4857 116.834 66.4857 117.22C66.4857 117.607 66.6392 117.978 66.9125 118.251C67.1858 118.524 67.5564 118.678 67.9429 118.678C68.3293 118.678 68.6999 118.524 68.9732 118.251C69.2465 117.978 69.4 117.607 69.4 117.22C69.4 116.834 69.2465 116.463 68.9732 116.19C68.6999 115.916 68.3293 115.763 67.9429 115.763ZM73.7714 115.763C73.385 115.763 73.0143 115.916 72.7411 116.19C72.4678 116.463 72.3143 116.834 72.3143 117.22C72.3143 117.607 72.4678 117.978 72.7411 118.251C73.0143 118.524 73.385 118.678 73.7714 118.678C74.1579 118.678 74.5285 118.524 74.8018 118.251C75.0751 117.978 75.2286 117.607 75.2286 117.22C75.2286 116.834 75.0751 116.463 74.8018 116.19C74.5285 115.916 74.1579 115.763 73.7714 115.763ZM79.6 115.763C79.2135 115.763 78.8429 115.916 78.5696 116.19C78.2964 116.463 78.1429 116.834 78.1429 117.22C78.1429 117.607 78.2964 117.978 78.5696 118.251C78.8429 118.524 79.2135 118.678 79.6 118.678C79.9865 118.678 80.3571 118.524 80.6304 118.251C80.9036 117.978 81.0571 117.607 81.0571 117.22C81.0571 116.834 80.9036 116.463 80.6304 116.19C80.3571 115.916 79.9865 115.763 79.6 115.763ZM85.4286 115.763C85.0421 115.763 84.6715 115.916 84.3982 116.19C84.1249 116.463 83.9714 116.834 83.9714 117.22C83.9714 117.607 84.1249 117.978 84.3982 118.251C84.6715 118.524 85.0421 118.678 85.4286 118.678C85.815 118.678 86.1857 118.524 86.4589 118.251C86.7322 117.978 86.8857 117.607 86.8857 117.22C86.8857 116.834 86.7322 116.463 86.4589 116.19C86.1857 115.916 85.815 115.763 85.4286 115.763ZM91.2571 115.763C90.8707 115.763 90.5001 115.916 90.2268 116.19C89.9535 116.463 89.8 116.834 89.8 117.22C89.8 117.607 89.9535 117.978 90.2268 118.251C90.5001 118.524 90.8707 118.678 91.2571 118.678C91.6436 118.678 92.0142 118.524 92.2875 118.251C92.5608 117.978 92.7143 117.607 92.7143 117.22C92.7143 116.834 92.5608 116.463 92.2875 116.19C92.0142 115.916 91.6436 115.763 91.2571 115.763ZM97.0857 115.763C96.6993 115.763 96.3286 115.916 96.0554 116.19C95.7821 116.463 95.6286 116.834 95.6286 117.22C95.6286 117.607 95.7821 117.978 96.0554 118.251C96.3286 118.524 96.6993 118.678 97.0857 118.678C97.4722 118.678 97.8428 118.524 98.1161 118.251C98.3893 117.978 98.5429 117.607 98.5429 117.22C98.5429 116.834 98.3893 116.463 98.1161 116.19C97.8428 115.916 97.4722 115.763 97.0857 115.763ZM102.914 115.763C102.528 115.763 102.157 115.916 101.884 116.19C101.611 116.463 101.457 116.834 101.457 117.22C101.457 117.607 101.611 117.978 101.884 118.251C102.157 118.524 102.528 118.678 102.914 118.678C103.301 118.678 103.671 118.524 103.945 118.251C104.218 117.978 104.371 117.607 104.371 117.22C104.371 116.834 104.218 116.463 103.945 116.19C103.671 115.916 103.301 115.763 102.914 115.763ZM108.743 115.763C108.356 115.763 107.986 115.916 107.712 116.19C107.439 116.463 107.286 116.834 107.286 117.22C107.286 117.607 107.439 117.978 107.712 118.251C107.986 118.524 108.356 118.678 108.743 118.678C109.129 118.678 109.5 118.524 109.773 118.251C110.046 117.978 110.2 117.607 110.2 117.22C110.2 116.834 110.046 116.463 109.773 116.19C109.5 115.916 109.129 115.763 108.743 115.763ZM114.571 115.763C114.185 115.763 113.814 115.916 113.541 116.19C113.268 116.463 113.114 116.834 113.114 117.22C113.114 117.607 113.268 117.978 113.541 118.251C113.814 118.524 114.185 118.678 114.571 118.678C114.958 118.678 115.329 118.524 115.602 118.251C115.875 117.978 116.029 117.607 116.029 117.22C116.029 116.834 115.875 116.463 115.602 116.19C115.329 115.916 114.958 115.763 114.571 115.763ZM120.4 115.763C120.014 115.763 119.643 115.916 119.37 116.19C119.096 116.463 118.943 116.834 118.943 117.22C118.943 117.607 119.096 117.978 119.37 118.251C119.643 118.524 120.014 118.678 120.4 118.678C120.786 118.678 121.157 118.524 121.43 118.251C121.704 117.978 121.857 117.607 121.857 117.22C121.857 116.834 121.704 116.463 121.43 116.19C121.157 115.916 120.786 115.763 120.4 115.763ZM126.229 115.763C125.842 115.763 125.471 115.916 125.198 116.19C124.925 116.463 124.771 116.834 124.771 117.22C124.771 117.607 124.925 117.978 125.198 118.251C125.471 118.524 125.842 118.678 126.229 118.678C126.615 118.678 126.986 118.524 127.259 118.251C127.532 117.978 127.686 117.607 127.686 117.22C127.686 116.834 127.532 116.463 127.259 116.19C126.986 115.916 126.615 115.763 126.229 115.763ZM132.057 115.763C131.671 115.763 131.3 115.916 131.027 116.19C130.754 116.463 130.6 116.834 130.6 117.22C130.6 117.607 130.754 117.978 131.027 118.251C131.3 118.524 131.671 118.678 132.057 118.678C132.444 118.678 132.814 118.524 133.088 118.251C133.361 117.978 133.514 117.607 133.514 117.22C133.514 116.834 133.361 116.463 133.088 116.19C132.814 115.916 132.444 115.763 132.057 115.763ZM137.886 115.763C137.499 115.763 137.129 115.916 136.855 116.19C136.582 116.463 136.429 116.834 136.429 117.22C136.429 117.607 136.582 117.978 136.855 118.251C137.129 118.524 137.499 118.678 137.886 118.678C138.272 118.678 138.643 118.524 138.916 118.251C139.189 117.978 139.343 117.607 139.343 117.22C139.343 116.834 139.189 116.463 138.916 116.19C138.643 115.916 138.272 115.763 137.886 115.763ZM88.3429 127.424H105.829V133.254H88.3429V127.424ZM81.0571 136.169H113.114C114.741 136.169 116.029 137.457 116.029 139.085H78.1429C78.1429 137.457 79.43 136.169 81.0571 136.169Z" fill="url(#paint1_linear)"/>
<defs>
<filter id="filter0_d" x="0.5" y="0.0532227" width="199" height="199" filterUnits="userSpaceOnUse" color-interpolation-filters="sRGB">
<feFlood flood-opacity="0" result="BackgroundImageFix"/>
<feColorMatrix in="SourceAlpha" type="matrix" values="0 0 0 0 0 0 0 0 0 0 0 0 0 0 0 0 0 0 127 0"/>
<feMorphology radius="1" operator="dilate" in="SourceAlpha" result="effect1_dropShadow"/>
<feOffset/>
<feGaussianBlur stdDeviation="3"/>
<feColorMatrix type="matrix" values="0 0 0 0 0 0 0 0 0 0 0 0 0 0 0 0 0 0 0.25 0"/>
<feBlend mode="normal" in2="BackgroundImageFix" result="effect1_dropShadow"/>
<feBlend mode="normal" in="SourceGraphic" in2="effect1_dropShadow" result="shape"/>
</filter>
<linearGradient id="paint0_linear" x1="7.39884" y1="104.235" x2="178.555" y2="103.195" gradientUnits="userSpaceOnUse">
<stop stop-color="#44AB96"/>
<stop offset="1" stop-color="#4484AB"/>
</linearGradient>
<linearGradient id="paint1_linear" x1="49" y1="99" x2="151" y2="99" gradientUnits="userSpaceOnUse">
<stop stop-color="#44AB96"/>
<stop offset="1" stop-color="#4484AB"/>
</linearGradient>
</defs>
</svg>
