<svg width="57" height="52" viewBox="0 0 57 52" fill="none" xmlns="http://www.w3.org/2000/svg">
<path d="M5.16667 0C2.31208 0 0 2.31208 0 5.16667V10.3333V18.0833V36.1667C0 39.0212 2.31208 41.3333 5.16667 41.3333H14.9399L16.0046 39.1082C16.0795 38.9506 16.6758 37.7606 17.8512 36.1667H5.16667V18.0833H46.5V26.9232C48.4297 27.4889 50.1451 28.2452 51.6667 29.1029V18.0833V10.3333V5.16667C51.6667 2.31208 49.3546 0 46.5 0H5.16667ZM5.16667 5.16667H46.5V10.3333H5.16667V5.16667ZM38.75 31C25.5983 31 20.6667 41.3333 20.6667 41.3333C20.6667 41.3333 25.5983 51.6667 38.75 51.6667C51.9017 51.6667 56.8333 41.3333 56.8333 41.3333C56.8333 41.3333 51.9017 31 38.75 31ZM38.75 36.1667C41.602 36.1667 43.9167 38.4813 43.9167 41.3333C43.9167 44.1853 41.602 46.5 38.75 46.5C35.898 46.5 33.5833 44.1853 33.5833 41.3333C33.5833 38.4813 35.898 36.1667 38.75 36.1667Z" fill="url(#paint0_linear)" fill-opacity="0.75"/>
<defs>
<linearGradient id="paint0_linear" x1="28.4167" y1="0" x2="28.4167" y2="51.6667" gradientUnits="userSpaceOnUse">
<stop stop-color="#ABDFFF" stop-opacity="0.5"/>
<stop offset="1" stop-color="#9996FF"/>
</linearGradient>
</defs>
</svg>
