<svg width="58" height="55" viewBox="0 0 58 55" fill="none" xmlns="http://www.w3.org/2000/svg">
<path d="M47.565 41.1772H43.4473V54.9029H46.1924V49.4126H47.565C49.838 49.4126 51.6827 47.5678 51.6827 45.2949C51.6827 43.0219 49.838 41.1772 47.565 41.1772ZM47.565 46.6674H46.1924V43.9223H47.565C48.3227 43.9223 48.9376 44.5372 48.9376 45.2949C48.9376 46.0525 48.3227 46.6674 47.565 46.6674ZM54.4278 41.1772H57.173V54.9029H54.4278V41.1772ZM37.7868 54.9029H40.7021L36.988 41.1772H33.4165L29.7216 54.9029H32.6095L33.3177 52.1577H37.0731L37.7868 54.9029ZM34.026 49.4126L35.1927 44.8913L36.3648 49.4126H34.026Z" fill="url(#paint0_linear)" fill-opacity="0.5"/>
<path d="M26.9765 35.6868C22.436 35.6868 18.7411 31.9919 18.7411 27.4514C18.7411 22.9109 22.436 19.216 26.9765 19.216C31.5169 19.216 35.2119 22.9109 35.2119 27.4514C35.2119 31.9919 31.5169 35.6868 26.9765 35.6868Z" fill="url(#paint1_linear)" fill-opacity="0.5"/>
<path d="M24.2313 44.9681L24.0282 43.9222L21.165 42.8406C19.4548 42.1955 17.9011 41.3034 16.5422 40.1888L14.1704 38.2453L8.89974 40.0626L7.01932 36.8041L11.2359 33.1366L10.7472 30.1252C10.5853 29.1177 10.5056 28.242 10.5056 27.4514C10.5056 26.6553 10.5853 25.7851 10.7472 24.7831L11.2359 21.7662L7.01658 18.0987L8.897 14.8402L14.1677 16.6575L16.545 14.7139C17.8983 13.5994 19.4548 12.71 21.1678 12.0649L24.0282 10.9806L25.0988 5.49028H28.8569L29.9275 10.9806L32.7907 12.0621C34.5009 12.7072 36.0547 13.5994 37.4135 14.7139L39.7853 16.6575L45.056 14.8402L46.9364 18.0987L42.7226 21.7635L43.2057 24.7776V24.7859C43.3677 25.7851 43.4473 26.6553 43.4473 27.4514C43.4473 28.2475 43.3677 29.1177 43.2057 30.1197L42.7171 33.1338L45.6517 35.6868H53.92L53.953 35.6292L48.6274 30.9954C48.836 29.7024 48.9376 28.544 48.9376 27.4514C48.9376 26.3588 48.836 25.2004 48.6246 23.9047L53.953 19.2709L47.5458 8.17502L40.8943 10.4645C39.0743 8.97111 37.0017 7.77972 34.7315 6.92324L33.3809 0H20.5721L19.2242 6.92873C16.9512 7.78521 14.8759 8.97661 13.0614 10.4672L6.40715 8.17777L0 19.2736L5.32831 23.9074C5.11694 25.2004 5.01537 26.3588 5.01537 27.4514C5.01537 28.5357 5.11694 29.6942 5.32557 30.9981L0 35.6319L6.40715 46.7278L13.0586 44.4383C14.8787 45.9317 16.9512 47.1231 19.2215 47.9795L20.5721 54.9028H24.2313V44.9681Z" fill="url(#paint2_linear)" fill-opacity="0.5"/>
<path opacity="0.3" d="M24.2313 35.6869H26.9765C22.4278 35.6869 18.7411 32.0001 18.7411 27.4514C18.7411 22.9027 22.4278 19.216 26.9765 19.216C31.5252 19.216 35.2119 22.9027 35.2119 27.4514C35.2119 32.0001 31.5252 35.6869 26.9765 35.6869H49.8325L45.6709 32.066L45.9152 30.5589C46.1019 29.4142 46.1925 28.3985 46.1925 27.4514C46.1925 26.5044 46.1019 25.4887 45.9152 24.3439L45.6736 22.8341L50.4447 18.6835L46.2995 11.5077L40.3371 13.561L39.1512 12.5892C37.5672 11.2881 35.7527 10.2449 33.757 9.49273L32.3268 8.95194L31.1189 2.74518H22.8341L21.6262 8.95468L20.196 9.49548C18.2003 10.2476 16.3857 11.2908 14.8018 12.592L13.6159 13.5638L7.65345 11.5104L3.50829 18.6862L8.28208 22.8369L8.03777 24.3439C7.8511 25.4887 7.76051 26.5044 7.76051 27.4514C7.76051 28.3985 7.8511 29.4142 8.03502 30.5617L8.27934 32.0688L3.50829 36.2194L7.65345 43.3952L13.6159 41.3418L14.8018 42.3136C16.3857 43.6148 18.2003 44.658 20.196 45.4101L21.6262 45.9509L22.8341 52.1577H24.2313V35.6869Z" fill="url(#paint3_linear)" fill-opacity="0.5"/>
<defs>
<linearGradient id="paint0_linear" x1="43.4473" y1="41.1772" x2="43.4473" y2="54.9029" gradientUnits="userSpaceOnUse">
<stop stop-color="#56000E" stop-opacity="0.53"/>
<stop offset="1" stop-opacity="0.65"/>
</linearGradient>
<linearGradient id="paint1_linear" x1="26.9765" y1="19.216" x2="26.9765" y2="35.6868" gradientUnits="userSpaceOnUse">
<stop stop-color="#56000E" stop-opacity="0.53"/>
<stop offset="1" stop-opacity="0.65"/>
</linearGradient>
<linearGradient id="paint2_linear" x1="26.9765" y1="0" x2="26.9765" y2="54.9028" gradientUnits="userSpaceOnUse">
<stop stop-color="#56000E" stop-opacity="0.53"/>
<stop offset="1" stop-opacity="0.65"/>
</linearGradient>
<linearGradient id="paint3_linear" x1="26.9765" y1="2.74518" x2="26.9765" y2="52.1577" gradientUnits="userSpaceOnUse">
<stop stop-color="#56000E" stop-opacity="0.53"/>
<stop offset="1" stop-opacity="0.65"/>
</linearGradient>
</defs>
</svg>
