<svg width="57" height="58" viewBox="0 0 57 58" fill="none" xmlns="http://www.w3.org/2000/svg">
<path d="M28.5 0C22.6705 0 18.7638 2.12654 15.252 3.90493C11.7299 5.68332 8.50142 7.22648 2.59091 7.22648H0V9.6353C0 28.2284 6.75053 40.3196 13.5922 47.6402C20.4338 54.9607 27.5284 57.633 27.5284 57.633L28.5 58L29.4514 57.6424C29.4514 57.6424 36.5662 54.9984 43.4078 47.6872C50.2495 40.3855 57 28.2943 57 9.6353V7.22648H54.4091C48.5289 7.22648 45.3004 5.68332 41.7784 3.90493C38.2463 2.12654 34.3295 0 28.5 0ZM28.5 4.81765C33.0341 4.81765 35.6655 6.30435 39.3089 8.13919C42.3654 9.68235 46.4036 11.1408 51.6461 11.6489C51.1502 27.9555 45.351 38.2871 39.5012 44.5256C34.1879 50.1995 29.7449 52.1661 28.5 52.6836C27.2653 52.1567 22.8121 50.1619 17.4988 44.4786C11.649 38.2213 5.84979 27.8897 5.36399 11.6489C10.6167 11.1408 14.6649 9.68235 17.7214 8.13919C21.3548 6.30435 23.9659 4.81765 28.5 4.81765ZM28.5 14.453C24.2088 14.453 20.7273 17.6898 20.7273 21.6794C20.7273 24.5023 22.5085 27.0711 25.2715 28.2378L23.3182 40.95H33.6818L31.7285 28.2378C34.4915 27.0711 36.2727 24.5023 36.2727 21.6794C36.2727 17.6898 32.7912 14.453 28.5 14.453Z" fill="url(#paint0_linear)" fill-opacity="0.75"/>
<defs>
<linearGradient id="paint0_linear" x1="28.5" y1="0" x2="28.5" y2="58" gradientUnits="userSpaceOnUse">
<stop stop-color="#ABDFFF" stop-opacity="0.5"/>
<stop offset="1" stop-color="#9996FF"/>
</linearGradient>
</defs>
</svg>
