<svg width="48" height="54" viewBox="0 0 48 54" fill="none" xmlns="http://www.w3.org/2000/svg">
<path d="M24 0C18.1405 0 13.3333 4.8673 13.3333 10.8C13.3333 12.7728 13.903 14.6026 14.8281 16.2H13.3333H8C6.528 16.2 5.33333 14.9877 5.33333 13.5C5.33333 12.0123 6.528 10.8 8 10.8C8 8.9046 8.34029 7.0902 8.93229 5.4H8C3.58933 5.4 0 9.0342 0 13.5V48.6C0 51.5781 2.392 54 5.33333 54H42.6667C45.608 54 48 51.5781 48 48.6V21.6C48 19.3984 46.6877 17.5092 44.8177 16.6693C45.126 15.6597 45.3333 14.6059 45.3333 13.5C45.3333 7.5672 40.5262 2.7 34.6667 2.7C33.5819 2.7 32.5359 2.88211 31.5417 3.19043C29.6064 1.22418 26.9364 0 24 0ZM24 5.4C26.9771 5.4 29.3333 7.78568 29.3333 10.8C29.3333 13.8143 26.9771 16.2 24 16.2C21.0229 16.2 18.6667 13.8143 18.6667 10.8C18.6667 7.78568 21.0229 5.4 24 5.4ZM34.6667 8.1C37.6444 8.1 40 10.485 40 13.5C40 14.4931 39.7298 15.4072 39.276 16.2H33.1719C34.097 14.6026 34.6667 12.7728 34.6667 10.8C34.6667 9.8806 34.5138 9.00153 34.2969 8.14746C34.4231 8.13865 34.5374 8.1 34.6667 8.1ZM5.33333 21.1043C6.17171 21.4071 7.06029 21.6 8 21.6H13.3333H16H42.6667V48.6H5.33333V21.1043ZM34.6667 32.4C33.1947 32.4 32 33.6096 32 35.1C32 36.5904 33.1947 37.8 34.6667 37.8C36.1387 37.8 37.3333 36.5904 37.3333 35.1C37.3333 33.6096 36.1387 32.4 34.6667 32.4Z" fill="url(#paint0_linear)" fill-opacity="0.75"/>
<defs>
<linearGradient id="paint0_linear" x1="24" y1="0" x2="24" y2="54" gradientUnits="userSpaceOnUse">
<stop stop-color="#ABDFFF" stop-opacity="0.5"/>
<stop offset="1" stop-color="#9996FF"/>
</linearGradient>
</defs>
</svg>
