<svg width="44" height="48" viewBox="0 0 44 48" fill="none" xmlns="http://www.w3.org/2000/svg">
<path d="M0 0V30.6219H7.33333V38.2774H25.0221L36.6667 48V38.2774H44V7.65548H36.6667V0H0ZM3.66667 3.82774H33V7.65548H7.33333V9.56935V26.7942H3.66667V3.82774ZM11 11.4832H40.3333V34.4497H33V40.0343L26.3112 34.4497H11V11.4832ZM20.1667 17.2248C19.6804 17.2248 19.2141 17.4265 18.8703 17.7854C18.5265 18.1443 18.3333 18.6311 18.3333 19.1387C18.3333 19.6463 18.5265 20.1331 18.8703 20.492C19.2141 20.8509 19.6804 21.0526 20.1667 21.0526C20.6529 21.0526 21.1192 20.8509 21.463 20.492C21.8068 20.1331 22 19.6463 22 19.1387C22 18.6311 21.8068 18.1443 21.463 17.7854C21.1192 17.4265 20.6529 17.2248 20.1667 17.2248ZM31.1667 17.2248C30.6804 17.2248 30.2141 17.4265 29.8703 17.7854C29.5265 18.1443 29.3333 18.6311 29.3333 19.1387C29.3333 19.6463 29.5265 20.1331 29.8703 20.492C30.2141 20.8509 30.6804 21.0526 31.1667 21.0526C31.6529 21.0526 32.1192 20.8509 32.463 20.492C32.8068 20.1331 33 19.6463 33 19.1387C33 18.6311 32.8068 18.1443 32.463 17.7854C32.1192 17.4265 31.6529 17.2248 31.1667 17.2248ZM21.2803 25.2728L19.0531 28.3156C19.0531 28.3156 21.8437 30.6219 25.6667 30.6219C29.4896 30.6219 32.2803 28.3156 32.2803 28.3156L30.0531 25.2728C30.0531 25.2728 28.0441 26.7942 25.6667 26.7942C23.2893 26.7942 21.2803 25.2728 21.2803 25.2728Z" fill="url(#paint0_linear)" fill-opacity="0.5"/>
<defs>
<linearGradient id="paint0_linear" x1="22" y1="0" x2="22" y2="48" gradientUnits="userSpaceOnUse">
<stop stop-color="#56000E" stop-opacity="0.53"/>
<stop offset="1" stop-opacity="0.65"/>
</linearGradient>
</defs>
</svg>
