<svg width="49" height="46" viewBox="0 0 49 46" fill="none" xmlns="http://www.w3.org/2000/svg">
<path d="M35 0C33.7623 0 32.5753 0.484641 31.7002 1.34731C30.825 2.20998 30.3333 3.38 30.3333 4.6C30.3348 5.40609 30.5511 6.19765 30.9606 6.89539C31.3701 7.59313 31.9585 8.17254 32.6667 8.57559V11.5H25.6667V6.9L25.6712 3.57578C25.6713 3.1728 25.564 2.77686 25.3601 2.4276C25.1561 2.07835 24.8627 1.78804 24.5091 1.58574C22.8367 0.628527 20.9732 0.114143 19.0951 0.0404297C18.469 0.0158586 17.8397 0.0384183 17.2174 0.112305C14.7283 0.40785 12.3233 1.49098 10.418 3.36914C9.66959 4.10683 9.08927 4.92351 8.63151 5.78594L8.56315 5.75C7.14701 8.16663 6.78335 10.885 7.23698 13.4496C2.97614 15.8075 0 20.1542 0 25.3C0 29.4856 2.06847 33.0925 5.05404 35.6141C6.16204 41.4739 11.2408 46 17.5 46C20.1309 46 22.5956 45.2066 24.6322 43.8617C24.9503 43.6516 25.211 43.3675 25.3915 43.0346C25.5719 42.7016 25.6664 42.33 25.6667 41.9525V39.1V34.5H32.6667V37.4199C31.9578 37.8233 31.369 38.4035 30.9595 39.1021C30.5499 39.8007 30.334 40.5931 30.3333 41.4C30.3333 42.62 30.825 43.79 31.7002 44.6527C32.5753 45.5154 33.7623 46 35 46C36.2377 46 37.4247 45.5154 38.2998 44.6527C39.175 43.79 39.6667 42.62 39.6667 41.4C39.6652 40.5939 39.4489 39.8023 39.0394 39.1046C38.6299 38.4069 38.0415 37.8275 37.3333 37.4244V32.2C37.3333 31.59 37.0874 31.005 36.6498 30.5737C36.2123 30.1424 35.6188 29.9001 35 29.9H25.6667V25.3H40.3001C40.709 25.9981 41.2968 26.578 42.0047 26.9817C42.7125 27.3853 43.5156 27.5986 44.3333 27.6C45.571 27.6 46.758 27.1154 47.6332 26.2527C48.5083 25.39 49 24.22 49 23C49 21.78 48.5083 20.61 47.6332 19.7473C46.758 18.8846 45.571 18.4 44.3333 18.4C43.5148 18.4006 42.7108 18.6135 42.0021 19.0172C41.2934 19.4209 40.7048 20.0012 40.2956 20.7H25.6667V16.1H35C35.6188 16.0999 36.2123 15.8576 36.6498 15.4263C37.0874 14.995 37.3333 14.41 37.3333 13.8V8.58008C38.0422 8.17665 38.631 7.59653 39.0405 6.89794C39.4501 6.19934 39.666 5.40685 39.6667 4.6C39.6667 3.38 39.175 2.20998 38.2998 1.34731C37.4247 0.484641 36.2377 0 35 0ZM18.612 4.6584C19.421 4.73682 20.214 5.03686 21 5.32324V6.9V13.4137C20.9584 13.6621 20.9584 13.9155 21 14.1639V18.4045H20.9863C20.9895 20.9659 18.9347 22.9969 16.3379 23L16.3424 27.6C18.0437 27.5979 19.6233 27.1039 21 26.3062V31.8137C20.9584 32.062 20.9584 32.3155 21 32.5639V39.1V40.3533C19.9134 40.8841 18.8011 41.4 17.5 41.4C13.2916 41.4 9.91583 38.3001 9.43815 34.2799C9.40106 33.9665 9.29899 33.6641 9.13827 33.3913C8.97755 33.1185 8.76162 32.8812 8.50391 32.6941C6.17897 31.0096 4.66667 28.3523 4.66667 25.3C4.66667 22.0773 6.35748 19.3039 8.89128 17.6678C9.86447 19.1772 11.1612 20.508 12.8333 21.4592L15.1667 17.4746C13.7193 16.6513 12.7108 15.4002 12.1543 13.9887C12.1388 13.925 12.1206 13.8621 12.0996 13.8C11.7715 12.8856 11.6366 11.9203 11.7031 10.9699C11.7205 10.7209 11.7676 10.4747 11.8125 10.2287C11.8455 10.0591 11.88 9.88941 11.9264 9.72109C11.9725 9.54633 12.0164 9.3714 12.0768 9.2C12.2105 8.83253 12.3721 8.46976 12.5736 8.11738C12.8771 7.58445 13.2544 7.07788 13.7174 6.62148C14.8711 5.48434 16.3082 4.83539 17.7962 4.66289C18.0692 4.63124 18.3423 4.63226 18.612 4.6584Z" fill="url(#paint0_linear)" fill-opacity="0.5"/>
<defs>
<linearGradient id="paint0_linear" x1="24.5" y1="0" x2="24.5" y2="46" gradientUnits="userSpaceOnUse">
<stop stop-color="#56000E" stop-opacity="0.53"/>
<stop offset="1" stop-opacity="0.65"/>
</linearGradient>
</defs>
</svg>
