<svg width="200" height="200" viewBox="0 0 200 200" fill="none" xmlns="http://www.w3.org/2000/svg">
<g filter="url(#filter0_d)">
<circle cx="100.408" cy="99.5532" r="90" stroke="url(#paint0_linear)" stroke-width="5"/>
</g>
<g filter="url(#filter1_d)">
<path d="M150.836 62.6168C150.836 62.6168 153.955 134.409 101.468 162.501C47.9022 134.409 51.0205 62.6168 51.0205 62.6168C75.976 62.6168 100.928 37.6458 100.928 37.6458C100.928 37.6458 122.762 62.6168 150.836 62.6168Z" stroke="url(#paint1_linear)" stroke-width="5"/>
</g>
<g filter="url(#filter2_d)">
<path d="M113.414 81.3449C113.414 88.2401 107.823 93.8305 100.928 93.8305C94.0329 93.8305 88.4425 88.2401 88.4425 81.3449C88.4425 74.4498 94.0329 68.8594 100.928 68.8594C107.823 68.8594 113.414 74.4498 113.414 81.3449ZM122.778 112.559C122.778 112.559 116.729 100.073 100.928 100.073C85.1276 100.073 79.0784 112.559 79.0784 112.559V118.802H122.778V112.559Z" stroke="url(#paint2_linear)" stroke-width="5"/>
</g>
<defs>
<filter id="filter0_d" x="0.907959" y="0.0532227" width="199" height="199" filterUnits="userSpaceOnUse" color-interpolation-filters="sRGB">
<feFlood flood-opacity="0" result="BackgroundImageFix"/>
<feColorMatrix in="SourceAlpha" type="matrix" values="0 0 0 0 0 0 0 0 0 0 0 0 0 0 0 0 0 0 127 0"/>
<feMorphology radius="1" operator="dilate" in="SourceAlpha" result="effect1_dropShadow"/>
<feOffset/>
<feGaussianBlur stdDeviation="3"/>
<feColorMatrix type="matrix" values="0 0 0 0 0 0 0 0 0 0 0 0 0 0 0 0 0 0 0.25 0"/>
<feBlend mode="normal" in2="BackgroundImageFix" result="effect1_dropShadow"/>
<feBlend mode="normal" in="SourceGraphic" in2="effect1_dropShadow" result="shape"/>
</filter>
<filter id="filter1_d" x="41.4866" y="26.9871" width="118.885" height="145.343" filterUnits="userSpaceOnUse" color-interpolation-filters="sRGB">
<feFlood flood-opacity="0" result="BackgroundImageFix"/>
<feColorMatrix in="SourceAlpha" type="matrix" values="0 0 0 0 0 0 0 0 0 0 0 0 0 0 0 0 0 0 127 0"/>
<feMorphology radius="1" operator="dilate" in="SourceAlpha" result="effect1_dropShadow"/>
<feOffset/>
<feGaussianBlur stdDeviation="3"/>
<feColorMatrix type="matrix" values="0 0 0 0 0 0 0 0 0 0 0 0 0 0 0 0 0 0 0.25 0"/>
<feBlend mode="normal" in2="BackgroundImageFix" result="effect1_dropShadow"/>
<feBlend mode="normal" in="SourceGraphic" in2="effect1_dropShadow" result="shape"/>
</filter>
<filter id="filter2_d" x="69.5784" y="59.3594" width="62.6994" height="68.9422" filterUnits="userSpaceOnUse" color-interpolation-filters="sRGB">
<feFlood flood-opacity="0" result="BackgroundImageFix"/>
<feColorMatrix in="SourceAlpha" type="matrix" values="0 0 0 0 0 0 0 0 0 0 0 0 0 0 0 0 0 0 127 0"/>
<feMorphology radius="1" operator="dilate" in="SourceAlpha" result="effect1_dropShadow"/>
<feOffset/>
<feGaussianBlur stdDeviation="3"/>
<feColorMatrix type="matrix" values="0 0 0 0 0 0 0 0 0 0 0 0 0 0 0 0 0 0 0.25 0"/>
<feBlend mode="normal" in2="BackgroundImageFix" result="effect1_dropShadow"/>
<feBlend mode="normal" in="SourceGraphic" in2="effect1_dropShadow" result="shape"/>
</filter>
<linearGradient id="paint0_linear" x1="7.8068" y1="104.235" x2="178.963" y2="103.195" gradientUnits="userSpaceOnUse">
<stop stop-color="#44AB96"/>
<stop offset="1" stop-color="#4484AB"/>
</linearGradient>
<linearGradient id="paint1_linear" x1="49.5431" y1="103.321" x2="144.522" y2="102.859" gradientUnits="userSpaceOnUse">
<stop stop-color="#44AB96"/>
<stop offset="1" stop-color="#4484AB"/>
</linearGradient>
<linearGradient id="paint2_linear" x1="78.4469" y1="95.1296" x2="120" y2="94.9085" gradientUnits="userSpaceOnUse">
<stop stop-color="#44AB96"/>
<stop offset="1" stop-color="#4484AB"/>
</linearGradient>
</defs>
</svg>
