<svg width="87" height="87" viewBox="0 0 42 55" fill="none" xmlns="http://www.w3.org/2000/svg">
<path d="M21.1849 24.8719V13.377C24.1881 13.377 27.0877 14.6196 29.2624 16.6908C31.4371 18.8655 32.5763 21.7651 32.5763 24.7683H21.1849V24.8719Z" fill="url(#paint0_linear)" fill-opacity="0.5"/>
<path d="M4.71918 13.3769V7.16344C4.71918 6.0243 5.6512 5.09229 6.79033 5.09229H13.0038L4.71918 13.3769Z" fill="url(#paint1_linear)" fill-opacity="0.5"/>
<path d="M40.4466 10.3738L32.4727 2.39982C31.5407 1.4678 30.298 0.950012 28.8482 0.950012H5.75479C2.85517 0.950012 0.576904 3.22828 0.576904 6.1279V49.6221C0.576904 52.5217 2.85517 54.8 5.75479 54.8H36.8221C39.7217 54.8 42 52.5217 42 49.6221V14.1018C42 12.652 41.4822 11.4093 40.4466 10.3738ZM31.6442 4.47097L38.479 11.3058H32.6798C32.0584 11.3058 31.6442 10.8916 31.6442 10.2702V4.47097ZM39.9288 49.6221C39.9288 51.3826 38.5826 52.7289 36.8221 52.7289H5.75479C3.99431 52.7289 2.64806 51.3826 2.64806 49.6221C3.47652 50.2435 4.61565 50.6577 5.75479 50.6577H36.8221C37.9612 50.6577 39.1004 50.2435 39.9288 49.6221ZM39.9288 45.4798C39.9288 47.2403 38.5826 48.5866 36.8221 48.5866H5.75479C3.99431 48.5866 2.64806 47.2403 2.64806 45.4798V6.1279C2.64806 4.36742 3.99431 3.02117 5.75479 3.02117H28.8482C29.0553 3.02117 29.2624 3.02117 29.5731 3.12472V10.2702C29.5731 12.0307 30.9193 13.3769 32.6798 13.3769H39.8253C39.8253 13.5841 39.9288 13.7912 39.9288 14.1018V45.4798Z" fill="url(#paint2_linear)" fill-opacity="0.5"/>
<path d="M35.7866 38.2308H6.79041V40.3019H35.7866V38.2308Z" fill="url(#paint3_linear)" fill-opacity="0.5"/>
<path d="M28.0197 42.373H14.5572V44.4442H28.0197V42.373Z" fill="url(#paint4_linear)" fill-opacity="0.5"/>
<path d="M21.1849 35.2276C26.5699 35.2276 31.0229 31.0853 31.5407 25.8038H32.6798C33.3012 25.8038 33.7154 25.3896 33.7154 24.7682C33.7154 21.4544 32.3692 18.2441 30.0909 15.9658C27.8126 13.6876 24.6023 12.3413 21.2885 12.3413C20.6671 12.3413 20.2529 12.7555 20.2529 13.3769V14.516C14.9715 15.0338 10.8292 19.4868 10.8292 24.8718C10.8292 30.5675 15.4893 35.2276 21.1849 35.2276ZM22.2205 14.516C24.6023 14.7231 26.8806 15.8623 28.5375 17.5192C30.1945 19.1761 31.3336 21.4544 31.5407 23.8362H22.2205V14.516ZM21.1849 25.9074H24.0845C23.6703 27.1501 22.5312 27.9785 21.1849 27.9785C19.4245 27.9785 18.0782 26.5287 18.0782 24.8718C18.0782 23.5255 18.9067 22.3864 20.1494 21.9722V24.8718C20.1494 25.3896 20.6671 25.9074 21.1849 25.9074ZM20.1494 16.5872V19.7975C17.7675 20.3153 16.007 22.3864 16.007 24.8718C16.007 27.7714 18.3889 30.0497 21.1849 30.0497C23.6703 30.0497 25.845 28.2892 26.2593 25.9074H29.4695C28.9518 30.0497 25.4308 33.26 21.1849 33.26C16.6284 33.26 12.7968 29.5319 12.7968 24.8718C12.9003 20.6259 16.1106 17.105 20.1494 16.5872Z" fill="url(#paint5_linear)" fill-opacity="0.5"/>
<defs>
<linearGradient id="paint0_linear" x1="26.8806" y1="13.377" x2="26.8806" y2="24.8719" gradientUnits="userSpaceOnUse">
<stop stop-color="#56000E" stop-opacity="0.53"/>
<stop offset="1" stop-opacity="0.65"/>
</linearGradient>
<linearGradient id="paint1_linear" x1="8.86149" y1="5.09229" x2="8.86149" y2="13.3769" gradientUnits="userSpaceOnUse">
<stop stop-color="#56000E" stop-opacity="0.53"/>
<stop offset="1" stop-opacity="0.65"/>
</linearGradient>
<linearGradient id="paint2_linear" x1="21.2884" y1="0.950012" x2="21.2884" y2="54.8" gradientUnits="userSpaceOnUse">
<stop stop-color="#56000E" stop-opacity="0.53"/>
<stop offset="1" stop-opacity="0.65"/>
</linearGradient>
<linearGradient id="paint3_linear" x1="21.2885" y1="38.2308" x2="21.2885" y2="40.3019" gradientUnits="userSpaceOnUse">
<stop stop-color="#56000E" stop-opacity="0.53"/>
<stop offset="1" stop-opacity="0.65"/>
</linearGradient>
<linearGradient id="paint4_linear" x1="21.2884" y1="42.373" x2="21.2884" y2="44.4442" gradientUnits="userSpaceOnUse">
<stop stop-color="#56000E" stop-opacity="0.53"/>
<stop offset="1" stop-opacity="0.65"/>
</linearGradient>
<linearGradient id="paint5_linear" x1="22.2723" y1="12.3413" x2="22.2723" y2="35.2276" gradientUnits="userSpaceOnUse">
<stop stop-color="#56000E" stop-opacity="0.53"/>
<stop offset="1" stop-opacity="0.65"/>
</linearGradient>
</defs>
</svg>
