<svg width="80" height="80" viewBox="0 0 80 80" fill="none" xmlns="http://www.w3.org/2000/svg">
<path d="M23.3121 0C10.5158 0 0 10.5017 0 23.3121V55.9715C0 68.7678 10.5017 79.2836 23.3121 79.2836H55.9715C68.7678 79.2836 79.2836 68.7819 79.2836 55.9715V23.3121C79.2836 10.5158 68.7819 0 55.9715 0H23.3121ZM23.3121 7.2076H55.9715C64.8825 7.2076 72.076 14.4011 72.076 23.3121V55.9715C72.076 64.8825 64.8825 72.076 55.9715 72.076H23.3121C14.4011 72.076 7.2076 64.8825 7.2076 55.9715V23.3121C7.2076 14.4011 14.4011 7.2076 23.3121 7.2076ZM60.9267 15.0909C59.1107 15.0909 57.6608 16.5409 57.6608 18.3568C57.6608 20.1728 59.1107 21.6228 60.9267 21.6228C62.7427 21.6228 64.1927 20.1728 64.1927 18.3568C64.1927 16.5409 62.7427 15.0909 60.9267 15.0909ZM39.6418 18.019C27.7464 18.019 18.019 27.7464 18.019 39.6418C18.019 51.5371 27.7464 61.2646 39.6418 61.2646C51.5371 61.2646 61.2646 51.5371 61.2646 39.6418C61.2646 27.7464 51.5371 18.019 39.6418 18.019ZM39.6418 25.2266C47.6518 25.2266 54.057 31.6318 54.057 39.6418C54.057 47.6518 47.6518 54.057 39.6418 54.057C31.6318 54.057 25.2266 47.6518 25.2266 39.6418C25.2266 31.6318 31.6318 25.2266 39.6418 25.2266Z" fill="white"/>
</svg>
