<svg width="90" height="86" viewBox="0 0 90 86" fill="none" xmlns="http://www.w3.org/2000/svg">
<path d="M19.8968 85.1968H0.676514V27.536H19.8968V85.1968ZM10.2905 19.8479C4.97416 19.8479 0.676514 15.5388 0.676514 10.234C0.676514 4.92918 4.98185 0.627686 10.2905 0.627686C15.5876 0.627686 19.8968 4.93687 19.8968 10.234C19.8968 15.5388 15.5876 19.8479 10.2905 19.8479ZM89.0897 85.1968H70.6114V57.1352C70.6114 50.4428 70.4845 41.8359 61.0051 41.8359C51.3834 41.8359 49.9034 49.1242 49.9034 56.6509V85.1968H31.4289V27.4938H49.1654V35.3779H49.4152C51.8831 30.8419 57.9144 26.0599 66.9095 26.0599C85.6301 26.0599 89.0897 38.0111 89.0897 53.5487V85.1968Z" fill="white"/>
</svg>
