<svg width="166" height="174" viewBox="0 0 166 174" fill="none" xmlns="http://www.w3.org/2000/svg">
<path d="M6.14993 0C2.76266 0 0 2.79158 0 6.21429C0 9.637 2.76266 12.4286 6.14993 12.4286C9.53719 12.4286 12.2999 9.637 12.2999 6.21429C12.2999 2.79158 9.53719 0 6.14993 0ZM18.4498 12.4286C15.0625 12.4286 12.2999 15.2201 12.2999 18.6429C12.2999 22.0656 15.0625 24.8571 18.4498 24.8571C21.837 24.8571 24.5997 22.0656 24.5997 18.6429C24.5997 15.2201 21.837 12.4286 18.4498 12.4286ZM30.7496 24.8571C27.3624 24.8571 24.5997 27.6487 24.5997 31.0714C24.5997 34.4941 27.3624 37.2857 30.7496 37.2857C34.1369 37.2857 36.8996 34.4941 36.8996 31.0714C36.8996 27.6487 34.1369 24.8571 30.7496 24.8571ZM55.3494 28.4983L45.9323 38.014C45.0434 37.5285 44.0585 37.2857 43.0495 37.2857C39.6622 37.2857 36.8996 40.0773 36.8996 43.5C36.8996 44.5195 37.1398 45.5148 37.6203 46.4129L28.2032 55.9286L49.7279 77.6786L30.7496 96.8555V130.5H43.0495V102.002L67.6492 126.859V174H79.9491V139.287L101.978 161.547C110.146 169.801 123.551 169.801 131.719 161.547L159.874 133.097C168.042 124.844 168.042 111.299 159.874 103.045L100.945 43.5H129.148V31.0714H95.8524L76.8741 50.2483L55.3494 28.4983ZM55.3494 46.0731L68.1297 58.9872L58.3763 68.8426L45.596 55.9286L55.3494 46.0731ZM92.2489 52.2874L151.178 111.833C154.637 115.328 154.637 120.814 151.178 124.31L123.023 152.76C119.563 156.255 114.134 156.255 110.675 152.76L51.7459 93.2143L92.2489 52.2874Z" fill="url(#paint0_linear)"/>
<defs>
<linearGradient id="paint0_linear" x1="1.54599e-07" y1="87" x2="166" y2="87" gradientUnits="userSpaceOnUse">
<stop stop-color="#BA75FF"/>
<stop offset="1" stop-color="#4484AB"/>
</linearGradient>
</defs>
</svg>
