<svg width="156" height="156" viewBox="0 0 156 156" fill="none" xmlns="http://www.w3.org/2000/svg">
<path d="M77.9998 0C72.6202 0 67.2129 2.0669 63.1197 6.16383L6.15771 63.1237C2.06186 67.2194 0 72.6202 0 77.9968C0 83.3735 2.05991 88.7825 6.15771 92.8763L63.126 149.843C67.2219 153.938 72.6229 156 77.9998 156C83.3749 156 88.78 153.938 92.8735 149.843L131 111.723L149.842 92.8827C153.901 88.8234 155.967 83.4736 156 78.1365V78.1301C156.036 72.7041 153.965 67.251 149.842 63.1237L92.8798 6.16383C88.7814 2.06936 83.3793 0 77.9998 0ZM77.9998 6.50026C81.7275 6.50026 85.433 7.9054 88.2901 10.7597L104.84 27.3151L78.0125 54.1541L51.1661 27.3151L67.7221 10.7597C70.5714 7.90786 74.2721 6.50026 77.9998 6.50026ZM46.5701 31.911L73.4164 58.75L27.3288 104.855L10.7538 88.2804C7.90253 85.432 6.50051 81.7206 6.50051 77.9968C6.50051 74.2731 7.90058 70.5726 10.7538 67.7196L46.5701 31.911ZM109.436 31.911L135.933 58.4072L108.934 85.0684L82.6085 58.75L109.436 31.911ZM140.529 63.0031L145.246 67.7196C148.119 70.5974 149.532 74.337 149.505 78.092H149.499C149.478 81.7882 148.075 85.4574 145.246 88.2868L128.702 104.829L113.53 89.6579L140.529 63.0031ZM78.0125 63.3458L124.106 109.425L88.2774 145.247C85.4288 148.098 81.7236 149.5 77.9998 149.5C74.2759 149.5 70.5753 148.1 67.7221 145.247L31.9249 109.451L78.0125 63.3458Z" fill="url(#paint0_linear)"/>
<defs>
<linearGradient id="paint0_linear" x1="1.45286e-07" y1="78" x2="156" y2="78" gradientUnits="userSpaceOnUse">
<stop stop-color="#BA75FF"/>
<stop offset="1" stop-color="#4484AB"/>
</linearGradient>
</defs>
</svg>
