<svg width="200" height="125" viewBox="0 0 200 125" fill="none" xmlns="http://www.w3.org/2000/svg">
<path d="M82.7941 0C77.0117 0 72.3048 2.88107 69.2032 6.51373C68.3927 7.45321 67.6913 8.5023 67.0835 9.52007C65.1664 8.78414 63.2494 8.36138 61.4726 8.26743C58.5268 8.12651 55.8928 8.76848 53.6173 10.0211C49.0818 12.5264 45.8867 16.3313 42.5201 19.1654C39.0756 22.0621 28.7734 29.6719 19.5777 36.3266C10.382 42.9812 2.24616 48.853 2.24616 48.853C0.827842 49.5419 -0.0449693 50.9981 0.0017894 52.5796C0.0485481 54.161 1.01487 55.5703 2.46436 56.1653C3.92943 56.7759 5.59713 56.4628 6.7349 55.3667C6.7349 55.3667 15.0889 49.5263 24.3158 42.8403C33.5426 36.1543 43.6267 28.7794 47.757 25.3033C51.7625 21.9212 54.8486 18.4921 57.4826 17.0359C59.6646 15.8302 61.3946 15.4388 64.5897 17.0359C64.5274 17.5839 64.3404 18.1163 64.3404 18.6643V66.3899L58.8541 68.8952C57.3891 69.3493 56.3136 70.6333 56.0954 72.1521C55.8772 73.6866 56.563 75.2054 57.841 76.0666C59.1191 76.9121 60.7712 76.9591 62.096 76.1605L99.0034 59.1246H99.1281C104.381 56.3062 109.882 53.7226 114.091 52.8614C118.299 52.0002 120.403 52.3604 122.195 54.7404C124.299 57.5275 124.782 60.5965 123.816 64.0099C122.85 67.4234 120.278 71.1187 115.836 74.2816C106.531 80.8893 92.1456 85.8059 92.1456 85.8059L91.3975 86.0564L90.774 86.5574C83.3707 92.8833 79.0846 98.896 73.6919 102.967C68.2992 107.038 61.6284 109.731 47.8817 109.731H47.6323L4.24115 112.237C2.04354 112.377 0.360265 114.288 0.500538 116.496C0.640811 118.703 2.54229 120.394 4.7399 120.253L47.8817 117.748C47.9752 117.748 48.0375 117.748 48.131 117.748C58.3242 117.717 65.7275 116.026 71.5722 113.364C72.5853 116.37 74.6738 118.938 77.9313 120.003C82.5135 121.49 87.0334 121.052 90.6494 119.502C92.2547 118.813 93.7198 117.873 95.0134 116.871C96.2759 119.784 98.5358 122.508 101.996 123.761C105.627 125.076 109.243 125.374 112.47 124.512C115.696 123.651 118.33 121.819 120.824 119.502C121.244 119.11 121.525 118.813 121.821 118.5C122.663 119.079 123.629 119.471 124.689 119.752C129.863 121.115 135.911 119.627 140.524 114.992C144.577 110.921 147.008 104.674 147.881 96.2028H182.668C192.254 96.2028 200 88.3111 200 78.6658V18.2885C200 8.23611 191.365 0 181.546 0H82.7941ZM82.7941 8.0169H181.546C186.518 8.0169 192.02 13.3563 192.02 18.2885V20.0422H72.3203V18.6643C72.3203 17.0046 73.3958 14.0139 75.3128 11.7748C77.2299 9.53572 79.6457 8.0169 82.7941 8.0169ZM72.3203 36.076H192.02V78.6658C192.02 84.0052 187.874 88.1859 182.668 88.1859H107.357C111.55 86.2599 116.179 83.9582 120.45 80.9206C126.107 76.8965 129.988 71.8076 131.547 66.2647C133.105 60.7217 132.123 54.7247 128.554 49.9803C124.658 44.8132 118.205 43.9207 112.47 45.0951C106.812 46.2537 101.03 48.9782 95.6368 51.8593C95.5589 51.9063 95.4654 51.9376 95.3875 51.9846L72.3203 62.632V36.076ZM92.2703 96.2028H95.0134C94.7796 99.0212 94.3744 103.265 93.8912 105.973C93.8289 106.302 93.8133 106.631 93.7665 106.975C93.5483 107.116 93.3301 107.289 93.1431 107.477C91.4286 109.528 89.4492 111.234 87.4075 112.111C85.3657 112.988 83.324 113.301 80.425 112.362C79.7081 112.127 78.8976 110.968 78.8041 109.105C83.9474 105.159 87.7348 100.681 92.2703 96.2028ZM103.118 96.2028H118.081C117.8 98.0661 117.551 100.196 117.332 102.341C117.067 104.956 116.834 108.087 117.457 111.234C117.239 111.532 117.145 111.595 116.834 111.986C116.179 112.816 115.01 114.022 115.462 113.614C113.498 115.431 111.846 116.464 110.35 116.871C108.854 117.278 107.28 117.169 104.739 116.245C103.383 115.76 102.682 114.883 102.121 113.239C101.559 111.595 101.404 109.262 101.747 107.351C102.432 103.562 102.915 98.7237 103.118 96.2028ZM126.185 96.2028H139.776C138.95 102.904 137.095 107.163 134.913 109.356C131.952 112.346 129.443 112.706 126.684 111.986C125.764 111.736 125.686 111.516 125.312 109.857C124.938 108.197 124.938 105.598 125.188 103.218C125.453 100.65 125.842 98.16 126.185 96.2028Z" fill="url(#paint0_linear)"/>
<defs>
<linearGradient id="paint0_linear" x1="1.86264e-07" y1="62.5" x2="200" y2="62.5" gradientUnits="userSpaceOnUse">
<stop stop-color="#BA75FF"/>
<stop offset="1" stop-color="#4484AB"/>
</linearGradient>
</defs>
</svg>
