<svg width="150" height="141" viewBox="0 0 150 141" fill="none" xmlns="http://www.w3.org/2000/svg">
<path d="M102.592 0L100.906 2.43598L74.2036 41.1305L51.0618 47.97C47.9934 48.8952 45.3935 50.8979 43.6602 53.5915L24.4535 83.2917L36.6334 124.61L58.8382 119.738C59.4004 119.621 59.9625 119.421 60.5247 119.269C65.9588 117.442 70.7136 114.151 74.2973 109.619L77.1081 105.59L89.8501 114.491L92.2861 116.177L94.0662 113.648L148.22 35.1343L150 32.6983L147.47 31.0119L105.122 1.68645L102.592 0ZM104.185 8.33854L141.661 34.2911L120.581 64.8345C123.146 56.1563 119.047 45.6629 109.994 39.4441C104.806 35.8838 98.7742 34.2208 92.9419 34.7595C89.4988 35.0757 86.3952 36.1415 83.7602 37.8513L104.185 8.33854ZM116.646 26.2336C115.041 26.2219 113.495 26.9597 112.523 28.3885C110.966 30.6605 111.551 33.846 113.835 35.4154C116.119 36.9847 119.211 36.3757 120.768 34.1037C122.326 31.8317 121.74 28.7399 119.457 27.1705C118.602 26.5849 117.606 26.2453 116.646 26.2336ZM76.0775 49.0006C75.1991 53.1699 75.7612 57.7491 77.6702 62.0237L80.0125 59.9625C82.7413 57.7374 86.2313 56.5896 89.7564 56.5896C93.7266 56.5896 97.4742 58.0536 100.344 60.8057C105.028 65.2912 106.281 72.0487 103.904 77.7639C107.851 77.4243 111.399 76.0423 114.304 73.8289L90.787 107.839L80.5746 100.812L97.0643 77.6702C100.039 73.8874 99.6877 68.4416 96.2211 65.1155C92.8131 61.8481 87.5078 61.6607 83.8538 64.6471L66.8957 78.7945L59.8688 74.5784L76.0775 49.0006ZM18.2698 83.6665L0 89.2879L15.0843 140.35L33.4478 134.728L18.2698 83.6665Z" fill="url(#paint0_linear)"/>
<defs>
<linearGradient id="paint0_linear" x1="1.39698e-07" y1="70.1749" x2="150" y2="70.1749" gradientUnits="userSpaceOnUse">
<stop stop-color="#FAFAFA"/>
<stop offset="1" stop-color="#C4C4C4"/>
</linearGradient>
</defs>
</svg>
