<svg width="825" height="729" viewBox="0 0 825 729" fill="none" xmlns="http://www.w3.org/2000/svg">
<path class="green-part" d="M817.565 512.428C817.565 528.644 804.521 541.79 788.43 541.79C772.339 541.79 759.295 528.644 759.295 512.428" stroke="#44AB96" stroke-width="13" stroke-linecap="round" stroke-linejoin="round"/>
<path class="red-part" d="M817.565 85.1708C797.415 85.1708 781.083 68.7388 781.083 48.4691C781.083 28.1994 797.415 11.7675 817.565 11.7675" stroke="#E53855" stroke-width="13" stroke-linecap="round" stroke-linejoin="round"/>
<path class="green-part" d="M291.617 41.586C291.617 58.3871 305.229 72.0073 322.019 72.0073C338.809 72.0073 352.42 58.3871 352.42 41.586V7.2099" stroke="#44AB96" stroke-width="13" stroke-linecap="round" stroke-linejoin="round"/>
<path class="yellow-part" d="M76.3919 721.501C38.5477 721.501 7.8689 691.02 7.8689 653.413C7.8689 615.807 38.5477 585.326 76.3919 585.326H139.103" stroke="#FFB017" stroke-width="13" stroke-linecap="round" stroke-linejoin="round"/>
<path class="green-part" d="M72.209 674.928C59.6215 674.928 49.4177 665.07 49.4177 652.907C49.4177 640.744 59.6215 630.886 72.209 630.886H96.5403" stroke="#44AB96" stroke-width="13" stroke-linecap="round" stroke-linejoin="round"/>
<path class="green-part" d="M141.636 7.21014L42.1351 7.2099C22.6507 7.2099 6.85547 22.6219 6.85547 41.6335" stroke="#44AB96" stroke-width="13" stroke-linecap="round" stroke-linejoin="round"/>
<path class="blue-part" d="M573.339 8.22425L700.894 8.22394C725.873 8.22394 746.121 28.3955 746.121 53.2783" stroke="#4484AB" stroke-width="13" stroke-linecap="round" stroke-linejoin="round"/>
<path class="orange-part" d="M817.565 240.583V155.375C817.565 138.689 803.951 125.163 787.163 125.163C770.376 125.163 756.762 138.689 756.762 155.375V168.564" stroke="#DA774A" stroke-width="13" stroke-linecap="round" stroke-linejoin="round"/>
<path class="filed orange" d="M347.86 501.988C351.45 501.988 354.36 499.078 354.36 495.488C354.36 491.898 351.45 488.988 347.86 488.988V501.988ZM294.466 584.463C298.056 584.463 300.966 581.553 300.966 577.963C300.966 574.373 298.056 571.463 294.466 571.463V584.463ZM192.731 728.001C196.321 728.001 199.231 725.091 199.231 721.501C199.231 717.911 196.321 715.001 192.731 715.001V728.001ZM301.236 620.787C301.236 617.197 298.326 614.287 294.736 614.287C291.146 614.287 288.236 617.197 288.236 620.787H301.236ZM210.845 304.368C210.845 300.778 207.935 297.868 204.345 297.868C200.755 297.868 197.845 300.778 197.845 304.368H210.845ZM341.36 451.871C341.36 455.461 344.27 458.371 347.86 458.371C351.45 458.371 354.36 455.461 354.36 451.871H341.36ZM347.86 488.988H256.941V501.988H347.86V488.988ZM256.941 488.988C230.472 488.988 208.946 510.323 208.946 536.726H221.946C221.946 517.579 237.575 501.988 256.941 501.988V488.988ZM208.946 536.726C208.946 563.128 230.472 584.463 256.941 584.463V571.463C237.575 571.463 221.946 555.872 221.946 536.726H208.946ZM256.941 584.463H294.466V571.463H256.941V584.463ZM192.731 715.001H187.311V728.001H192.731V715.001ZM187.311 715.001C174.912 715.001 164.857 704.944 164.857 692.543H151.857C151.857 712.121 167.729 728.001 187.311 728.001V715.001ZM164.857 692.543C164.857 680.135 174.912 670.078 187.311 670.078V657.078C167.728 657.078 151.857 672.959 151.857 692.543H164.857ZM187.311 670.078H251.955V657.078H187.311V670.078ZM251.955 670.078C279.173 670.078 301.236 648.009 301.236 620.787H288.236C288.236 640.833 271.991 657.078 251.955 657.078V670.078ZM197.845 304.368V336.911H210.845V304.368H197.845ZM197.845 336.911C197.845 380.14 232.88 415.185 276.102 415.185V402.185C240.063 402.185 210.845 372.963 210.845 336.911H197.845ZM276.102 415.185H304.683V402.185H276.102V415.185ZM304.683 415.185C324.938 415.185 341.36 431.609 341.36 451.871H354.36C354.36 424.432 332.12 402.185 304.683 402.185V415.185Z" fill="#DA774A"/>
<path class="green-part" fill-rule="evenodd" clip-rule="evenodd" d="M304.791 225.903C315.985 225.903 325.059 216.837 325.059 205.653C325.059 194.47 315.985 185.404 304.791 185.404C293.598 185.404 284.523 194.47 284.523 205.653C284.523 216.837 293.598 225.903 304.791 225.903Z" stroke="#44AB96" stroke-width="13" stroke-linecap="round" stroke-linejoin="round"/>
<path class="red-part" fill-rule="evenodd" clip-rule="evenodd" d="M360.527 641.011C376.758 641.011 389.916 627.979 389.916 611.903C389.916 595.827 376.758 582.794 360.527 582.794C344.297 582.794 331.139 595.827 331.139 611.903C331.139 627.979 344.297 641.011 360.527 641.011Z" stroke="#E53855" stroke-width="13" stroke-linecap="round" stroke-linejoin="round"/>
<path class="green-part" fill-rule="evenodd" clip-rule="evenodd" d="M100.087 168.699C117.717 168.699 132.009 154.42 132.009 136.806C132.009 119.192 117.717 104.914 100.087 104.914C82.4573 104.914 68.1655 119.192 68.1655 136.806C68.1655 154.42 82.4573 168.699 100.087 168.699Z" stroke="#44AB96" stroke-width="13" stroke-linecap="round" stroke-linejoin="round"/>
<path class="yellow-part" d="M100.34 206.16C139.657 206.16 171.531 174.769 171.531 136.047C171.531 97.3245 139.657 65.934 100.34 65.934C61.0232 65.934 29.1499 97.3245 29.1499 136.047" stroke="#FFB017" stroke-width="13" stroke-linecap="round" stroke-linejoin="round"/>
<path class="green-part" d="M671.237 626.562C660.421 666.966 683.819 708.346 723.496 718.989C763.172 729.627 804.109 705.499 814.925 665.094C825.741 624.69 802.343 583.312 762.667 572.67" stroke="#44AB96" stroke-width="13" stroke-linecap="round" stroke-linejoin="round"/>
<path class="filed orange" d="M250.996 627.261C254.585 627.261 257.496 624.351 257.496 620.761C257.496 617.172 254.585 614.261 250.996 614.261V627.261ZM190.221 494.033C191.98 490.903 190.868 486.94 187.739 485.182C184.61 483.423 180.647 484.534 178.888 487.663L190.221 494.033ZM304.285 456.156C307.874 456.156 310.785 453.246 310.785 449.656C310.785 446.066 307.874 443.156 304.285 443.156V456.156ZM201.668 460.37C198.835 462.574 198.326 466.658 200.531 469.491C202.736 472.324 206.82 472.833 209.653 470.629L201.668 460.37ZM250.996 614.261C212.077 614.261 179.551 579.548 179.551 535.468H166.551C166.551 585.6 203.82 627.261 250.996 627.261V614.261ZM179.551 535.468C179.551 520.231 183.469 506.045 190.221 494.033L178.888 487.663C171.048 501.613 166.551 517.991 166.551 535.468H179.551ZM304.285 443.156H251.184V456.156H304.285V443.156ZM251.184 443.156C232.656 443.156 215.546 449.569 201.668 460.37L209.653 470.629C221.395 461.489 235.73 456.156 251.184 456.156V443.156Z" fill="#DA774A"/>
<path class="green-part" d="M173.304 216.284C157.213 216.284 144.169 229.316 144.169 245.392C144.169 261.469 157.213 274.501 173.304 274.501C189.395 274.501 202.439 261.469 202.439 245.392V216.284" stroke="#44AB96" stroke-width="13" stroke-linecap="round" stroke-linejoin="round"/>
<path class="red-part" d="M182.171 45.9364C182.171 67.3244 199.412 84.663 220.68 84.663C241.948 84.663 259.189 67.3244 259.189 45.9364C259.189 24.5484 241.948 7.2099 220.68 7.2099H182.171" stroke="#E53855" stroke-width="13" stroke-linecap="round" stroke-linejoin="round"/>
<path class="green-part" d="M747.636 447.125C747.636 464.179 761.251 478.005 778.043 478.005C794.835 478.005 808.445 464.179 808.445 447.125C808.445 430.07 794.835 416.245 778.043 416.245H676.198" stroke="#44AB96" stroke-width="13" stroke-linecap="round" stroke-linejoin="round"/>
<path class="blue-part" d="M496.321 77.4714C478.412 77.4714 463.893 91.7737 463.893 109.417C463.893 127.06 478.412 141.362 496.321 141.362C514.231 141.362 528.75 127.06 528.75 109.417V6.7052" stroke="#4484AB" stroke-width="13" stroke-linecap="round" stroke-linejoin="round"/>
<path class="green-part" d="M470.439 692.14C470.439 675.924 483.493 662.779 499.594 662.779C515.697 662.779 528.75 675.924 528.75 692.14C528.75 708.356 515.697 721.501 499.594 721.501H453.252" stroke="#44AB96" stroke-width="13" stroke-linecap="round" stroke-linejoin="round"/>
<path class="orange-part" d="M558.898 291.499C574.989 291.499 588.033 304.465 588.033 320.461C588.033 336.456 574.989 349.422 558.898 349.422C542.807 349.422 529.763 336.456 529.763 320.461V212.234" stroke="#DA774A" stroke-width="13" stroke-linecap="round" stroke-linejoin="round"/>
<path class="yellow-part" d="M355.817 206.16C355.817 177.363 332.825 154.018 304.463 154.018C276.101 154.018 253.108 177.363 253.108 206.16C253.108 234.956 276.101 258.301 304.463 258.301H439.065" stroke="#FFB017" stroke-width="13" stroke-linecap="round" stroke-linejoin="round"/>
<path class="green-part" d="M766.209 374.734C794.576 374.734 817.565 351.389 817.565 322.592C817.565 293.796 794.576 270.451 766.209 270.451H631.609" stroke="#44AB96" stroke-width="13" stroke-linecap="round" stroke-linejoin="round"/>
<path class="orange-part" fill-rule="evenodd" clip-rule="evenodd" d="M567.765 95.5485C567.765 68.5686 589.421 46.6973 616.135 46.6973H665.83C692.546 46.6973 714.2 68.5686 714.2 95.5485V95.5485C714.2 122.528 692.546 144.4 665.83 144.4H616.135C589.421 144.4 567.765 122.528 567.765 95.5485V95.5485Z" stroke="#DA774A" stroke-width="13" stroke-linecap="round" stroke-linejoin="round"/>
<path class="red-part" d="M426.397 409.411V364.187C426.397 351.28 436.946 340.817 449.959 340.817V340.817C462.971 340.817 473.52 351.28 473.52 364.187V454.634C473.52 467.541 462.971 478.005 449.959 478.005V478.005V478.005C436.946 478.005 426.397 467.541 426.397 454.634V443.708" stroke="#E53855" stroke-width="13" stroke-linecap="round" stroke-linejoin="round"/>
<path class="yellow-part" d="M469.974 167.649V171.592C469.974 194.037 451.712 212.233 429.185 212.233V212.233C406.658 212.233 388.396 194.037 388.396 171.592V47.8505C388.396 25.4053 406.658 7.2099 429.185 7.2099V7.2099C451.712 7.2099 469.974 25.4053 469.974 47.8505V49.0637" stroke="#FFB017" stroke-width="13" stroke-linecap="round" stroke-linejoin="round"/>
<path class="green-part" d="M387.382 340.817V458.078C387.382 493.127 416.079 521.541 451.479 521.541C486.878 521.541 515.575 493.127 515.575 458.078V430.373" stroke="#44AB96" stroke-width="13" stroke-linecap="round" stroke-linejoin="round"/>
<path class="green-part" d="M258.682 539.258H363.974C404.047 539.258 436.532 571.896 436.532 612.155C436.532 652.413 404.047 685.052 363.974 685.052H332.299" stroke="#44AB96" stroke-width="13" stroke-linecap="round" stroke-linejoin="round"/>
<path class="blue-part" d="M303.778 361.572H278.855C262.117 361.572 248.548 347.973 248.548 331.198C248.548 314.423 262.117 300.825 278.855 300.825H328.7C345.439 300.825 359.007 314.423 359.007 331.198V333.897C359.007 349.181 346.644 361.572 331.393 361.572" stroke="#4484AB" stroke-width="13" stroke-linecap="round" stroke-linejoin="round"/>
<path class="green-part" d="M558.898 245.645H587.365C606.482 245.645 621.981 231.027 621.981 212.994C621.981 194.961 606.482 180.342 587.365 180.342H530.431C511.313 180.342 495.815 194.961 495.815 212.994" stroke="#44AB96" stroke-width="13" stroke-linecap="round" stroke-linejoin="round"/>
<path class="green-part" d="M348.873 109.47H280.631C237.447 109.47 202.439 144.6 202.439 187.935" stroke="#44AB96" stroke-width="13" stroke-linecap="round" stroke-linejoin="round"/>
<path class="red-part" d="M741.308 617.643C757.399 617.643 770.443 630.582 770.443 646.539C770.443 662.495 757.399 675.434 741.308 675.434C725.217 675.434 712.173 662.495 712.173 646.539V458.262" stroke="#E53855" stroke-width="13" stroke-linecap="round" stroke-linejoin="round"/>
<path class="green-part" d="M523.176 636.455C523.176 606.82 546.913 582.794 576.194 582.794H669.611" stroke="#44AB96" stroke-width="13" stroke-linecap="round" stroke-linejoin="round"/>
<path class="blue-part" d="M385.355 300.825H435.201C468.677 300.825 495.815 273.627 495.815 240.077" stroke="#4484AB" stroke-width="13" stroke-linecap="round" stroke-linejoin="round"/>
<path class="blue-part" d="M676.198 459.274V486.487C676.198 513.954 653.902 536.221 626.396 536.221H587.526" stroke="#4484AB" stroke-width="13" stroke-linecap="round" stroke-linejoin="round"/>
<path class="orange-part" d="M770.443 323.605H727.877C697.095 323.605 672.144 348.763 672.144 379.796" stroke="#DA774A" stroke-width="13" stroke-linecap="round" stroke-linejoin="round"/>
<path class="green-part" d="M117.315 721.501V675.375C117.315 648.816 138.077 626.568 165.957 620.762" stroke="#44AB96" stroke-width="13" stroke-linecap="round" stroke-linejoin="round"/>
<path class="green-part" d="M227.774 721.247C238.419 721.247 354.138 721.247 419.811 721.247" stroke="#44AB96" stroke-width="13" stroke-linecap="round" stroke-linejoin="round"/>
<path class="green-part" d="M558.391 385.871C558.391 389.766 558.391 438.792 558.391 462.818" stroke="#44AB96" stroke-width="13" stroke-linecap="round" stroke-linejoin="round"/>
<path class="green-part" d="M480.36 594.944C480.36 596.532 480.36 616.528 480.36 626.33" stroke="#44AB96" stroke-width="13" stroke-linecap="round" stroke-linejoin="round"/>
<path class="filed yellow" d="M638.108 303.862C638.108 300.272 635.198 297.362 631.608 297.362C628.019 297.362 625.108 300.272 625.108 303.862H638.108ZM573.632 485.732C570.042 485.732 567.132 488.643 567.132 492.232C567.132 495.822 570.042 498.732 573.632 498.732V485.732ZM490.241 553.008C486.651 553.008 483.741 555.918 483.741 559.508C483.741 563.098 486.651 566.008 490.241 566.008V553.008ZM561.071 508.853C561.071 505.264 558.161 502.353 554.571 502.353C550.981 502.353 548.071 505.264 548.071 508.853H561.071ZM625.108 303.862V375.914H638.108V303.862H625.108ZM625.108 375.914C625.108 383.605 618.805 389.934 610.902 389.934V402.934C625.872 402.934 638.108 390.897 638.108 375.914H625.108ZM610.902 389.934C595.93 389.934 583.697 401.982 583.697 416.962H596.697C596.697 409.267 603.004 402.934 610.902 402.934V389.934ZM583.697 416.962V421.22H596.697V416.962H583.697ZM583.697 421.22C583.697 436.2 595.93 448.248 610.902 448.248V435.248C603.004 435.248 596.697 428.915 596.697 421.22H583.697ZM610.902 448.248C618.801 448.248 625.108 454.581 625.108 462.276H638.108C638.108 447.296 625.875 435.248 610.902 435.248V448.248ZM625.108 462.276V466.99H638.108V462.276H625.108ZM625.108 466.99C625.108 477.289 616.672 485.732 606.148 485.732V498.732C623.746 498.732 638.108 484.574 638.108 466.99H625.108ZM606.148 485.732H592.957V498.732H606.148V485.732ZM592.957 485.732H573.632V498.732H592.957V485.732ZM490.241 566.008H503.808V553.008H490.241V566.008ZM503.808 566.008C535.421 566.008 561.071 540.432 561.071 508.853H548.071C548.071 533.226 528.267 553.008 503.808 553.008V566.008Z" fill="#FFB017"/>
<path class="red-part" d="M757.269 204.095V214.362C757.269 228.844 745.481 240.583 730.95 240.583V240.583C716.412 240.583 704.625 228.844 704.625 214.362V205.858C704.625 191.486 692.929 179.836 678.507 179.836V179.836C664.079 179.836 652.383 191.486 652.383 205.858V216.324" stroke="#E53855" stroke-width="13" stroke-linecap="round" stroke-linejoin="round"/>
<path class="blue-part" fill-rule="evenodd" clip-rule="evenodd" d="M558.645 657.699C558.645 637.301 575.205 620.762 595.633 620.762V620.762C616.059 620.762 632.622 637.301 632.622 657.699V684.563C632.622 704.962 616.059 721.501 595.633 721.501V721.501C575.205 721.501 558.645 704.962 558.645 684.563V657.699Z" stroke="#4484AB" stroke-width="13" stroke-linecap="round" stroke-linejoin="round"/>
</svg>
