<svg width="150" height="142" viewBox="0 0 150 142" fill="none" xmlns="http://www.w3.org/2000/svg">
<path d="M53.8043 0C40.315 0 29.3478 10.9672 29.3478 24.4565C29.3478 28.1377 30.2013 31.6661 31.7935 34.9524C43.7415 27.7047 57.1416 24.0489 72.5543 24.0489C74.4778 24.0489 76.3502 24.24 78.2609 24.3546C78.1844 10.929 67.2427 0 53.8043 0ZM115.048 14.3682C114.755 14.3555 114.423 14.3937 114.13 14.4701C103.036 17.2597 95.1384 23.0936 90.1834 32.4049C84.4514 31.1948 78.5921 30.5707 72.5543 30.5707C55.3838 30.5707 40.8882 35.3728 28.3288 45.1427C22.3548 49.7919 17.9348 56.0207 15.1834 63.3832C12.5977 62.4788 6.52174 59.7019 6.52174 52.8872C6.52174 49.3589 8.16491 46.4292 10.9035 45.2446C12.5594 44.5312 13.3492 42.6206 12.6359 40.9647C11.9226 39.3088 9.99915 38.519 8.35598 39.2323C3.27361 41.4232 0 46.8113 0 52.8872C0 62.81 7.97385 67.9305 13.3492 69.7011C12.2283 74.6051 11.6933 79.8786 11.9226 85.4959C12.5594 100.59 23.412 111.456 30.0611 116.78C30.9783 117.48 30.9528 117.455 30.6726 118.308C29.6663 121.378 27.8702 125.811 27.8193 125.951C26.9786 128.167 27.055 130.613 28.0231 132.779C28.9912 134.944 30.698 136.523 32.9144 137.364L43.4103 141.338C47.8558 143.032 53.2439 140.65 54.9253 136.243C54.9253 136.243 56.2373 132.651 57.3709 129.62C57.4856 129.314 57.6002 129.072 57.6766 128.906C58.1352 128.97 58.8358 129.072 59.5109 129.212C62.1476 129.76 66.1345 130.639 72.5543 130.639C78.3246 130.639 82.1841 130.206 84.7826 129.925C85.9927 129.798 86.9098 129.62 87.6359 129.62C87.6868 129.721 87.776 129.862 87.8397 130.027C88.8842 133.173 90.1707 136.243 90.1834 136.243C91.4699 139.67 94.769 141.95 98.4375 141.95C99.5202 141.95 100.59 141.72 101.596 141.338L112.092 137.364C114.309 136.523 116.016 134.944 116.984 132.779C117.952 130.613 118.028 128.142 117.187 125.951L115.557 121.569C115.493 121.404 115.442 121.315 115.353 121.162C115.353 121.162 115.417 120.945 115.965 120.652C123.671 116.461 129.874 109.889 133.798 101.698C134.524 100.17 134.829 99.7622 136.141 99.7622H141.44C146.153 99.7622 150 95.9154 150 91.2024V75.3057C150 70.58 146.153 66.7459 141.44 66.7459H136.141C135.581 66.7459 135.224 66.6185 135.02 66.5421C134.103 61.2942 129.989 46.1744 112.908 39.1304C113.099 32.8252 114.704 27.6792 118.003 18.75C118.423 17.6163 118.194 16.2916 117.391 15.3872C116.78 14.7121 115.926 14.3937 115.048 14.3682ZM112.398 66.9497C115.837 66.9497 118.614 69.7266 118.614 73.1658C118.614 76.605 115.837 79.4837 112.398 79.4837C108.946 79.4837 106.182 76.6177 106.182 73.1658C106.182 69.7266 108.946 66.9497 112.398 66.9497Z" fill="url(#paint0_linear)"/>
<defs>
<linearGradient id="paint0_linear" x1="1.39698e-07" y1="70.9749" x2="150" y2="70.9749" gradientUnits="userSpaceOnUse">
<stop stop-color="#FAFAFA"/>
<stop offset="1" stop-color="#C4C4C4"/>
</linearGradient>
</defs>
</svg>
