<svg width="150" height="144" viewBox="0 0 150 144" fill="none" xmlns="http://www.w3.org/2000/svg">
<path d="M141.024 64.7727C137.526 64.7727 133.688 67.0738 125.526 71.3079C118.766 74.8192 112.514 78.1567 108.542 80.5908C108.886 82.084 109.091 83.6317 109.091 85.2272C109.091 96.5079 99.9137 105.682 88.6364 105.682H63.0683C60.2455 105.682 57.9546 103.394 57.9546 100.568C57.9546 97.7419 60.2455 95.4544 63.0683 95.4544H88.6364C94.275 95.4544 98.8637 90.8658 98.8637 85.2272C98.8637 82.1692 97.4864 79.4522 95.3523 77.5738C92.9285 75.9715 90.0512 74.9999 86.9319 74.9999H71.9558H69.8864C69.7876 74.9999 69.6955 74.9761 69.5967 74.9692C60.6103 74.8295 56.2944 73.9022 52.5001 73.067C49.0501 72.3067 45.791 71.5908 40.3194 71.5908C15.324 71.5908 1.05355 102.276 0.460365 103.582C-0.310089 105.273 -0.102135 107.243 0.999 108.736L24.8626 141.102C25.8342 142.421 27.3649 143.165 28.9672 143.165C29.291 143.165 29.6115 143.134 29.9353 143.073C31.8649 142.704 33.4262 141.245 33.9274 139.346C34.1967 138.341 36.8012 129.545 46.0228 129.545C52.6774 129.545 59.5603 130.404 66.2183 131.233C72.9989 132.082 80.0148 132.954 86.9319 132.954C96.3512 132.954 103.132 125.731 122.727 105.682C147.62 80.2124 150 77.9863 150 72.9374C150 68.567 146.165 64.7727 141.024 64.7727ZM111.433 36.2727C110.209 35.3556 109.49 33.9136 109.49 32.3863C109.49 30.8591 110.209 29.417 111.433 28.5L113.523 26.9318C114.569 26.1477 115.088 24.7943 114.733 23.5363C113.247 18.3102 110.475 13.6329 106.786 9.84544C105.876 8.90795 104.448 8.68295 103.248 9.19772L100.875 10.2102C99.4671 10.8102 97.8614 10.7148 96.5353 9.95113C95.2125 9.18749 94.3228 7.84431 94.1421 6.32386L93.8285 3.72954C93.6716 2.43409 92.7648 1.3125 91.5 0.992044C88.9671 0.347727 86.3148 0 83.5807 0C80.8467 0 78.1978 0.347727 75.6614 0.988635C74.3932 1.30909 73.4898 2.43068 73.333 3.72613L73.0228 6.32045C72.8387 7.83749 71.9523 9.18408 70.6296 9.94772C69.3069 10.7114 67.6978 10.8102 66.2898 10.2068L63.9171 9.19431C62.7171 8.67954 61.2887 8.90795 60.3785 9.84204C56.6899 13.6295 53.9183 18.3068 52.4319 23.5329C52.0739 24.7909 52.5921 26.1443 53.6421 26.9284L55.7319 28.4966C56.9558 29.4136 57.6751 30.8556 57.6751 32.3829C57.6751 33.9102 56.9558 35.3522 55.7319 36.2693L53.6421 37.8375C52.5955 38.6216 52.0774 39.975 52.4319 41.2329C53.9183 46.459 56.6899 51.1363 60.3785 54.9238C61.2887 55.8613 62.7171 56.0863 63.9171 55.5715L66.2898 54.559C67.6978 53.959 69.3035 54.0545 70.6296 54.8181C71.9523 55.5818 72.8421 56.9249 73.0228 58.4454L73.3364 61.0397C73.4932 62.3352 74.4001 63.4568 75.6648 63.7806C78.1978 64.4215 80.8501 64.7693 83.5841 64.7693C86.3182 64.7693 88.9671 64.4215 91.5035 63.7806C92.7716 63.4602 93.675 62.3386 93.8319 61.0397L94.1455 58.4454C94.3296 56.9283 95.216 55.5818 96.5387 54.8181C97.8614 54.0545 99.4705 53.9556 100.878 54.559L103.251 55.5715C104.451 56.0863 105.88 55.8579 106.79 54.9238C110.478 51.1363 113.25 46.459 114.736 41.2329C115.094 39.975 114.576 38.6216 113.526 37.8375L111.433 36.2727ZM83.5807 40.909C78.8728 40.909 75.058 37.0943 75.058 32.3863C75.058 27.6784 78.8728 23.8636 83.5807 23.8636C88.2887 23.8636 92.1035 27.6784 92.1035 32.3863C92.1035 37.0943 88.2887 40.909 83.5807 40.909Z" fill="url(#paint0_linear)"/>
<defs>
<linearGradient id="paint0_linear" x1="1.39698e-07" y1="71.5823" x2="150" y2="71.5823" gradientUnits="userSpaceOnUse">
<stop stop-color="#FAFAFA"/>
<stop offset="1" stop-color="#C4C4C4"/>
</linearGradient>
</defs>
</svg>
