<svg width="98" height="78" viewBox="0 0 98 78" fill="none" xmlns="http://www.w3.org/2000/svg">
<path d="M97.0106 0.477783C93.2647 2.70132 85.7489 5.73166 81.3306 6.60571C81.201 6.63932 81.0953 6.68254 80.9705 6.71616C77.0661 2.8646 71.7161 0.477783 65.7947 0.477783C53.8606 0.477783 44.1837 10.1547 44.1837 22.0888C44.1837 22.7179 44.1309 23.8753 44.1837 24.49C28.0811 24.49 15.8252 16.0569 7.03677 5.28023C6.08108 7.68145 5.66327 11.4754 5.66327 15.0388C5.66327 21.767 10.9219 28.3752 19.1101 32.4717C17.6021 32.8607 15.9405 33.1392 14.2116 33.1392C11.4214 33.1392 8.4679 32.4044 5.76412 30.1761C5.76412 30.2578 5.76412 30.3346 5.76412 30.421C5.76412 39.8242 15.7436 46.2259 24.6185 48.0076C22.8176 49.0689 19.187 49.1746 17.4149 49.1746C16.1662 49.1746 11.748 48.6031 10.5666 48.3822C13.035 56.0901 21.9388 60.4219 30.4247 60.5756C23.7877 65.7815 19.1822 67.712 5.59123 67.712H0.96167C9.54845 73.2156 20.4836 77.3217 31.4428 77.3217C67.125 77.3217 87.4057 50.1255 87.4057 24.49C87.4057 24.077 87.3961 23.2126 87.3817 22.3433C87.3817 22.2569 87.4057 22.1752 87.4057 22.0888C87.4057 21.9591 87.3673 21.8343 87.3673 21.7046C87.3529 21.0515 87.3385 20.4416 87.3241 20.1246C91.118 17.3872 94.4077 13.9727 97.0106 10.0827C93.5289 11.6291 89.7925 12.6664 85.8689 13.137C89.8742 10.7358 95.5651 5.01129 97.0106 0.477783Z" fill="white"/>
</svg>
