<svg xmlns="http://www.w3.org/2000/svg" width="259" height="124" viewBox="0 0 259 124">
    <path fill="#4B6EB2" fill-rule="nonzero" d="M.5 120.705a2.8 2.8 0 0 1 2.804-2.796 2.8 2.8 0 0 1 2.805 2.796 2.8 2.8 0 0 1-2.805 2.795A2.8 2.8 0 0 1 .5 120.705zm0-16.773a2.8 2.8 0 0 1 2.804-2.796 2.8 2.8 0 0 1 2.805 2.796 2.8 2.8 0 0 1-2.805 2.795A2.8 2.8 0 0 1 .5 103.932zm0-16.773a2.8 2.8 0 0 1 2.804-2.795 2.8 2.8 0 0 1 2.805 2.795 2.8 2.8 0 0 1-2.805 2.796A2.8 2.8 0 0 1 .5 87.159zm0-16.773a2.8 2.8 0 0 1 2.804-2.795 2.8 2.8 0 0 1 2.805 2.795 2.8 2.8 0 0 1-2.805 2.796A2.8 2.8 0 0 1 .5 70.386zm0-16.772a2.8 2.8 0 0 1 2.804-2.796 2.8 2.8 0 0 1 2.805 2.796 2.8 2.8 0 0 1-2.805 2.795A2.8 2.8 0 0 1 .5 53.614zm0-16.773a2.8 2.8 0 0 1 2.804-2.796 2.8 2.8 0 0 1 2.805 2.796 2.8 2.8 0 0 1-2.805 2.795A2.8 2.8 0 0 1 .5 36.841zm0-16.773a2.8 2.8 0 0 1 2.804-2.795 2.8 2.8 0 0 1 2.805 2.795 2.8 2.8 0 0 1-2.805 2.796A2.8 2.8 0 0 1 .5 20.068zm0-16.773A2.8 2.8 0 0 1 3.304.5 2.8 2.8 0 0 1 6.11 3.295a2.8 2.8 0 0 1-2.805 2.796A2.8 2.8 0 0 1 .5 3.295zm16.826 117.41a2.8 2.8 0 0 1 2.804-2.796 2.8 2.8 0 0 1 2.805 2.796 2.8 2.8 0 0 1-2.805 2.795 2.8 2.8 0 0 1-2.804-2.795zm0-16.773a2.8 2.8 0 0 1 2.804-2.796 2.8 2.8 0 0 1 2.805 2.796 2.8 2.8 0 0 1-2.805 2.795 2.8 2.8 0 0 1-2.804-2.795zm0-16.773a2.8 2.8 0 0 1 2.804-2.795 2.8 2.8 0 0 1 2.805 2.795 2.8 2.8 0 0 1-2.805 2.796 2.8 2.8 0 0 1-2.804-2.796zm0-16.773a2.8 2.8 0 0 1 2.804-2.795 2.8 2.8 0 0 1 2.805 2.795 2.8 2.8 0 0 1-2.805 2.796 2.8 2.8 0 0 1-2.804-2.796zm0-16.772a2.8 2.8 0 0 1 2.804-2.796 2.8 2.8 0 0 1 2.805 2.796 2.8 2.8 0 0 1-2.805 2.795 2.8 2.8 0 0 1-2.804-2.795zm0-16.773a2.8 2.8 0 0 1 2.804-2.796 2.8 2.8 0 0 1 2.805 2.796 2.8 2.8 0 0 1-2.805 2.795 2.8 2.8 0 0 1-2.804-2.795zm0-16.773a2.8 2.8 0 0 1 2.804-2.795 2.8 2.8 0 0 1 2.805 2.795 2.8 2.8 0 0 1-2.805 2.796 2.8 2.8 0 0 1-2.804-2.796zm0-16.773A2.8 2.8 0 0 1 20.13.5a2.8 2.8 0 0 1 2.805 2.795 2.8 2.8 0 0 1-2.805 2.796 2.8 2.8 0 0 1-2.804-2.796zm16.826 117.41a2.8 2.8 0 0 1 2.805-2.796 2.8 2.8 0 0 1 2.804 2.796 2.8 2.8 0 0 1-2.804 2.795 2.8 2.8 0 0 1-2.805-2.795zm0-16.773a2.8 2.8 0 0 1 2.805-2.796 2.8 2.8 0 0 1 2.804 2.796 2.8 2.8 0 0 1-2.804 2.795 2.8 2.8 0 0 1-2.805-2.795zm0-16.773a2.8 2.8 0 0 1 2.805-2.795 2.8 2.8 0 0 1 2.804 2.795 2.8 2.8 0 0 1-2.804 2.796 2.8 2.8 0 0 1-2.805-2.796zm0-16.773a2.8 2.8 0 0 1 2.805-2.795 2.8 2.8 0 0 1 2.804 2.795 2.8 2.8 0 0 1-2.804 2.796 2.8 2.8 0 0 1-2.805-2.796zm0-16.772a2.8 2.8 0 0 1 2.805-2.796 2.8 2.8 0 0 1 2.804 2.796 2.8 2.8 0 0 1-2.804 2.795 2.8 2.8 0 0 1-2.805-2.795zm0-16.773a2.8 2.8 0 0 1 2.805-2.796 2.8 2.8 0 0 1 2.804 2.796 2.8 2.8 0 0 1-2.804 2.795 2.8 2.8 0 0 1-2.805-2.795zm0-16.773a2.8 2.8 0 0 1 2.805-2.795 2.8 2.8 0 0 1 2.804 2.795 2.8 2.8 0 0 1-2.804 2.796 2.8 2.8 0 0 1-2.805-2.796zm0-16.773A2.8 2.8 0 0 1 36.957.5a2.8 2.8 0 0 1 2.804 2.795 2.8 2.8 0 0 1-2.804 2.796 2.8 2.8 0 0 1-2.805-2.796zm16.826 117.41a2.8 2.8 0 0 1 2.805-2.796 2.8 2.8 0 0 1 2.804 2.796 2.8 2.8 0 0 1-2.804 2.795 2.8 2.8 0 0 1-2.805-2.795zm0-16.773a2.8 2.8 0 0 1 2.805-2.796 2.8 2.8 0 0 1 2.804 2.796 2.8 2.8 0 0 1-2.804 2.795 2.8 2.8 0 0 1-2.805-2.795zm0-16.773a2.8 2.8 0 0 1 2.805-2.795 2.8 2.8 0 0 1 2.804 2.795 2.8 2.8 0 0 1-2.804 2.796 2.8 2.8 0 0 1-2.805-2.796zm0-16.773a2.8 2.8 0 0 1 2.805-2.795 2.8 2.8 0 0 1 2.804 2.795 2.8 2.8 0 0 1-2.804 2.796 2.8 2.8 0 0 1-2.805-2.796zm0-16.772a2.8 2.8 0 0 1 2.805-2.796 2.8 2.8 0 0 1 2.804 2.796 2.8 2.8 0 0 1-2.804 2.795 2.8 2.8 0 0 1-2.805-2.795zm0-16.773a2.8 2.8 0 0 1 2.805-2.796 2.8 2.8 0 0 1 2.804 2.796 2.8 2.8 0 0 1-2.804 2.795 2.8 2.8 0 0 1-2.805-2.795zm0-16.773a2.8 2.8 0 0 1 2.805-2.795 2.8 2.8 0 0 1 2.804 2.795 2.8 2.8 0 0 1-2.804 2.796 2.8 2.8 0 0 1-2.805-2.796zm0-16.773A2.8 2.8 0 0 1 53.783.5a2.8 2.8 0 0 1 2.804 2.795 2.8 2.8 0 0 1-2.804 2.796 2.8 2.8 0 0 1-2.805-2.796zm16.826 117.41a2.8 2.8 0 0 1 2.805-2.796 2.8 2.8 0 0 1 2.804 2.796 2.8 2.8 0 0 1-2.804 2.795 2.8 2.8 0 0 1-2.805-2.795zm0-16.773a2.8 2.8 0 0 1 2.805-2.796 2.8 2.8 0 0 1 2.804 2.796 2.8 2.8 0 0 1-2.804 2.795 2.8 2.8 0 0 1-2.805-2.795zm0-16.773a2.8 2.8 0 0 1 2.805-2.795 2.8 2.8 0 0 1 2.804 2.795 2.8 2.8 0 0 1-2.804 2.796 2.8 2.8 0 0 1-2.805-2.796zm0-16.773a2.8 2.8 0 0 1 2.805-2.795 2.8 2.8 0 0 1 2.804 2.795 2.8 2.8 0 0 1-2.804 2.796 2.8 2.8 0 0 1-2.805-2.796zm0-16.772a2.8 2.8 0 0 1 2.805-2.796 2.8 2.8 0 0 1 2.804 2.796 2.8 2.8 0 0 1-2.804 2.795 2.8 2.8 0 0 1-2.805-2.795zm0-16.773a2.8 2.8 0 0 1 2.805-2.796 2.8 2.8 0 0 1 2.804 2.796 2.8 2.8 0 0 1-2.804 2.795 2.8 2.8 0 0 1-2.805-2.795zm0-16.773a2.8 2.8 0 0 1 2.805-2.795 2.8 2.8 0 0 1 2.804 2.795 2.8 2.8 0 0 1-2.804 2.796 2.8 2.8 0 0 1-2.805-2.796zm0-16.773A2.8 2.8 0 0 1 70.61.5a2.8 2.8 0 0 1 2.804 2.795 2.8 2.8 0 0 1-2.804 2.796 2.8 2.8 0 0 1-2.805-2.796zm16.826 117.41a2.8 2.8 0 0 1 2.805-2.796 2.8 2.8 0 0 1 2.804 2.796 2.8 2.8 0 0 1-2.804 2.795 2.8 2.8 0 0 1-2.805-2.795zm0-16.773a2.8 2.8 0 0 1 2.805-2.796 2.8 2.8 0 0 1 2.804 2.796 2.8 2.8 0 0 1-2.804 2.795 2.8 2.8 0 0 1-2.805-2.795zm0-16.773a2.8 2.8 0 0 1 2.805-2.795 2.8 2.8 0 0 1 2.804 2.795 2.8 2.8 0 0 1-2.804 2.796 2.8 2.8 0 0 1-2.805-2.796zm0-16.773a2.8 2.8 0 0 1 2.805-2.795 2.8 2.8 0 0 1 2.804 2.795 2.8 2.8 0 0 1-2.804 2.796 2.8 2.8 0 0 1-2.805-2.796zm0-16.772a2.8 2.8 0 0 1 2.805-2.796 2.8 2.8 0 0 1 2.804 2.796 2.8 2.8 0 0 1-2.804 2.795 2.8 2.8 0 0 1-2.805-2.795zm0-16.773a2.8 2.8 0 0 1 2.805-2.796 2.8 2.8 0 0 1 2.804 2.796 2.8 2.8 0 0 1-2.804 2.795 2.8 2.8 0 0 1-2.805-2.795zm0-16.773a2.8 2.8 0 0 1 2.805-2.795 2.8 2.8 0 0 1 2.804 2.795 2.8 2.8 0 0 1-2.804 2.796 2.8 2.8 0 0 1-2.805-2.796zm0-16.773A2.8 2.8 0 0 1 87.435.5a2.8 2.8 0 0 1 2.804 2.795 2.8 2.8 0 0 1-2.804 2.796 2.8 2.8 0 0 1-2.805-2.796zm16.827 117.41a2.8 2.8 0 0 1 2.804-2.796 2.8 2.8 0 0 1 2.804 2.796 2.8 2.8 0 0 1-2.804 2.795 2.8 2.8 0 0 1-2.804-2.795zm0-16.773a2.8 2.8 0 0 1 2.804-2.796 2.8 2.8 0 0 1 2.804 2.796 2.8 2.8 0 0 1-2.804 2.795 2.8 2.8 0 0 1-2.804-2.795zm0-16.773a2.8 2.8 0 0 1 2.804-2.795 2.8 2.8 0 0 1 2.804 2.795 2.8 2.8 0 0 1-2.804 2.796 2.8 2.8 0 0 1-2.804-2.796zm0-16.773a2.8 2.8 0 0 1 2.804-2.795 2.8 2.8 0 0 1 2.804 2.795 2.8 2.8 0 0 1-2.804 2.796 2.8 2.8 0 0 1-2.804-2.796zm0-16.772a2.8 2.8 0 0 1 2.804-2.796 2.8 2.8 0 0 1 2.804 2.796 2.8 2.8 0 0 1-2.804 2.795 2.8 2.8 0 0 1-2.804-2.795zm0-16.773a2.8 2.8 0 0 1 2.804-2.796 2.8 2.8 0 0 1 2.804 2.796 2.8 2.8 0 0 1-2.804 2.795 2.8 2.8 0 0 1-2.804-2.795zm0-16.773a2.8 2.8 0 0 1 2.804-2.795 2.8 2.8 0 0 1 2.804 2.795 2.8 2.8 0 0 1-2.804 2.796 2.8 2.8 0 0 1-2.804-2.796zm0-16.773A2.8 2.8 0 0 1 104.26.5a2.8 2.8 0 0 1 2.804 2.795 2.8 2.8 0 0 1-2.804 2.796 2.8 2.8 0 0 1-2.804-2.796zm16.826 117.41a2.8 2.8 0 0 1 2.804-2.796 2.8 2.8 0 0 1 2.804 2.796 2.8 2.8 0 0 1-2.804 2.795 2.8 2.8 0 0 1-2.804-2.795zm0-16.773a2.8 2.8 0 0 1 2.804-2.796 2.8 2.8 0 0 1 2.804 2.796 2.8 2.8 0 0 1-2.804 2.795 2.8 2.8 0 0 1-2.804-2.795zm0-16.773a2.8 2.8 0 0 1 2.804-2.795 2.8 2.8 0 0 1 2.804 2.795 2.8 2.8 0 0 1-2.804 2.796 2.8 2.8 0 0 1-2.804-2.796zm0-16.773a2.8 2.8 0 0 1 2.804-2.795 2.8 2.8 0 0 1 2.804 2.795 2.8 2.8 0 0 1-2.804 2.796 2.8 2.8 0 0 1-2.804-2.796zm0-16.772a2.8 2.8 0 0 1 2.804-2.796 2.8 2.8 0 0 1 2.804 2.796 2.8 2.8 0 0 1-2.804 2.795 2.8 2.8 0 0 1-2.804-2.795zm0-16.773a2.8 2.8 0 0 1 2.804-2.796 2.8 2.8 0 0 1 2.804 2.796 2.8 2.8 0 0 1-2.804 2.795 2.8 2.8 0 0 1-2.804-2.795zm0-16.773a2.8 2.8 0 0 1 2.804-2.795 2.8 2.8 0 0 1 2.804 2.795 2.8 2.8 0 0 1-2.804 2.796 2.8 2.8 0 0 1-2.804-2.796zm0-16.773A2.8 2.8 0 0 1 121.087.5a2.8 2.8 0 0 1 2.804 2.795 2.8 2.8 0 0 1-2.804 2.796 2.8 2.8 0 0 1-2.804-2.796zm16.826 117.41a2.8 2.8 0 0 1 2.804-2.796 2.8 2.8 0 0 1 2.804 2.796 2.8 2.8 0 0 1-2.804 2.795 2.8 2.8 0 0 1-2.804-2.795zm0-16.773a2.8 2.8 0 0 1 2.804-2.796 2.8 2.8 0 0 1 2.804 2.796 2.8 2.8 0 0 1-2.804 2.795 2.8 2.8 0 0 1-2.804-2.795zm0-16.773a2.8 2.8 0 0 1 2.804-2.795 2.8 2.8 0 0 1 2.804 2.795 2.8 2.8 0 0 1-2.804 2.796 2.8 2.8 0 0 1-2.804-2.796zm0-16.773a2.8 2.8 0 0 1 2.804-2.795 2.8 2.8 0 0 1 2.804 2.795 2.8 2.8 0 0 1-2.804 2.796 2.8 2.8 0 0 1-2.804-2.796zm0-16.772a2.8 2.8 0 0 1 2.804-2.796 2.8 2.8 0 0 1 2.804 2.796 2.8 2.8 0 0 1-2.804 2.795 2.8 2.8 0 0 1-2.804-2.795zm0-16.773a2.8 2.8 0 0 1 2.804-2.796 2.8 2.8 0 0 1 2.804 2.796 2.8 2.8 0 0 1-2.804 2.795 2.8 2.8 0 0 1-2.804-2.795zm0-16.773a2.8 2.8 0 0 1 2.804-2.795 2.8 2.8 0 0 1 2.804 2.795 2.8 2.8 0 0 1-2.804 2.796 2.8 2.8 0 0 1-2.804-2.796zm0-16.773A2.8 2.8 0 0 1 137.913.5a2.8 2.8 0 0 1 2.804 2.795 2.8 2.8 0 0 1-2.804 2.796 2.8 2.8 0 0 1-2.804-2.796zm16.826 117.41a2.8 2.8 0 0 1 2.804-2.796 2.8 2.8 0 0 1 2.804 2.796 2.8 2.8 0 0 1-2.804 2.795 2.8 2.8 0 0 1-2.804-2.795zm0-16.773a2.8 2.8 0 0 1 2.804-2.796 2.8 2.8 0 0 1 2.804 2.796 2.8 2.8 0 0 1-2.804 2.795 2.8 2.8 0 0 1-2.804-2.795zm0-16.773a2.8 2.8 0 0 1 2.804-2.795 2.8 2.8 0 0 1 2.804 2.795 2.8 2.8 0 0 1-2.804 2.796 2.8 2.8 0 0 1-2.804-2.796zm0-16.773a2.8 2.8 0 0 1 2.804-2.795 2.8 2.8 0 0 1 2.804 2.795 2.8 2.8 0 0 1-2.804 2.796 2.8 2.8 0 0 1-2.804-2.796zm0-16.772a2.8 2.8 0 0 1 2.804-2.796 2.8 2.8 0 0 1 2.804 2.796 2.8 2.8 0 0 1-2.804 2.795 2.8 2.8 0 0 1-2.804-2.795zm0-16.773a2.8 2.8 0 0 1 2.804-2.796 2.8 2.8 0 0 1 2.804 2.796 2.8 2.8 0 0 1-2.804 2.795 2.8 2.8 0 0 1-2.804-2.795zm0-16.773a2.8 2.8 0 0 1 2.804-2.795 2.8 2.8 0 0 1 2.804 2.795 2.8 2.8 0 0 1-2.804 2.796 2.8 2.8 0 0 1-2.804-2.796zm0-16.773A2.8 2.8 0 0 1 154.739.5a2.8 2.8 0 0 1 2.804 2.795 2.8 2.8 0 0 1-2.804 2.796 2.8 2.8 0 0 1-2.804-2.796zm16.826 117.41a2.8 2.8 0 0 1 2.804-2.796 2.8 2.8 0 0 1 2.805 2.796 2.8 2.8 0 0 1-2.805 2.795 2.8 2.8 0 0 1-2.804-2.795zm0-16.773a2.8 2.8 0 0 1 2.804-2.796 2.8 2.8 0 0 1 2.805 2.796 2.8 2.8 0 0 1-2.805 2.795 2.8 2.8 0 0 1-2.804-2.795zm0-16.773a2.8 2.8 0 0 1 2.804-2.795 2.8 2.8 0 0 1 2.805 2.795 2.8 2.8 0 0 1-2.805 2.796 2.8 2.8 0 0 1-2.804-2.796zm0-16.773a2.8 2.8 0 0 1 2.804-2.795 2.8 2.8 0 0 1 2.805 2.795 2.8 2.8 0 0 1-2.805 2.796 2.8 2.8 0 0 1-2.804-2.796zm0-16.772a2.8 2.8 0 0 1 2.804-2.796 2.8 2.8 0 0 1 2.805 2.796 2.8 2.8 0 0 1-2.805 2.795 2.8 2.8 0 0 1-2.804-2.795zm0-16.773a2.8 2.8 0 0 1 2.804-2.796 2.8 2.8 0 0 1 2.805 2.796 2.8 2.8 0 0 1-2.805 2.795 2.8 2.8 0 0 1-2.804-2.795zm0-16.773a2.8 2.8 0 0 1 2.804-2.795 2.8 2.8 0 0 1 2.805 2.795 2.8 2.8 0 0 1-2.805 2.796 2.8 2.8 0 0 1-2.804-2.796zm0-16.773A2.8 2.8 0 0 1 171.565.5a2.8 2.8 0 0 1 2.805 2.795 2.8 2.8 0 0 1-2.805 2.796 2.8 2.8 0 0 1-2.804-2.796zm16.826 117.41a2.8 2.8 0 0 1 2.804-2.796 2.8 2.8 0 0 1 2.805 2.796 2.8 2.8 0 0 1-2.805 2.795 2.8 2.8 0 0 1-2.804-2.795zm0-16.773a2.8 2.8 0 0 1 2.804-2.796 2.8 2.8 0 0 1 2.805 2.796 2.8 2.8 0 0 1-2.805 2.795 2.8 2.8 0 0 1-2.804-2.795zm0-16.773a2.8 2.8 0 0 1 2.804-2.795 2.8 2.8 0 0 1 2.805 2.795 2.8 2.8 0 0 1-2.805 2.796 2.8 2.8 0 0 1-2.804-2.796zm0-16.773a2.8 2.8 0 0 1 2.804-2.795 2.8 2.8 0 0 1 2.805 2.795 2.8 2.8 0 0 1-2.805 2.796 2.8 2.8 0 0 1-2.804-2.796zm0-16.772a2.8 2.8 0 0 1 2.804-2.796 2.8 2.8 0 0 1 2.805 2.796 2.8 2.8 0 0 1-2.805 2.795 2.8 2.8 0 0 1-2.804-2.795zm0-16.773a2.8 2.8 0 0 1 2.804-2.796 2.8 2.8 0 0 1 2.805 2.796 2.8 2.8 0 0 1-2.805 2.795 2.8 2.8 0 0 1-2.804-2.795zm0-16.773a2.8 2.8 0 0 1 2.804-2.795 2.8 2.8 0 0 1 2.805 2.795 2.8 2.8 0 0 1-2.805 2.796 2.8 2.8 0 0 1-2.804-2.796zm0-16.773A2.8 2.8 0 0 1 188.391.5a2.8 2.8 0 0 1 2.805 2.795 2.8 2.8 0 0 1-2.805 2.796 2.8 2.8 0 0 1-2.804-2.796zm16.826 117.41a2.8 2.8 0 0 1 2.804-2.796 2.8 2.8 0 0 1 2.805 2.796 2.8 2.8 0 0 1-2.805 2.795 2.8 2.8 0 0 1-2.804-2.795zm0-16.773a2.8 2.8 0 0 1 2.804-2.796 2.8 2.8 0 0 1 2.805 2.796 2.8 2.8 0 0 1-2.805 2.795 2.8 2.8 0 0 1-2.804-2.795zm0-16.773a2.8 2.8 0 0 1 2.804-2.795 2.8 2.8 0 0 1 2.805 2.795 2.8 2.8 0 0 1-2.805 2.796 2.8 2.8 0 0 1-2.804-2.796zm0-16.773a2.8 2.8 0 0 1 2.804-2.795 2.8 2.8 0 0 1 2.805 2.795 2.8 2.8 0 0 1-2.805 2.796 2.8 2.8 0 0 1-2.804-2.796zm0-16.772a2.8 2.8 0 0 1 2.804-2.796 2.8 2.8 0 0 1 2.805 2.796 2.8 2.8 0 0 1-2.805 2.795 2.8 2.8 0 0 1-2.804-2.795zm0-16.773a2.8 2.8 0 0 1 2.804-2.796 2.8 2.8 0 0 1 2.805 2.796 2.8 2.8 0 0 1-2.805 2.795 2.8 2.8 0 0 1-2.804-2.795zm0-16.773a2.8 2.8 0 0 1 2.804-2.795 2.8 2.8 0 0 1 2.805 2.795 2.8 2.8 0 0 1-2.805 2.796 2.8 2.8 0 0 1-2.804-2.796zm0-16.773A2.8 2.8 0 0 1 205.217.5a2.8 2.8 0 0 1 2.805 2.795 2.8 2.8 0 0 1-2.805 2.796 2.8 2.8 0 0 1-2.804-2.796zm16.826 117.41a2.8 2.8 0 0 1 2.804-2.796 2.8 2.8 0 0 1 2.805 2.796 2.8 2.8 0 0 1-2.805 2.795 2.8 2.8 0 0 1-2.804-2.795zm0-16.773a2.8 2.8 0 0 1 2.804-2.796 2.8 2.8 0 0 1 2.805 2.796 2.8 2.8 0 0 1-2.805 2.795 2.8 2.8 0 0 1-2.804-2.795zm0-16.773a2.8 2.8 0 0 1 2.804-2.795 2.8 2.8 0 0 1 2.805 2.795 2.8 2.8 0 0 1-2.805 2.796 2.8 2.8 0 0 1-2.804-2.796zm0-16.773a2.8 2.8 0 0 1 2.804-2.795 2.8 2.8 0 0 1 2.805 2.795 2.8 2.8 0 0 1-2.805 2.796 2.8 2.8 0 0 1-2.804-2.796zm0-16.772a2.8 2.8 0 0 1 2.804-2.796 2.8 2.8 0 0 1 2.805 2.796 2.8 2.8 0 0 1-2.805 2.795 2.8 2.8 0 0 1-2.804-2.795zm0-16.773a2.8 2.8 0 0 1 2.804-2.796 2.8 2.8 0 0 1 2.805 2.796 2.8 2.8 0 0 1-2.805 2.795 2.8 2.8 0 0 1-2.804-2.795zm0-16.773a2.8 2.8 0 0 1 2.804-2.795 2.8 2.8 0 0 1 2.805 2.795 2.8 2.8 0 0 1-2.805 2.796 2.8 2.8 0 0 1-2.804-2.796zm0-16.773A2.8 2.8 0 0 1 222.043.5a2.8 2.8 0 0 1 2.805 2.795 2.8 2.8 0 0 1-2.805 2.796 2.8 2.8 0 0 1-2.804-2.796zm16.826 117.41a2.8 2.8 0 0 1 2.805-2.796 2.8 2.8 0 0 1 2.804 2.796 2.8 2.8 0 0 1-2.804 2.795 2.8 2.8 0 0 1-2.805-2.795zm0-16.773a2.8 2.8 0 0 1 2.805-2.796 2.8 2.8 0 0 1 2.804 2.796 2.8 2.8 0 0 1-2.804 2.795 2.8 2.8 0 0 1-2.805-2.795zm0-16.773a2.8 2.8 0 0 1 2.805-2.795 2.8 2.8 0 0 1 2.804 2.795 2.8 2.8 0 0 1-2.804 2.796 2.8 2.8 0 0 1-2.805-2.796zm0-16.773a2.8 2.8 0 0 1 2.805-2.795 2.8 2.8 0 0 1 2.804 2.795 2.8 2.8 0 0 1-2.804 2.796 2.8 2.8 0 0 1-2.805-2.796zm0-16.772a2.8 2.8 0 0 1 2.805-2.796 2.8 2.8 0 0 1 2.804 2.796 2.8 2.8 0 0 1-2.804 2.795 2.8 2.8 0 0 1-2.805-2.795zm0-16.773a2.8 2.8 0 0 1 2.805-2.796 2.8 2.8 0 0 1 2.804 2.796 2.8 2.8 0 0 1-2.804 2.795 2.8 2.8 0 0 1-2.805-2.795zm0-16.773a2.8 2.8 0 0 1 2.805-2.795 2.8 2.8 0 0 1 2.804 2.795 2.8 2.8 0 0 1-2.804 2.796 2.8 2.8 0 0 1-2.805-2.796zm0-16.773A2.8 2.8 0 0 1 238.87.5a2.8 2.8 0 0 1 2.804 2.795 2.8 2.8 0 0 1-2.804 2.796 2.8 2.8 0 0 1-2.805-2.796zm16.826 117.41a2.8 2.8 0 0 1 2.805-2.796 2.8 2.8 0 0 1 2.804 2.796 2.8 2.8 0 0 1-2.804 2.795 2.8 2.8 0 0 1-2.805-2.795zm0-16.773a2.8 2.8 0 0 1 2.805-2.796 2.8 2.8 0 0 1 2.804 2.796 2.8 2.8 0 0 1-2.804 2.795 2.8 2.8 0 0 1-2.805-2.795zm0-16.773a2.8 2.8 0 0 1 2.805-2.795 2.8 2.8 0 0 1 2.804 2.795 2.8 2.8 0 0 1-2.804 2.796 2.8 2.8 0 0 1-2.805-2.796zm0-16.773a2.8 2.8 0 0 1 2.805-2.795 2.8 2.8 0 0 1 2.804 2.795 2.8 2.8 0 0 1-2.804 2.796 2.8 2.8 0 0 1-2.805-2.796zm0-16.772a2.8 2.8 0 0 1 2.805-2.796 2.8 2.8 0 0 1 2.804 2.796 2.8 2.8 0 0 1-2.804 2.795 2.8 2.8 0 0 1-2.805-2.795zm0-16.773a2.8 2.8 0 0 1 2.805-2.796 2.8 2.8 0 0 1 2.804 2.796 2.8 2.8 0 0 1-2.804 2.795 2.8 2.8 0 0 1-2.805-2.795zm0-16.773a2.8 2.8 0 0 1 2.805-2.795 2.8 2.8 0 0 1 2.804 2.795 2.8 2.8 0 0 1-2.804 2.796 2.8 2.8 0 0 1-2.805-2.796zm0-16.773A2.8 2.8 0 0 1 255.696.5a2.8 2.8 0 0 1 2.804 2.795 2.8 2.8 0 0 1-2.804 2.796 2.8 2.8 0 0 1-2.805-2.796z"/>
</svg>
