<svg xmlns="http://www.w3.org/2000/svg" xmlns:xlink="http://www.w3.org/1999/xlink" width="111" height="70" viewBox="0 0 111 70">
    <defs>
        <path id="a" d="M.02.007h45.358v5.552H.021z"/>
        <path id="c" d="M6.602 13.192a6.503 6.503 0 0 0 6.511-6.496c.003-3.59-2.91-6.5-6.505-6.502A6.505 6.505 0 0 0 .095 6.69a6.503 6.503 0 0 0 6.507 6.502z"/>
    </defs>
    <g fill="none" fill-rule="evenodd">
        <path fill="#E5EBF1" d="M64.823 36.585V6.18h45.357v22.614a2.108 2.108 0 0 1-2.107 2.108H71.28l-6.458 5.683z"/>
        <g transform="translate(64.802 .621)">
            <mask id="b" fill="#fff">
                <use xlink:href="#a"/>
            </mask>
            <path fill="#0463E0" d="M43.422.006H1.977C.897.006.021.882.021 1.962V5.56h45.357V1.962c0-1.08-.876-1.956-1.956-1.956" mask="url(#b)"/>
        </g>
        <path fill="#FFF" d="M76.02 3.533a1.246 1.246 0 1 0 2.492 0 1.246 1.246 0 0 0-2.492 0M72.046 3.533a1.246 1.246 0 1 0 2.493 0 1.246 1.246 0 0 0-2.493 0M68.073 3.533a1.246 1.246 0 1 0 2.493 0 1.246 1.246 0 0 0-2.493 0"/>
        <path fill="#F4C669" d="M62.985 61.964a3.146 3.146 0 0 0 2.683-4.787l-9.416-15.42a3.148 3.148 0 0 0-5.372 3.28l9.415 15.419a3.147 3.147 0 0 0 2.69 1.508"/>
        <path fill="#BE7C5E" d="M50.145 35.44l-.649 8.332-5.818-.624 2.435-11.807z"/>
        <path fill="#BE7C5E" d="M43.069 29.854a6.544 6.544 0 1 0 13.044-1.08 6.544 6.544 0 0 0-13.044 1.08"/>
        <g transform="translate(42.869 22.896)">
            <mask id="d" fill="#fff">
                <use xlink:href="#c"/>
            </mask>
            <use fill="#BE7C5E" xlink:href="#c"/>
            <path fill="#072042" d="M12.86 2.982s.588 3.13-8.866 1.124l-.859 4.338s-1.14 6.569-1.206 5.762C1.862 13.4-5.243 1.846 4.494-.934c9.104-2.6 8.365 3.916 8.365 3.916" mask="url(#d)"/>
        </g>
        <path fill="#BE7C5E" d="M48.21 30.165a1.783 1.783 0 1 1-3.555-.284 1.783 1.783 0 0 1 3.554.284"/>
        <path fill="#FFD474" d="M52.501 39.825H41.394c-3.36 0-4.87 3.206-4.756 5.237l2.552 20.694a1.92 1.92 0 0 0 1.93 1.69l13.573-.096a1.92 1.92 0 0 0 1.91-1.773l1.4-19.927c.221-3.15-2.306-5.825-5.502-5.825"/>
        <path fill="#BE7C5E" d="M42.869 39.825l9.801.008s-.492 3.556-4.928 3.556-4.873-3.564-4.873-3.564"/>
        <path fill="#072042" d="M37.74 27.736a6.235 6.235 0 1 1 4.913-11.462 6.235 6.235 0 0 1-4.914 11.462"/>
        <path fill="#5C636E" d="M7.58 69.228h96.416c.686 0 1.243-.399 1.243-.891s-.557-.891-1.243-.891H7.581c-.687 0-1.243.399-1.243.891s.556.891 1.243.891" opacity=".1"/>
        <path fill="#BE7C5E" d="M53.231 62.068c-.787-1.547-2.73-2.189-4.341-1.433a3.19 3.19 0 0 0-1.26 1.054l-4.838.182-1.705 3.083 6.804.553a3.337 3.337 0 0 0 3.849.731c1.61-.756 2.278-2.623 1.491-4.17"/>
        <path fill="#CFD1D3" d="M43.76 66.555h14.256v-1.782H43.76z"/>
        <path fill="#E2E4E9" d="M56.234 66.555h21.564c1.242 0 2.332-.82 2.666-2.006l4.204-14.964c.372-1.323-.632-2.632-2.019-2.632H62.843c-.83 0-1.554.553-1.765 1.348l-4.844 18.254z"/>
        <path fill="#FFF" d="M68.708 58.09a2.228 2.228 0 1 0 4.455 0 2.228 2.228 0 0 0-4.455 0"/>
        <path fill="#FFD474" d="M43.694 66.555l-12.855-.065c-.766-.01-1.529-.26-2.098-.781a3.128 3.128 0 0 1-.777-3.518l8.361-19.666c.636-1.485 2.314-2.192 3.796-1.6 1.55.619 2.293 2.415 1.642 3.973l-6.428 15.46 8.425.096-.066 6.101z"/>
        <path fill="#E5EBF1" d="M48.316 9.531H35.64c-.928 0-1.68-.73-1.68-1.63v-4.76c0-.9.752-1.629 1.68-1.629h12.677c.929 0 1.681.73 1.681 1.63v4.76c0 .9-.752 1.629-1.68 1.629"/>
        <path fill="#E5EBF1" d="M37.523 8.64v2.673l3.564-2.673zM26.831 51.408V21.114H.992v22.531c0 1.16.941 2.1 2.102 2.1H20.39l6.441 5.663z"/>
        <path fill="#232931" d="M2.943 15.768H24.88c1.077 0 1.951.843 1.951 1.884v3.462H.992v-3.462c0-1.041.874-1.884 1.951-1.884"/>
        <path fill="#FFF" d="M8.12 18.886a1.336 1.336 0 1 1-2.673 0 1.336 1.336 0 0 1 2.673 0M11.684 18.886a1.337 1.337 0 1 1-2.674 0 1.337 1.337 0 0 1 2.674 0M16.139 18.886a1.337 1.337 0 1 1-2.673 0 1.337 1.337 0 0 1 2.673 0"/>
        <path fill="#F8FCFF" d="M19.703 31.806a7.128 7.128 0 1 1-14.256 0 7.128 7.128 0 0 1 14.256 0"/>
        <path fill="#FFF" d="M15.49 57.645h7.535a.24.24 0 0 1 .242.24v5.678c0 1.653-1.35 2.992-3.013 2.992h-1.993c-1.664 0-3.013-1.34-3.013-2.992v-5.679a.24.24 0 0 1 .242-.239"/>
        <path fill="#FFF" d="M15.507 65.664c-1.553-.957-4.218-3.78-3.774-5.767.118-.531.417-.931.86-1.156 1.03-.522 2.504.108 2.668.182l-.49 1.115c-.356-.157-1.224-.415-1.634-.207-.083.042-.174.115-.222.334-.259 1.157 1.826 3.598 3.224 4.458l-.632 1.041z"/>
        <path fill="#84B4FE" d="M17.688 34.935h-.872v-2.068c0-.451-.393-.818-.875-.818s-.874.367-.874.818v2.068h-1.173v-3.039c0-.45-.392-.816-.874-.816s-.874.366-.874.816v3.04h-1.172v-5.877c0-.451-.393-.817-.875-.817s-.874.366-.874.817v5.876h-.872c-.13 0-.233.098-.233.218s.104.217.233.217h9.335c.129 0 .233-.098.233-.217 0-.12-.104-.218-.233-.218"/>
        <path fill="#9CA5B4" d="M86.621 18.505v-.015l-.004-.038-.002-.016V8.64c-5.001.2-8.997 4.509-8.997 9.796 0 5.416 4.191 9.806 9.361 9.806a9.02 9.02 0 0 0 1.331-.1l-.45-2.557c-.622-3.54-1.239-7.08-1.239-7.08"/>
        <path fill="#232931" d="M87.419 16.659l4.455-6.858a10.464 10.464 0 0 0-4.455-1.161v8.019z"/>
        <path fill="#FFF" d="M92.176 10.422l-4.757 8.217c.393 2.28 1.135 6.544 1.668 9.603 4.036-.956 7.078-4.697 7.242-9.225v-.766c-.118-3.27-1.739-6.132-4.153-7.829M39.305 5.076a.89.89 0 1 1-1.782 0 .89.89 0 0 1 1.782 0M42.869 5.076a.89.89 0 1 1-1.782 0 .89.89 0 0 1 1.782 0M46.433 5.076a.89.89 0 1 1-1.782 0 .89.89 0 0 1 1.782 0"/>
    </g>
</svg>
