<?xml version="1.0" encoding="UTF-8"?>
<svg width="86px" height="91px" viewBox="0 0 86 91" version="1.1" xmlns="http://www.w3.org/2000/svg" xmlns:xlink="http://www.w3.org/1999/xlink">
    <!-- Generator: Sketch 51.2 (57519) - http://www.bohemiancoding.com/sketch -->
    <title>undraw_confirmed_81ex</title>
    <desc>Created with Sketch.</desc>
    <defs>
        <linearGradient x1="50%" y1="99.9982817%" x2="50%" y2="-0.00171833116%" id="linearGradient-1">
            <stop stop-color="#808080" stop-opacity="0.25" offset="0%"></stop>
            <stop stop-color="#808080" stop-opacity="0.12" offset="54%"></stop>
            <stop stop-color="#808080" stop-opacity="0.1" offset="100%"></stop>
        </linearGradient>
        <linearGradient x1="50%" y1="100%" x2="50%" y2="-0.00555926173%" id="linearGradient-2">
            <stop stop-color="#808080" stop-opacity="0.25" offset="0%"></stop>
            <stop stop-color="#808080" stop-opacity="0.12" offset="54%"></stop>
            <stop stop-color="#808080" stop-opacity="0.1" offset="100%"></stop>
        </linearGradient>
    </defs>
    <g id="Page-1" stroke="none" stroke-width="1" fill="none" fill-rule="evenodd">
        <g id="Approved_landing" transform="translate(-1257.000000, -1042.000000)">
            <g id="Group-2" transform="translate(853.000000, 1011.000000)">
                <g id="undraw_confirmed_81ex" transform="translate(404.800000, 31.900000)">
                    <path d="M42.35,81.6243214 C61.6461388,81.6243214 77.28875,65.9526887 77.28875,46.62075 C77.28875,27.2888113 61.6461388,11.6171786 42.35,11.6171786 C23.0538612,11.6171786 7.41125,27.2888113 7.41125,46.62075 C7.41125,65.9526887 23.0538612,81.6243214 42.35,81.6243214 Z" id="Oval" stroke="#E5EBF1" stroke-width="0.55" stroke-dasharray="1.425600004196167"></path>
                    <path d="M42.35,89.0493214 C65.7392592,89.0493214 84.7,70.053403 84.7,46.62075 C84.7,23.188097 65.7392592,4.19217857 42.35,4.19217857 C18.9607408,4.19217857 0,23.188097 0,46.62075 C0,70.053403 18.9607408,89.0493214 42.35,89.0493214 Z" id="Oval" stroke="#E5EBF1" stroke-width="0.55" stroke-dasharray="1.425600004196167"></path>
                    <path d="M23.7230583,62.8213929 C23.7230583,62.8213929 19.713925,72.0896786 40.7865792,74.5623214 L40.7865792,83.9343214 L65.1484167,83.9343214 L65.1484167,59.1147857 L23.4101389,57.981 L23.7230583,62.8213929 Z" id="Shape" fill="#BE7C5E" fill-rule="nonzero"></path>
                    <path d="M35.1740278,23.6727857 C33.944841,25.6160119 31.3799943,26.1999652 29.43325,24.9798214 L17.2705653,16.9466786 C15.3309377,15.7152113 14.7480658,13.145606 15.96595,11.19525 C17.1951368,9.25202385 19.7599835,8.66807053 21.7067278,9.88821429 L33.8670597,17.9166429 C35.8103856,19.1475247 36.3946721,21.7208366 35.1740278,23.6727857 Z" id="Shape" fill="#BE7C5E" fill-rule="nonzero"></path>
                    <ellipse id="Oval" fill="#BE7C5E" fill-rule="nonzero" cx="60.5240319" cy="60.4536429" rx="9.14877639" ry="9.16575"></ellipse>
                    <rect id="Rectangle-path" fill="url(#linearGradient-1)" fill-rule="nonzero" x="22.3890333" y="0" width="37.9291306" height="68.5881429" rx="1.4553"></rect>
                    <rect id="Rectangle-path" fill="#FFFFFF" fill-rule="nonzero" x="22.9007625" y="0.927535714" width="36.9033194" height="66.7354286" rx="1.620432"></rect>
                    <path d="M50.6235431,2.60110714 C50.4029547,4.06348425 49.1505726,5.14602448 47.6743361,5.15035714 L34.9293389,5.15035714 C33.4535489,5.14544409 32.2018284,4.06304408 31.9813083,2.60110714 L25.2288361,2.60110714 C24.857043,2.60079439 24.5003708,2.74854346 24.237363,3.01181816 C23.9743552,3.27509286 23.8265804,3.63230272 23.8265806,4.00478571 L23.8265806,64.5833571 C23.8262684,64.95584 23.9737438,65.313174 24.236531,65.5766698 C24.4993181,65.8401655 24.8558665,65.9882144 25.2276597,65.9882143 L57.4771847,65.9882143 C57.8489778,65.988527 58.2056501,65.840778 58.4686579,65.5775033 C58.7316657,65.3142286 58.8794404,64.9570187 58.8794403,64.5845357 L58.8794403,4.00596429 C58.8797524,3.63348142 58.732277,3.27614743 58.4694898,3.01265168 C58.2067027,2.74915592 57.8501543,2.60110701 57.4783611,2.60110714 L50.6235431,2.60110714 Z" id="Shape" fill="#0467DD" fill-rule="nonzero"></path>
                    <rect id="Rectangle-path" fill="#E5EBF1" fill-rule="nonzero" x="37.2927042" y="3.399" width="8.22413472" height="1" rx="0.2376"></rect>
                    <ellipse id="Oval" fill="#DBDBDB" fill-rule="nonzero" cx="47.2637764" cy="3.60525" rx="1" ry="1"></ellipse>
                    <rect id="Rectangle-path" fill="#BE7C5E" fill-rule="nonzero" transform="translate(62.963083, 47.018780) rotate(-13.010000) translate(-62.963083, -47.018780) " x="58.7998427" y="30.3649761" width="8.32648056" height="33.3076071" rx="4.16324028"></rect>
                    <rect id="Rectangle-path" fill="#FFD474" fill-rule="nonzero" x="35.7539875" y="81.8105357" width="32.9388889" height="6.36428571"></rect>
                    <g id="Group" opacity="0.5" transform="translate(30.703750, 23.689286)" fill="url(#linearGradient-2)" fill-rule="nonzero">
                        <ellipse id="Oval" cx="10.6486722" cy="10.6059643" rx="10.5804417" ry="10.6000714"></ellipse>
                    </g>
                    <ellipse id="Oval" fill="#10C26B" fill-rule="nonzero" cx="41.3524222" cy="34.29525" rx="9.95813194" ry="9.97660714"></ellipse>
                    <polygon id="Shape" fill="#FFFFFF" fill-rule="nonzero" points="37.0303694 32.9634643 40.7642278 36.3931071 46.0544486 28.5992143 47.9225542 30.1584643 40.7642278 39.5116071 35.4740069 33.5881071"></polygon>
                    <path d="M28.1803958,60.2320714 C26.9512091,62.1752976 24.3863623,62.7592509 22.4396181,61.5391071 L17.3717347,57.8431071 C15.4321071,56.6116399 14.8492352,54.0420346 16.0671194,52.0916786 C17.2963062,50.1484524 19.861153,49.5644991 21.8078972,50.7846429 L26.8746042,54.4877143 C28.8103517,55.7185035 29.3932801,58.2828855 28.1803958,60.2320714 Z" id="Shape" fill="#BE7C5E" fill-rule="nonzero"></path>
                    <path d="M30.3390694,48.1788214 C29.1098827,50.1220476 26.5450359,50.7060009 24.5982917,49.4858571 L16.3447472,44.1351429 C14.4051196,42.9036756 13.8222477,40.3340703 15.0401319,38.3837143 C16.2693187,36.4404881 18.8341655,35.8565348 20.7809097,37.0766786 L29.0344542,42.4273929 C30.9740817,43.6588601 31.5569537,46.2284654 30.3390694,48.1788214 Z" id="Shape" fill="#BE7C5E" fill-rule="nonzero"></path>
                    <path d="M32.4989194,36.1338214 C31.2697327,38.0770476 28.7048859,38.6610009 26.7581417,37.4408571 L16.3459236,30.64875 C14.406296,29.4172827 13.8234241,26.8476775 15.0413083,24.8973214 C16.2704951,22.9540953 18.8353418,22.370142 20.7820861,23.5902857 L31.1931278,30.3823929 C33.1331701,31.6134728 33.7165862,34.1831596 32.4989194,36.1338214 Z" id="Shape" fill="#BE7C5E" fill-rule="nonzero"></path>
                </g>
            </g>
        </g>
    </g>
</svg>