<svg xmlns="http://www.w3.org/2000/svg" width="65" height="65" viewBox="0 0 65 65">
    <g fill="none" fill-rule="evenodd">
        <circle cx="32.5" cy="32.5" r="32.5" fill="#B9D5F4"/>
        <path fill="#0054F2" d="M43.971 21.062c.555-.02.987.41.967.967l-.28 7.539c-.02.554-.353.687-.743.297l-7.78-7.78c-.39-.39-.258-.723.297-.743l7.54-.28z"/>
        <path fill="#0054F2" d="M24.318 38.682L38.999 24l2.954 2.954-14.682 14.681z"/>
        <path fill="#0054F2" d="M22.14 44.808a.917.917 0 0 1-.967-.966l.28-7.539c.02-.554.353-.687.742-.297l7.78 7.78c.39.39.26.723-.297.743l-7.539.28z"/>
        <path stroke="#6E8CD6" stroke-linecap="square" stroke-width="2" d="M22 33V22.996c0-.55.445-.996.996-.996H33M44 33v10.004c0 .55-.445.996-.996.996H33"/>
    </g>
</svg>
